<?xml version="1.0" encoding="UTF-8"?>
<!-- Generator: Adobe Illustrator 19.2.1, SVG Export Plug-In . SVG Version: 6.00 Build 0)  -->
<svg version="1.1" id="Capa_1" xmlns="http://www.w3.org/2000/svg" xmlns:xlink="http://www.w3.org/1999/xlink" x="0px" y="0px" width="22px" height="432.2px" viewBox="0 0 22 432.2" style="enable-background:new 0 0 22 432.2;" xml:space="preserve">
<style type="text/css">
	.st0{fill:#D68637;}
	.st1{fill:#F46F6D;}
</style>
<g>
	<path class="st0" d="M0.4,280.8l3.1,5c0.5,0.7,1.3,1.2,2.1,1.2h11.9c1.4,0,2.5-1.1,2.5-2.5v-10c0-1.4-1.1-2.5-2.5-2.5c0,0,0,0,0,0   H5.6c-0.9,0-1.7,0.4-2.1,1.2l-3.1,5C-0.1,278.9-0.1,279.9,0.4,280.8z M1.4,278.8l3.1-5c0.2-0.4,0.6-0.6,1.1-0.6h11.9   c0.7,0,1.2,0.6,1.2,1.2v10c0,0.7-0.6,1.2-1.2,1.2H5.6c-0.4,0-0.8-0.2-1.1-0.6l-3.1-5C1.2,279.7,1.2,279.2,1.4,278.8L1.4,278.8z"/>
	<path class="st0" d="M5.6,281.3c1,0,1.9-0.8,1.9-1.9s-0.8-1.9-1.9-1.9c-1,0-1.9,0.8-1.9,1.9C3.7,280.4,4.6,281.3,5.6,281.3   C5.6,281.3,5.6,281.3,5.6,281.3z M5.6,278.2c0.7,0,1.2,0.6,1.2,1.2c0,0.6-0.6,1.2-1.2,1.2c-0.7,0-1.2-0.6-1.2-1.2   S4.9,278.2,5.6,278.2z"/>
</g>
<g>
	<path class="st0" d="M19.6,312.8l-3.1-5c-0.5-0.7-1.3-1.2-2.1-1.2H2.5c-1.4,0-2.5,1.1-2.5,2.5v10c0,1.4,1.1,2.5,2.5,2.5   c0,0,0,0,0,0h11.9c0.9,0,1.7-0.4,2.1-1.2l3.1-5C20.2,314.7,20.2,313.7,19.6,312.8z M18.6,314.8l-3.1,5c-0.2,0.4-0.6,0.6-1.1,0.6   H2.5c-0.7,0-1.2-0.6-1.2-1.2v-10c0-0.7,0.6-1.2,1.2-1.2h11.9c0.4,0,0.8,0.2,1.1,0.6l3.1,5C18.9,313.9,18.9,314.4,18.6,314.8z"/>
	<path class="st0" d="M14.5,312.3c-1,0-1.9,0.8-1.9,1.9c0,1.1,0.8,1.9,1.9,1.9c1,0,1.9-0.8,1.9-1.9   C16.4,313.1,15.5,312.3,14.5,312.3C14.5,312.3,14.5,312.3,14.5,312.3z M14.5,315.4c-0.7,0-1.2-0.6-1.2-1.2c0-0.6,0.6-1.2,1.2-1.2   c0.7,0,1.2,0.6,1.2,1.2C15.7,314.8,15.2,315.4,14.5,315.4z"/>
</g>
<path class="st1" d="M20,16.1l-2.9-2.9c0.5-1,0.7-2.2,0.7-3.3s-0.3-2.3-0.7-3.3L20,3.8L16.2,0l-2.9,2.9c-2.1-1-4.5-1-6.7,0L3.9,0  L0.1,3.8l2.9,2.9c-0.5,1-0.7,2.2-0.7,3.3s0.3,2.3,0.7,3.3l-2.9,2.9l3.8,3.8l2.9-2.9c1,0.5,2.2,0.7,3.3,0.7c1.1,0,2.3-0.3,3.3-0.7  l2.9,2.9L20,16.1z M14.1,3.2l2.1-2.1l2.7,2.7l-2.1,2.1c0-0.1-0.1-0.1-0.1-0.1l-0.1-0.2c-0.1-0.2-0.2-0.3-0.4-0.5  c0,0-0.1-0.1-0.1-0.1c-0.3-0.4-0.6-0.7-1-1c0,0-0.1-0.1-0.1-0.1c-0.2-0.2-0.5-0.4-0.7-0.5C14.2,3.3,14.1,3.3,14.1,3.2z M3.3,5.9  L1.2,3.8l2.7-2.7L6,3.2c-0.1,0-0.1,0.1-0.2,0.1c-0.1,0-0.1,0.1-0.2,0.1C5.4,3.6,5.2,3.8,5,4C4.8,4.1,4.7,4.3,4.5,4.4  C4.3,4.6,4.2,4.7,4,4.9L3.9,5.1C3.8,5.2,3.7,5.4,3.6,5.5c0,0.1-0.1,0.2-0.1,0.2C3.4,5.8,3.4,5.9,3.3,5.9z M6,16.7l-2.1,2.1l-2.7-2.7  L3.3,14c0,0.1,0.1,0.1,0.1,0.2c0,0.1,0.1,0.1,0.1,0.2c0.1,0.2,0.2,0.3,0.4,0.5C4,14.9,4,15,4,15c0.1,0.2,0.3,0.3,0.5,0.5  c0.2,0.2,0.4,0.4,0.6,0.6c0.2,0.1,0.3,0.3,0.5,0.4c0.1,0,0.1,0.1,0.2,0.1C5.9,16.6,5.9,16.7,6,16.7z M6.8,16.2  c-0.1-0.1-0.2-0.1-0.3-0.2c-0.1,0-0.1-0.1-0.2-0.1c-0.1-0.1-0.2-0.1-0.3-0.2c-0.1-0.1-0.2-0.1-0.3-0.2c-0.1-0.1-0.1-0.1-0.2-0.2  c-0.3-0.3-0.6-0.6-0.9-0.9c-0.1-0.1-0.1-0.1-0.2-0.2c-0.1-0.1-0.1-0.2-0.2-0.3c-0.1-0.1-0.1-0.2-0.2-0.3c0-0.1-0.1-0.1-0.1-0.2  c-0.1-0.1-0.1-0.2-0.2-0.3C3.2,12.2,3,11.1,3,10c0-1.1,0.3-2.2,0.8-3.2c0.1-0.1,0.1-0.2,0.2-0.3C4,6.3,4,6.2,4.1,6.2  C4.2,6,4.3,5.8,4.5,5.6c0.1-0.1,0.1-0.1,0.2-0.2C4.8,5.3,4.9,5.1,5,5c0.1-0.2,0.3-0.3,0.5-0.4c0.1-0.1,0.1-0.1,0.2-0.2  C5.9,4.2,6.1,4.1,6.3,4c0.1,0,0.1-0.1,0.2-0.1c0.1-0.1,0.2-0.1,0.3-0.2l0,0c1-0.5,2.1-0.8,3.2-0.8s2.2,0.3,3.2,0.8l0,0  c0.1,0.1,0.2,0.1,0.3,0.2c0.1,0,0.1,0.1,0.2,0.1C13.9,4,14,4.1,14.1,4.2c0.1,0.1,0.2,0.1,0.3,0.2l0.2,0.2C14.7,4.7,14.9,4.8,15,5  c0.1,0.1,0.3,0.3,0.4,0.5c0.1,0.1,0.1,0.1,0.2,0.2c0.1,0.1,0.1,0.2,0.2,0.3C15.9,6,16,6.1,16,6.2c0,0.1,0.1,0.1,0.1,0.2  c0.1,0.1,0.1,0.2,0.2,0.3h0c0.5,1,0.8,2.1,0.8,3.2c0,1.1-0.3,2.2-0.8,3.2l0,0c-0.1,0.1-0.1,0.2-0.2,0.3c0,0.1-0.1,0.1-0.1,0.2  c-0.1,0.1-0.1,0.2-0.2,0.3c-0.1,0.1-0.1,0.2-0.2,0.3c-0.1,0.1-0.1,0.1-0.2,0.2c-0.1,0.2-0.3,0.3-0.4,0.5c-0.1,0.1-0.3,0.3-0.5,0.4  c-0.1,0.1-0.1,0.1-0.2,0.2c-0.1,0.1-0.2,0.1-0.3,0.2l-0.3,0.2c-0.1,0-0.1,0.1-0.2,0.1c-0.1,0.1-0.2,0.1-0.3,0.2l0,0  c-1,0.5-2.1,0.8-3.2,0.8C8.9,17,7.8,16.8,6.8,16.2z M14.2,16.6c0.1,0,0.1-0.1,0.2-0.1c0.2-0.1,0.3-0.2,0.5-0.4l0.1-0.1  c0.2-0.1,0.3-0.3,0.5-0.5c0.2-0.2,0.3-0.3,0.5-0.5l0.1-0.1c0.1-0.2,0.2-0.3,0.4-0.5c0.1-0.1,0.1-0.1,0.1-0.2c0-0.1,0.1-0.1,0.1-0.1  l2.1,2.1l-2.7,2.7l-2.1-2.1C14.1,16.7,14.2,16.6,14.2,16.6z"/>
<g>
	<path class="st1" d="M12.8,44.4h4.2v0.9h-4.2V44.4z M12.8,53h4.2v0.9h-4.2L12.8,53z M12.8,54.9h4.2v0.9h-4.2L12.8,54.9z M4.9,47   h0.9v-1.6h1.6v-1H5.8v-1.6H4.9v1.6H3.3v1h1.6L4.9,47z M7.5,52.9l-0.6-0.6l-1.5,1.5l-1.5-1.5l-0.6,0.6l1.5,1.5l-1.5,1.5l0.6,0.6   L5.4,55l1.5,1.5l0.6-0.6L6,54.4L7.5,52.9z"/>
	<path class="st1" d="M17.3,39.7H2.8c-1.5,0-2.7,1.2-2.7,2.7v14.5c0,1.5,1.2,2.7,2.7,2.7h14.5c1.5,0,2.7-1.2,2.7-2.7V42.4   C20,40.9,18.8,39.7,17.3,39.7z M19,42.4v6.7h-8.4v-8.4h6.7C18.2,40.7,19,41.5,19,42.4z M2.8,40.7h6.7v8.4H1.1v-6.7   C1.1,41.5,1.9,40.7,2.8,40.7z M1.1,56.9v-6.7h8.4v8.4H2.8C1.9,58.6,1.1,57.8,1.1,56.9z M17.3,58.6h-6.7v-8.4H19v6.7   C19,57.8,18.2,58.6,17.3,58.6z"/>
</g>
<path class="st1" d="M20,85.2v-4.3c0-0.6,0-1.1-0.3-1.7c-0.6-1.6-2.2-2.7-4-2.7c-0.5,0-1.1,0.1-1.6,0.3c-1.6,0.6-2.7,2.3-2.7,4.1  v4.4c-0.2,0.2-0.3,0.4-0.5,0.6c-0.6-0.7-1.4-1.3-2.4-1.7c0.8-0.6,1.3-1.4,1.6-2.3c0,0,0,0,0,0c0,0,0-0.1,0-0.1c0,0,0-0.1,0-0.1  c0-0.1,0-0.2,0-0.3c0,0,0-0.1,0-0.1c0-0.1,0-0.3,0-0.4v0c0-0.1,0-0.2,0-0.4c0,0,0-0.1,0-0.1c0-0.1,0-0.3-0.1-0.4  c0-0.1,0-0.2-0.1-0.2c0-0.1,0-0.1,0-0.2c0-0.1-0.1-0.2-0.1-0.3c0,0,0-0.1,0-0.1c-0.6-1.6-2.2-2.7-3.9-2.7c-0.5,0-0.9,0.1-1.4,0.2  c-0.1,0-0.1,0-0.2,0.1l0,0c-0.1,0-0.2,0.1-0.4,0.2c0,0-0.1,0-0.1,0.1c-0.1,0-0.2,0.1-0.3,0.1c0,0-0.1,0-0.1,0.1  c-0.1,0.1-0.2,0.1-0.3,0.2c0,0,0,0,0,0c-1.1,0.9-1.6,2.2-1.6,3.5c0,0,0,0,0,0c0.1,1.3,0.7,2.5,1.8,3.2c-2.3,1-3.7,3-3.7,5.7  c0,0.2,0.2,0.4,0.4,0.4h20.9c0.2,0,0.4-0.2,0.4-0.4C21.8,88,21.1,86.3,20,85.2z M17.2,83.7C17.2,83.7,17.2,83.7,17.2,83.7  c-0.1,0-0.2,0.1-0.2,0.1c-0.4,0.2-0.9,0.3-1.3,0.3h-0.1c-0.2,0-0.4,0-0.7-0.1l0,0c0,0,0,0-0.1,0c-0.4-0.1-0.7-0.3-1-0.6  c1.3-0.2,2.5-0.9,3.4-1.9c0.2,0.6,0.5,1.1,0.9,1.5C17.8,83.3,17.5,83.5,17.2,83.7z M12.2,80.8c0-1.5,0.9-2.9,2.2-3.4  c0.4-0.2,0.9-0.2,1.3-0.2c1.5,0,2.7,0.9,3.3,2.2c0.2,0.5,0.2,1,0.2,1.5v3.6c-0.3-0.2-0.7-0.4-1.1-0.6c0.3-0.2,0.5-0.5,0.7-0.8  c0.1-0.1,0.1-0.3-0.1-0.5c-0.6-0.5-1-1.2-1-2c0-0.2-0.2-0.3-0.3-0.3c-0.1,0-0.2,0.1-0.3,0.2c-0.9,1.4-2.4,2.2-4,2.3  c-0.2,0-0.3,0.2-0.3,0.4c0,0.1,0,0.1,0.1,0.2c0.2,0.2,0.3,0.4,0.5,0.6c-0.2,0.1-0.4,0.2-0.6,0.3c-0.2,0.1-0.4,0.2-0.5,0.3L12.2,80.8  C12.2,80.8,12.2,80.8,12.2,80.8z M2.7,80.6c0-0.1,0-0.3,0-0.4c0-0.1,0-0.1,0-0.2c0-0.2,0.1-0.4,0.1-0.5c0-0.1,0.1-0.2,0.1-0.3  C3,79.2,3,79.1,3.1,79c0-0.1,0.1-0.1,0.1-0.2c0.1-0.2,0.2-0.3,0.3-0.5c0,0,0.1-0.1,0.1-0.1C3.7,78.1,3.8,78,3.9,78c0,0,0,0,0.1-0.1  c0.1-0.1,0.2-0.2,0.3-0.2c0,0,0.1,0,0.1-0.1c0.5-0.3,1.1-0.5,1.7-0.5c1.6,0,3,1.1,3.4,2.6l0,0.1c0,0.1,0,0.2,0.1,0.3  c0,0,0,0.1,0,0.1c0,0.1,0,0.3,0,0.4l0,0c0,0.1,0,0.3,0,0.4c0,0,0,0,0,0c-0.8-0.5-1.3-1.3-1.3-2.2c0-0.1-0.1-0.3-0.2-0.3  c0,0-0.1,0-0.1,0c-0.1,0-0.2,0.1-0.3,0.2c-0.8,1.3-2.3,2-3.8,2C3.5,80.8,3.1,80.8,2.7,80.6C2.7,80.6,2.7,80.6,2.7,80.6z M2.9,82  c-0.1-0.2-0.1-0.4-0.2-0.6c0.4,0.1,0.8,0.1,1.2,0.1c1.5,0,2.9-0.6,3.9-1.7c0.3,0.9,0.9,1.6,1.7,2.1c-0.3,0.9-1.1,1.7-2,2.1  c-0.4,0.2-0.9,0.3-1.3,0.3C4.7,84.2,3.4,83.3,2.9,82z M4.4,84.7c1,0.5,2.2,0.4,3.4,0c0,0,0.1,0,0.1,0c0,0,0.1,0,0.1,0  c2,0.7,3.3,2.2,3.5,4.3c0,0.2,0,0.3,0,0.5H0.9C1,87.2,2.2,85.5,4.4,84.7z M12.3,89.5c0-0.1,0-0.3,0-0.4c0,0,0,0,0,0  c0-0.1,0-0.2,0-0.3c-0.1-0.8-0.4-1.6-0.8-2.3c0.6-0.9,1.5-1.6,2.5-2c1,0.5,2.3,0.5,3.3,0.1c0,0,0,0,0.1,0c0,0,0.1,0,0.1,0  c2.1,0.8,3.4,2.6,3.5,5L12.3,89.5C12.3,89.5,12.3,89.5,12.3,89.5z M17.2,206.6l-4.1-8.4v-2.4l0.8-2.2c0.2-0.4,0.3-0.8,0.3-1.2  c0-0.8-0.4-1.6-1.1-2.1v-1.3c0-0.6-0.5-1.1-1.1-1.1c-0.6,0-1.1,0.5-1.1,1.1v0.9c-0.3,0.1-0.6,0.2-0.9,0.4c-0.3-0.2-0.6-0.3-0.9-0.4  v-0.9c0-0.6-0.5-1.1-1.1-1c-0.6,0-1,0.5-1,1v1.3c-0.7,0.5-1.1,1.3-1.1,2.1c0,0.4,0.1,0.8,0.3,1.2l0.8,2.2v2.4l-4.1,8.4  c-0.9,1.5-0.4,3.4,1.2,4.3c0.5,0.3,1,0.4,1.6,0.4c0.8,0,1.6-0.3,2.2-0.9c1.2,1.2,3.1,1.2,4.3,0c0.6,0.6,1.3,0.9,2.2,0.9  c1.7,0,3.1-1.4,3.1-3.1C17.6,207.7,17.5,207.1,17.2,206.6L17.2,206.6z M7,193.3c-0.1-0.3-0.2-0.5-0.2-0.8c0-0.7,0.4-1.4,1.1-1.6  v-1.7c0-0.2,0.1-0.3,0.3-0.3c0.2,0,0.3,0.1,0.3,0.3v1.6c0,0,0.1,0,0.1,0c0.7,0,1.2,0.4,1.6,0.9c0.3-0.6,0.9-0.9,1.6-0.9  c0,0,0.1,0,0.1,0v-1.6c0-0.2,0.2-0.3,0.3-0.3c0.2,0,0.3,0.1,0.3,0.3v1.7c0.7,0.3,1.1,0.9,1.1,1.6c0,0.3-0.1,0.6-0.2,0.8l-0.8,2  c0,0-0.1,0-0.1,0H7.9c0,0-0.1,0-0.1,0C7.8,195.4,7,193.3,7,193.3z M7.9,198v-2h4.5v2C12.4,198,7.9,198,7.9,198z M14.5,210.6  c-1,0-1.8-0.6-2.2-1.4c-0.5,1.2-1.9,1.7-3.1,1.2c-0.5-0.2-1-0.7-1.2-1.2c-0.5,1.2-1.9,1.7-3.1,1.2c-1.2-0.5-1.7-1.9-1.2-3.1  c0-0.1,0.1-0.2,0.1-0.2l0,0l4-8.2c0.1,0,0.1,0,0.2,0h4.4c0.1,0,0.1,0,0.2,0l4,8.2l0,0c0.7,1.1,0.3,2.6-0.8,3.3  C15.3,210.5,14.9,210.6,14.5,210.6z M16.6,118.6H4.9c-0.8,0-1.4,0.6-1.4,1.3v1.5h-1c-0.2,0-0.4,0.2-0.4,0.4c0,0.2,0.2,0.4,0.4,0.4  c0,0,0,0,0,0h1v2.3h-1c-0.2,0-0.4,0.1-0.4,0.3s0.1,0.4,0.3,0.4c0,0,0,0,0,0h1v2.3h-1c-0.2,0-0.4,0.2-0.4,0.4s0.2,0.4,0.4,0.4h1v2.3  h-1c-0.2,0-0.4,0.2-0.4,0.4c0,0.2,0.2,0.4,0.4,0.4h1v1.5c0,0.7,0.6,1.3,1.4,1.3h6v3.1c0,0.2,0.2,0.4,0.4,0.4c0,0,0,0,0,0  c0.1,0,0.1,0,0.2-0.1l1.9-1.3l1.9,1.3c0.2,0.1,0.4,0.1,0.5-0.1c0-0.1,0.1-0.1,0.1-0.2V134h0.9c0.8,0,1.4-0.6,1.4-1.3v-12.8  C18,119.2,17.4,118.6,16.6,118.6z M15,136.5l-1.5-1c-0.1-0.1-0.3-0.1-0.4,0l-1.5,1v-2.4H15L15,136.5C15,136.5,15,136.5,15,136.5z   M17.3,132.8c0,0.3-0.3,0.6-0.7,0.6H4.9c-0.4,0-0.7-0.3-0.7-0.6v-1.5h1.3c0.2,0,0.3-0.2,0.3-0.4c0-0.2-0.2-0.3-0.3-0.3H4.2v-2.3h1.3  c0.2,0,0.4-0.2,0.4-0.4c0-0.2-0.2-0.4-0.4-0.4H4.2v-2.3h1.3c0.2,0,0.4-0.1,0.4-0.3s-0.1-0.4-0.3-0.4c0,0,0,0,0,0H4.2v-2.3h1.3  c0.2,0,0.4-0.2,0.4-0.4c0-0.2-0.2-0.4-0.4-0.4H4.2v-1.5c0-0.3,0.3-0.6,0.7-0.6h11.7c0.4,0,0.7,0.3,0.7,0.6L17.3,132.8L17.3,132.8  L17.3,132.8L17.3,132.8z"/>
<g>
	<path class="st1" d="M17.9,229.3H2.1c-1.2,0-2.1,1-2.1,2.1v12.9c0,1.2,1,2.1,2.1,2.1h15.8c1.2,0,2.1-1,2.1-2.1v-12.9   C20,230.3,19.1,229.3,17.9,229.3L17.9,229.3z M0.9,231.5c0-0.7,0.6-1.3,1.3-1.3h15.8c0.7,0,1.3,0.6,1.3,1.3v2.1H0.9V231.5z    M19.2,244.4c0,0.7-0.6,1.3-1.3,1.3H2.1c-0.7,0-1.3-0.6-1.3-1.3v-10h18.3V244.4z"/>
	<circle class="st1" cx="2.6" cy="231.9" r="0.7"/>
	<circle class="st1" cx="5" cy="231.9" r="0.7"/>
	<circle class="st1" cx="7.3" cy="231.9" r="0.7"/>
	<path class="st1" d="M9.7,243.5c0.1,0.1,0.2,0.1,0.3,0.1c0.1,0,0.2,0,0.3-0.1l2.9-3c0.9-0.9,0.8-2.4-0.1-3.2   c-0.9-0.8-2.3-0.8-3.1,0c-0.9-0.9-2.3-0.9-3.2,0c-0.4,0.4-0.7,1-0.7,1.6c0,0.6,0.2,1.1,0.6,1.6L9.7,243.5L9.7,243.5z M8.4,237.6   c0.5,0,1,0.3,1.2,0.7c0.2,0.3,0.6,0.3,0.8,0c0.4-0.7,1.2-0.9,1.9-0.6s0.9,1.2,0.6,1.9c-0.1,0.1-0.1,0.2-0.2,0.3l-2.6,2.6l-2.6-2.6   c-0.5-0.6-0.5-1.4,0-2C7.7,237.7,8,237.6,8.4,237.6L8.4,237.6z"/>
</g>
<path class="st1" d="M18.5,160.1h-1.7c-0.2,0-0.4-0.2-0.4-0.4c0,0,0,0,0,0v-2.1c0-0.2,0.2-0.4,0.4-0.4h1.7c0.2,0,0.4,0.2,0.4,0.4  l0,0v2.1C18.8,160,18.7,160.1,18.5,160.1C18.5,160.1,18.5,160.1,18.5,160.1z M17.1,159.4h1v-1.3h-1V159.4z M18.5,164.1h-1.7  c-0.2,0-0.4-0.2-0.4-0.4c0,0,0,0,0,0v-2.1c0-0.2,0.2-0.4,0.4-0.4h1.7c0.2,0,0.4,0.2,0.4,0.4v2.1C18.8,163.9,18.7,164.1,18.5,164.1z   M17.1,163.4h1V162h-1V163.4z M18.5,168.1h-1.7c-0.2,0-0.4-0.2-0.4-0.4c0,0,0,0,0,0v-2.1c0-0.2,0.2-0.4,0.4-0.4h1.7  c0.2,0,0.4,0.2,0.4,0.4l0,0v2.1C18.8,167.9,18.7,168.1,18.5,168.1C18.5,168.1,18.5,168.1,18.5,168.1z M17.1,167.3h1V166h-1V167.3z   M18.5,172h-1.7c-0.2,0-0.4-0.2-0.4-0.4c0,0,0,0,0,0v-2.1c0-0.2,0.2-0.4,0.4-0.4h1.7c0.2,0,0.4,0.2,0.4,0.4v2.1  C18.8,171.9,18.7,172,18.5,172z M17.1,171.3h1V170h-1V171.3z"/>
<path class="st1" d="M14.6,174.4H2.5c-0.2,0-0.4-0.2-0.4-0.4v-19c0-0.2,0.2-0.4,0.4-0.4h12.1c1.4,0,2.6,1.1,2.6,2.6v14.6  C17.1,173.2,16,174.4,14.6,174.4z M2.8,173.7h11.7c1,0,1.8-0.8,1.8-1.8v-14.6c0-1-0.8-1.8-1.8-1.8H2.8L2.8,173.7L2.8,173.7z"/>
<path class="st1" d="M4.2,157.3H2.6c-0.2,0-0.3-0.2-0.3-0.4c0-0.2,0.2-0.3,0.3-0.3h1.6c0.2,0,0.3,0.2,0.3,0.4  C4.6,157.1,4.4,157.3,4.2,157.3z M4.2,159.2H2.6c-0.2,0-0.4-0.2-0.4-0.4s0.2-0.4,0.4-0.4l0,0h1.6c0.2,0,0.4,0.2,0.4,0.4  C4.6,159,4.4,159.2,4.2,159.2L4.2,159.2z M4.2,161.1H2.6c-0.2,0-0.4-0.1-0.4-0.3s0.1-0.4,0.3-0.4c0,0,0,0,0.1,0h1.6  c0.2,0,0.3,0.2,0.3,0.4C4.6,160.9,4.4,161.1,4.2,161.1z M4.2,163H2.6c-0.2,0-0.4-0.1-0.4-0.3s0.1-0.4,0.3-0.4c0,0,0,0,0.1,0h1.6  c0.2,0,0.4,0.2,0.4,0.4S4.4,163,4.2,163C4.3,163,4.2,163,4.2,163z M4.2,164.9H2.6c-0.2,0-0.3-0.2-0.3-0.4c0-0.2,0.2-0.3,0.3-0.3h1.6  c0.2,0,0.4,0.2,0.4,0.4l0,0C4.6,164.7,4.4,164.9,4.2,164.9C4.2,164.9,4.2,164.9,4.2,164.9z M4.2,166.8H2.6c-0.2,0-0.4-0.1-0.4-0.3  s0.1-0.4,0.3-0.4c0,0,0,0,0.1,0h1.6c0.2,0,0.4,0.2,0.4,0.4C4.6,166.6,4.4,166.8,4.2,166.8L4.2,166.8z M4.2,168.7H2.6  c-0.2,0-0.4-0.2-0.4-0.4s0.2-0.4,0.4-0.4l0,0h1.6c0.2,0,0.4,0.2,0.4,0.4C4.6,168.5,4.4,168.7,4.2,168.7  C4.2,168.7,4.2,168.7,4.2,168.7z M4.2,170.6H2.6c-0.2,0-0.4-0.1-0.4-0.3s0.1-0.4,0.3-0.4c0,0,0,0,0.1,0h1.6c0.2,0,0.4,0.1,0.4,0.3  C4.6,170.4,4.5,170.6,4.2,170.6C4.3,170.6,4.3,170.6,4.2,170.6z M4.2,172.5H2.6c-0.2,0-0.4-0.2-0.4-0.4s0.2-0.4,0.4-0.4l0,0h1.6  c0.2,0,0.4,0.2,0.4,0.4C4.6,172.3,4.4,172.5,4.2,172.5L4.2,172.5z M13.7,163.2H6.9c-0.2,0-0.4-0.2-0.4-0.4l0,0v-3.9  c0-0.2,0.2-0.4,0.4-0.4c0,0,0,0,0,0h6.8c0.2,0,0.4,0.2,0.4,0.4v3.9C14.1,163,13.9,163.2,13.7,163.2  C13.7,163.2,13.7,163.2,13.7,163.2z M7.2,162.5h6.1v-3.2H7.2V162.5z"/>
<g>
	<circle class="st1" cx="4.9" cy="346.6" r="0.8"/>
	<circle class="st1" cx="7.2" cy="346.6" r="0.8"/>
	<circle class="st1" cx="9.6" cy="346.6" r="0.8"/>
	<g>
		<path class="st1" d="M7.3,353.8c-1.2,0-2.4-0.3-3.4-0.9l-2.1,0.7c-0.6,0.2-1.1,0.1-1.4-0.3C0,353,0,352.6,0.1,352.2l0.7-2.1    c-1.5-2.8-1-6.3,1.3-8.6c1.4-1.4,3.2-2.1,5.1-2.1c1.9,0,3.8,0.8,5.1,2.1c1.4,1.4,2.1,3.2,2.1,5.1c0,1.9-0.8,3.8-2.1,5.1    C11,353.1,9.2,353.8,7.3,353.8L7.3,353.8z M3.9,351.9c0.1,0,0.2,0,0.3,0.1c1,0.6,2,0.8,3.1,0.8c1.7,0,3.2-0.7,4.4-1.8    c1.2-1.2,1.8-2.7,1.8-4.4c0-1.7-0.7-3.2-1.8-4.4c-1.2-1.2-2.7-1.8-4.4-1.8S4,341,2.8,342.2c-2,2-2.4,5.1-1,7.5    c0.1,0.1,0.1,0.3,0,0.4l-0.8,2.4c-0.1,0.2,0,0.3,0,0.3c0.1,0,0.1,0,0.2-0.1l2.4-0.8C3.7,351.9,3.8,351.9,3.9,351.9z"/>
	</g>
	<g>
		<path class="st1" d="M14.1,353.8c-1.3,0-2.6-0.3-3.7-1c-0.3-0.1-0.3-0.5-0.2-0.7c0-0.1,0.1-0.1,0.2-0.2c0.5-0.3,0.9-0.6,1.3-1    c1.2-1.2,1.8-2.7,1.8-4.4c0-2.2-1.2-4.3-3.1-5.4c-0.3-0.1-0.3-0.5-0.2-0.7c0-0.1,0.1-0.1,0.2-0.2c1.1-0.6,2.4-1,3.7-1    c1.9,0,3.8,0.8,5.1,2.1c2.3,2.3,2.8,5.8,1.3,8.6l0.7,2.1c0.1,0.5,0.1,0.9-0.1,1.2c-0.2,0.3-0.5,0.4-0.9,0.4c0,0,0,0,0,0    c-0.2,0-0.4,0-0.5-0.1l-2.1-0.7C16.4,353.5,15.3,353.8,14.1,353.8z M11.7,352.3c1.8,0.7,3.8,0.6,5.5-0.4c0.1-0.1,0.3-0.1,0.4,0    l2.4,0.8c0.1,0,0.2,0,0.2,0c0,0,0,0,0-0.2l-0.8-2.4c0-0.1,0-0.3,0-0.4c1.4-2.4,1-5.5-1-7.5c-1.2-1.2-2.7-1.8-4.4-1.8    c-0.8,0-1.6,0.2-2.4,0.5c1.8,1.4,2.8,3.5,2.8,5.8C14.5,348.8,13.5,351,11.7,352.3L11.7,352.3z"/>
	</g>
</g>
<g>
	<path class="st1" d="M11.5,392.2h6.7c1.5,0,2.7-1.2,2.7-2.7v-14.5c0-1.5-1.2-2.7-2.7-2.7H3.7c-1.5,0-2.7,1.2-2.7,2.7v14.5   c0,1.5,1.2,2.7,2.7,2.7h5.7v-1H3.7c-0.9,0-1.7-0.8-1.7-1.7v-14.5c0-0.9,0.8-1.7,1.7-1.7h14.5c0.9,0,1.7,0.8,1.7,1.7v14.5   c0,0.9-0.8,1.7-1.7,1.7h-6.7L11.5,392.2L11.5,392.2z"/>
	<path class="st1" d="M9.5,391.4h-1v-8h-2v-3h2v-2.3c0-1.2,0.6-2.8,2.4-3.5c0.5-0.2,1.2-0.3,2-0.3c1.2,0,2.2,0.2,2.2,0.3l0.4,0.1   l-0.1,3.7h-2.4c-0.2,0-0.4,0-0.5,0v2h3l-0.2,3h-2.8v8h-1v-9h2.8l0.1-1h-2.9v-3.1c0-0.2,0-0.3,0.1-0.5c0.2-0.3,0.7-0.4,1.3-0.4h1.4   l0.1-1.9c-0.5-0.1-1.1-0.1-1.6-0.1c-0.6,0-1.2,0.1-1.6,0.2c-1.7,0.6-1.7,2.3-1.7,2.6v3.3h-2v1h2L9.5,391.4"/>
</g>
<g>
	<path class="st1" d="M17.6,430.8v-1c0.3,0,0.5-0.2,0.5-0.6l0.3-8h-15l0.5,8c0,0.3,0.3,0.6,0.5,0.6h13.1v1H4.6   c-0.8,0-1.5-0.6-1.5-1.5l-0.5-8.1c-0.7-0.1-1.3-0.7-1.4-1.5L1,417.2c0-0.4,0.1-0.8,0.4-1.1c0.3-0.3,0.7-0.5,1.1-0.5h17   c0.4,0,0.8,0.2,1.1,0.5c0.3,0.3,0.4,0.7,0.4,1.1l-0.2,2.7c-0.1,0.8-0.6,1.4-1.4,1.5l-0.3,8.1h-0.5h0.5   C19.1,430.2,18.4,430.8,17.6,430.8z M2.5,416.6c-0.2,0-0.3,0.1-0.4,0.2C2,416.9,2,417,2,417.1l0.2,2.7c0,0.3,0.2,0.6,0.5,0.6h16.6   c0.3,0,0.5-0.3,0.5-0.6l0.2-2.7c0-0.1-0.1-0.3-0.1-0.3c-0.1-0.1-0.3-0.2-0.4-0.2H2.5z"/>
	<rect x="10.5" y="416.1" class="st1" width="1" height="14.2"/>
	<path class="st1" d="M11.8,417l-0.4-0.9c-6.1,0.2-7-2-7.1-2.7c-0.2-1.1,0.6-2.2,1.8-2.5c1.5-0.4,3.8,0.2,5.5,3.4v-0.1   c1.4-2.7,3.4-3.1,4.7-2.7c0.9,0.3,1.5,1.1,1.4,2c-0.1,0.7-0.9,2.4-5.7,2.6L11.8,417z M7,411.7c-0.2,0-0.4,0-0.6,0.1   c-0.7,0.2-1.2,0.8-1.1,1.4c0.2,1,1.8,2,5.7,1.9C9.7,412.6,8.2,411.7,7,411.7z M15.5,412.3c-0.9,0-2,0.6-3,2.3   c0,0.1-0.1,0.2-0.1,0.4c3.3-0.2,4.3-1.2,4.4-1.8c0.1-0.4-0.2-0.7-0.7-0.9C15.8,412.4,15.7,412.3,15.5,412.3z"/>
</g>
</svg>