<?xml version="1.0" encoding="UTF-8"?>
<!-- Generator: Adobe Illustrator 21.0.0, SVG Export Plug-In . SVG Version: 6.00 Build 0)  -->
<svg version="1.1" id="Modo_de_aislamiento" xmlns="http://www.w3.org/2000/svg" xmlns:xlink="http://www.w3.org/1999/xlink" x="0px" y="0px" width="143.1px" height="346.8px" viewBox="0 0 143.1 346.8" enable-background="new 0 0 143.1 346.8" xml:space="preserve">
<g>
	<g>
		<g>
			<polyline fill="#EBF2D7" points="10.4,51.5 24,51.5 32.4,42.7 39,59 49.6,48.5 57.1,56 70.7,39.4 79.7,30.4 79.7,69.5 10.4,69.5      10.4,51.5    "/>
			
				<polyline fill="none" stroke="#000000" stroke-width="2" stroke-linecap="round" stroke-linejoin="round" stroke-miterlimit="10" points="     10.4,51.5 24,51.5 32.4,42.7 39,59 49.6,48.5 57.1,56 70.7,39.4    "/>
			<path d="M80.3,69.6v-37c2.7-0.6,5.7-2.8,5.7-7.2c0-5.5-4.5-7.4-7.4-7.4H9.8c-3,0-7.4,2-7.4,7.4c0,4.5,3,6.6,5.7,7.2v37     c-2.7,0.6-5.7,2.8-5.7,7.2c0,5.5,4.5,7.4,7.4,7.4h32.6v3.1L26.1,98.3c-0.8,0.5-1,1.6-0.5,2.4c0.5,0.8,1.6,1,2.4,0.5l14.5-9.7v8.2     c0,0.9,0.8,1.7,1.7,1.7s1.7-0.8,1.7-1.7v-8.2l14.5,9.7c0.3,0.2,0.6,0.3,1,0.3c0.6,0,1.1-0.3,1.4-0.8c0.5-0.8,0.3-1.9-0.5-2.4     L45.9,87.3v-3.1h32.6c3,0,7.4-2,7.4-7.4C86,72.3,83,70.2,80.3,69.6z M76.8,32.7v36.6H11.6V32.7H76.8z M5.8,25.3c0-3.8,3.3-4,4-4     h68.7c0.7,0,4,0.2,4,4c0,3.8-3.3,4-4,4H9.9C9.2,29.3,5.8,29,5.8,25.3z M78.5,80.8H9.9c-0.7,0-4-0.2-4-4c0-3.8,3.3-4,4-4h68.7     c0.7,0,4,0.2,4,4C82.6,80.6,79.2,80.8,78.5,80.8z"/>
		</g>
	</g>
	<g>
		<polyline fill="#EBF2D7" points="62.4,17 80.4,35.1 100.5,15.3 115,38.3 94.1,57.1 64.9,45.4   "/>
		
			<polyline fill="#FFFFFF" stroke="#000000" stroke-width="2" stroke-linecap="round" stroke-linejoin="round" stroke-miterlimit="10" points="    64.3,17 82.3,35.1 104.7,9.3   "/>
		<g>
			<path fill="#FFFFFF" stroke="#FFFFFF" stroke-width="3" stroke-miterlimit="10" d="M138,68.5l-18-18l-3,3l-4-4     c8.5-12,7.2-28.5-3.3-39c-11.8-11.8-31-11.8-42.8,0C61.1,16.1,58,23.7,58,31.8c0,8.1,3.1,15.7,8.9,21.4c10.5,10.5,27,11.8,39,3.3     l4,4l-3,3l18,18c1.8,1.8,4.2,2.7,6.5,2.7c2.4,0,4.7-0.9,6.5-2.7c1.7-1.7,2.7-4.1,2.7-6.5C140.7,72.6,139.7,70.2,138,68.5z      M88.3,52.2c-11.2,0-20.4-9.1-20.4-20.4c0-11.2,9.1-20.4,20.4-20.4c11.2,0,20.4,9.1,20.4,20.4C108.6,43.1,99.5,52.2,88.3,52.2z"/>
			<circle fill="none" stroke="#000000" stroke-width="2" stroke-miterlimit="10" cx="88.3" cy="31.8" r="20.4"/>
			<g>
				<path d="M131.5,84.2c-2.4,0-4.7-0.9-6.5-2.7l-18-18l3-3l-4-4c-12,8.5-28.5,7.2-39-3.3C61.1,47.5,58,39.9,58,31.8      c0-8.1,3.1-15.7,8.9-21.4c11.8-11.8,31-11.8,42.8,0c10.5,10.5,11.8,27,3.3,39l4,4l3-3l18,18c1.7,1.7,2.7,4.1,2.7,6.5      c0,2.5-1,4.8-2.7,6.5C136.2,83.3,133.8,84.2,131.5,84.2z M111.4,63.5l15.8,15.8c2.4,2.4,6.2,2.4,8.5,0c1.1-1.1,1.8-2.7,1.8-4.3      c0-1.6-0.6-3.1-1.8-4.3L119.9,55l-3,3l-8.3-8.3l0.9-1.1c8.5-10.8,7.5-26.2-2.2-35.9c-10.6-10.6-27.8-10.6-38.3,0      c-5.1,5.1-7.9,11.9-7.9,19.2c0,7.2,2.8,14,7.9,19.2c9.7,9.7,25.1,10.6,35.9,2.2l1.1-0.9l6,6l1.3-1.3l2.2,2.2L111.4,63.5z"/>
				<path d="M131.5,78.5c-0.5,0-1.6-0.1-2.5-1l-4-4l2.2-2.2l4,4c0,0,0.1,0.1,0.2,0.1c0.1,0,0.2-0.1,0.2-0.1l2.2,2.2      C133,78.4,132,78.5,131.5,78.5z"/>
			</g>
		</g>
	</g>
</g>
<g>
	
		<rect x="112" y="148.2" transform="matrix(0.8428 -0.5382 0.5382 0.8428 -71.1596 91.2609)" fill="#F6F0C8" width="17.3" height="38.5"/>
	<g>
		<path d="M117.9,187.9c0.2,0.4,0.6,0.6,1,0.7c0.4,0.1,0.9,0,1.3-0.2l14.5-9.3c0.8-0.5,1-1.5,0.5-2.3v0L114.5,144    c-0.2-0.4-0.6-0.6-1-0.7c-0.4-0.1-0.9,0-1.3,0.2l-14.5,9.3c-0.8,0.5-1,1.5-0.5,2.3l1.6,2.5l-3.6,1.4c-0.4,0.2-0.8,0.2-1.2,0.1    l-9.3-1.9c-5.3-1.1-10.7-1.2-16-0.2l-8.7,1.6c-2.3,0.4-4.4,1.5-6.1,3.1l-0.2,0.2l-8.4-1.3c-0.1,0-0.3-0.1-0.4-0.1l-0.2-0.1    l-17.7-15.4c-0.3-0.3-0.8-0.4-1.2-0.4c-0.4,0-0.8,0.2-1.1,0.6s-0.4,0.8-0.4,1.2c0,0.4,0.2,0.8,0.6,1.1l18,15.6    c0.1,0.1,0.2,0.2,0.3,0.2c0.5,0.3,1.1,0.4,1.6,0.5l6.4,1l-6.2,8c-0.9,1.1-1.3,2.6-1.1,4c0.2,1.4,0.9,2.7,2.1,3.6    c1.7,1.3,3.9,1.4,5.8,0.5l15.8-8.3c0.7-0.3,1.5-0.3,2.1,0.1l34,22c0.9,0.6,1.5,1.4,1.7,2.4c0.2,1,0,2-0.6,2.9    c-1.1,1.7-3.4,2.2-5.2,1.2l-18.4-11c-0.4-0.2-0.8-0.3-1.3-0.2c-0.4,0.1-0.8,0.4-1,0.8c-0.5,0.8-0.2,1.8,0.6,2.3l16.5,9.9    c0.6,0.4,1,1,1.2,1.7c0.2,0.7,0,1.4-0.4,2c-1.3,1.9-3.8,2.5-5.8,1.4l-14.4-7.8c-0.4-0.2-0.8-0.3-1.3-0.1c-0.4,0.1-0.8,0.4-1,0.8    c-0.2,0.4-0.3,0.8-0.1,1.3c0.1,0.4,0.4,0.8,0.8,1l10.4,5.7l2.6,1.6c0.6,0.4,1,0.9,1.1,1.6c0.1,0.7,0,1.4-0.4,1.9l-0.5-0.2l0.4,0.3    c-1.1,1.8-3.4,2.4-5.2,1.4l-11.1-5.6c-0.4-0.2-0.8-0.2-1.3-0.1c-0.4,0.1-0.8,0.4-1,0.8c-0.2,0.4-0.2,0.8-0.1,1.3    c0.1,0.4,0.4,0.8,0.8,1l10,5.1l-0.8,0.5c-2,1.3-4.4,1.8-6.8,1.4l-9.2-1.4l1.1-1.5c1.7-2.5,1.3-6-1.1-7.9c-0.7-0.6-1.5-1-2.5-1.2    l-0.5-0.1l0.1-0.5c0.7-2.6-0.1-5.3-2.1-6.9c-1.1-0.9-2.4-1.4-3.9-1.4l-0.5,0l0-0.5c0-0.6,0-1.1-0.1-1.6c-0.3-1.7-1.4-3.2-2.8-4.2    c-2.9-1.9-6.9-1.1-8.9,1.7l-0.4,0.6l-0.4-0.6c-0.5-0.8-1.2-1.5-2-2c-2.5-1.5-5.7-1.2-7.9,0.9l-0.4,0.4l-8.2-10.8    c-0.2-0.3-0.5-0.5-0.8-0.6l-16-5.7c-0.9-0.3-1.8,0.1-2.1,1c-0.3,0.9,0.1,1.8,1,2.1l15.6,5.6l8.6,11.3l-2.5,3.6    c-2,2.9-1.3,6.9,1.5,8.9l0.1,0.1c1.1,0.8,2.3,1.2,3.6,1.2l0.5,0v0.5c0,2.1,1,4.1,2.8,5.4c1.5,1,3.2,1.4,4.9,1.1    c0.4-0.1,0.8-0.2,1.1-0.3l0.5-0.2l0.2,0.5c0.6,1.5,1.6,2.7,3,3.4c1.9,1,4.1,1,6,0.1l0.4-0.2l0.2,0.4c0.6,1.2,1.7,2.1,2.9,2.7    c0.7,0.3,1.5,0.5,2.3,0.5c1.8,0,3.5-0.8,4.6-2.3l0.2-0.2l10.8,1.6c0.7,0.1,1.4,0.2,2,0.2c3.5,0,6.8-1.4,9.3-3.8l0.2-0.2l0.2,0    c2.7,0.3,5.4-1,6.8-3.3c0.7-1,1.1-2.2,1.1-3.5l0-0.5l0.6,0c2.6,0,5.1-1.3,6.5-3.5c0.6-0.9,0.9-1.8,0.9-2.9l0-0.5l0.7,0    c0.1,0,0.2,0,0.3,0c2.4,0,4.6-1.2,6-3.2c1.1-1.6,1.4-3.5,1-5.4c0-0.2-0.1-0.3-0.1-0.5l-0.2-0.6l9-8.5L117.9,187.9z M35.3,205.8    c-0.5,0.6-1.1,1-1.8,1.1c-0.2,0-0.4,0-0.6,0c-0.6,0-1.3-0.2-1.8-0.6l-0.1-0.1c-1.4-1-1.7-2.9-0.7-4.3l4.1-5.9    c0.9-1.3,2.8-1.7,4.2-0.8c0.7,0.5,1.2,1.2,1.4,2c0.2,0.8,0,1.5-0.4,2.2L35.3,205.8z M43.3,211.1c-0.1,0.1-0.1,0.2-0.1,0.3    c0,0.1-0.1,0.2-0.1,0.2l-0.6,0.9c-0.5,0.7-1.2,1.2-2.1,1.3h0c-0.2,0-0.4,0.1-0.6,0.1c-0.7,0-1.3-0.2-1.8-0.6c-1.4-1-1.8-3-0.8-4.4    l0.9-1.3c0-0.1,0.1-0.1,0.1-0.2c1.3-1.9,2.8-4.2,4.1-6c0-0.1,0.1-0.1,0.1-0.1l3.5-5.1c1-1.4,2.9-1.8,4.4-0.9    c0.7,0.5,1.2,1.2,1.4,2.1c0.2,0.9,0,1.7-0.5,2.4L43.3,211.1z M52.5,214.7c0,0.1-0.1,0.1-0.1,0.2c0,0.1-0.1,0.1-0.1,0.2l-1,1.4    c-0.6,0.9-1.6,1.4-2.6,1.4c-0.5,0-1-0.1-1.5-0.4l-0.1,0c-0.8-0.4-1.3-1.2-1.5-2c-0.2-0.7-0.1-1.3,0.1-1.9l0-0.1l6.9-10.1    c0.5-0.7,1.3-1.1,2.1-1.3c0.9-0.1,1.8,0.1,2.5,0.7c1.3,1,1.6,2.9,0.6,4.3l-2,2.8c0,0.1-0.1,0.1-0.1,0.1L52.5,214.7z M62.6,215    l-3.2,4.5c-0.5,0.7-1.3,1.1-2.1,1.1c-0.3,0-0.7-0.1-1-0.2h0c-0.7-0.3-1.3-0.9-1.5-1.6c-0.2-0.5-0.1-1.1,0.1-1.6l0.1-0.1l3.5-5.2    c0.5-0.5,1-0.8,1.6-0.9c0.7-0.1,1.4,0.1,2,0.6C63.2,212.4,63.4,213.9,62.6,215z M112.6,147.2l18.9,30l-11.7,7.5l-18.9-30    L112.6,147.2z M106.5,192.7l-0.5-0.4c-0.1-0.1-0.2-0.2-0.4-0.3l-34-22c-1.6-1.1-3.7-1.2-5.4-0.3L50.4,178    c-0.7,0.4-1.6,0.3-2.2-0.2c-0.4-0.3-0.7-0.8-0.8-1.4c-0.1-0.6,0.1-1.1,0.4-1.5l7.4-9.7c1.3-1.7,3.3-2.9,5.4-3.3l8.7-1.6    c4.9-0.9,9.8-0.9,14.7,0.2l9.3,1.9c1.1,0.2,2.1,0.1,3.1-0.3l4.1-1.7l15,23.7L106.5,192.7z"/>
		<path d="M111,156.8c0.1-0.2,0.1-0.4,0.1-0.6c0-0.4-0.2-0.9-0.5-1.2c-0.1-0.1-0.1-0.1-0.2-0.2l0,0c-0.1-0.1-0.2-0.1-0.2-0.1    c-0.1-0.1-0.2-0.1-0.4-0.1c-0.1,0-0.2,0-0.3,0s-0.2,0-0.3,0c-0.1,0-0.2,0.1-0.3,0.1c-0.1,0-0.2,0.1-0.3,0.1    c-0.1,0.1-0.2,0.1-0.3,0.2c-0.3,0.3-0.5,0.7-0.5,1.2s0.2,0.9,0.5,1.2c0.1,0.2,0.3,0.3,0.6,0.4c0.6,0.2,1.3,0.1,1.8-0.4    C110.8,157.2,110.9,157,111,156.8z"/>
	</g>
</g>
<g>
	<g>
		<g>
			<path fill="none" stroke="#272425" stroke-width="3" stroke-linecap="round" stroke-linejoin="round" stroke-miterlimit="10" d="     M49.5,309.1v-21.4l0-0.2c0.3-3.1-0.1-6.2-1.3-9.3c-4-10.1-15.4-15-25.5-11c-7.6,3-12.2,10.2-12.4,17.9l0,0.4l0,0.6l-0.1,23.1"/>
			<path fill="none" stroke="#272425" stroke-width="3" stroke-linecap="round" stroke-linejoin="round" stroke-miterlimit="10" d="     M39,303c-0.6,0.3-1.1,0.6-1.7,0.8c-5.5,2.2-11.4,1.7-16.3-0.8c-11.7,3.8-20.1,14.7-20.1,27.7H59C59,317.7,50.6,306.8,39,303z"/>
			<path fill="none" stroke="#272425" stroke-width="3" stroke-linecap="round" stroke-linejoin="round" stroke-miterlimit="10" d="     M39,303c-0.6,0.3-1.1,0.6-1.7,0.8c-5.5,2.2-11.4,1.7-16.3-0.8c-11.7,3.8-20.1,14.7-20.1,27.7H59C59,317.7,50.6,306.8,39,303z"/>
			<g>
				
					<path fill="none" stroke="#272425" stroke-width="3" stroke-linecap="round" stroke-linejoin="round" stroke-miterlimit="10" d="      M45.7,296.1c-2.9-3.2-6.4-8-6.7-13.4c-7.6,10.9-18.4,14-23.8,14.8c0,0,5.1,7.7,14.8,7.7C40.8,305.2,45.7,296.4,45.7,296.1z"/>
			</g>
			<path fill="none" stroke="#272425" stroke-width="3" stroke-linecap="round" stroke-linejoin="round" stroke-miterlimit="10" d="     M33.3,295.6c0.6-1.3,2-2.2,3.5-2.2c1.5,0,2.9,0.9,3.5,2.2"/>
		</g>
		<path fill="none" stroke="#272425" stroke-width="3" stroke-linecap="round" stroke-linejoin="round" stroke-miterlimit="10" d="    M46.4,306.7c-1.9,1.5-4.1,2.8-6.5,3.7c-9.2,3.6-19.1,1.9-26.4-3.8c-7.6,5.2-12.6,14-12.6,24h9.4h39.2H59    C59,320.7,54,312,46.4,306.7z"/>
		<g>
			
				<path fill="#FFFFFF" stroke="#272425" stroke-width="3" stroke-linecap="round" stroke-linejoin="round" stroke-miterlimit="10" d="     M86.6,303.7c-0.6,0.3-1.2,0.6-1.8,0.8c-5.4,2.1-11.2,1.7-15.9-0.8c-11.4,3.8-19.6,14.5-19.6,27.1h57.1     C106.3,318.2,98,307.4,86.6,303.7z"/>
			
				<polygon fill="none" stroke="#272425" stroke-width="3" stroke-linecap="round" stroke-linejoin="round" stroke-miterlimit="10" points="     80.9,310.9 77.8,306.9 74.6,310.9 77,314 75.2,316.9 75.2,327.8 75.7,330.8 79.8,330.8 80.3,327.8 80.3,316.9 78.5,314    "/>
			<path fill="none" stroke="#272425" stroke-width="3" stroke-linecap="round" stroke-linejoin="round" stroke-miterlimit="10" d="     M95.6,279.4c-3.9-9.9-15.1-14.8-25-10.8c-9.9,3.9-14.7,15.2-10.8,25.1c3.9,9.9,15.1,14.8,25,10.8     C94.7,300.6,99.5,289.4,95.6,279.4z"/>
			<path fill="none" stroke="#272425" stroke-width="3" stroke-linecap="round" stroke-linejoin="round" stroke-miterlimit="10" d="     M80.4,294.6c0.6-1.3,1.9-2.1,3.4-2.1c1.5,0,2.8,0.9,3.4,2.1"/>
			<path fill="none" stroke="#272425" stroke-width="3" stroke-linecap="round" stroke-linejoin="round" stroke-miterlimit="10" d="     M68.2,294.6c0.6-1.3,1.9-2.1,3.4-2.1c1.5,0,2.8,0.9,3.4,2.1"/>
			<path fill="none" stroke="#272425" stroke-width="3" stroke-linecap="round" stroke-linejoin="round" stroke-miterlimit="10" d="     M70.5,268.6c-7.9,3.2-12.6,11-12.1,19.1c2.5,0.9,5.2,1.4,8.1,1.4c8.4,0,15.9-4.3,20.2-10.9c0.3,6.1,4.1,11.3,9.6,13.5     c1.1-3.9,0.9-8.2-0.7-12.3C91.6,269.5,80.4,264.7,70.5,268.6z"/>
		</g>
	</g>
	<ellipse fill="#FFFFFF" cx="114.5" cy="319.1" rx="27.7" ry="27.7"/>
	<ellipse fill="#F2BFAD" cx="118.8" cy="323.4" rx="23.4" ry="23.4"/>
	
		<polyline fill="none" stroke="#000000" stroke-width="2" stroke-linecap="round" stroke-linejoin="round" stroke-miterlimit="10" points="   127.2,309.6 114,325.7 105.3,316.9  "/>
	
		<ellipse fill="none" stroke="#000000" stroke-width="3" stroke-linecap="round" stroke-miterlimit="10" cx="115.5" cy="318.4" rx="23.4" ry="23.4"/>
</g>
</svg>