<?xml version="1.0" encoding="UTF-8"?>
<!-- Generator: Adobe Illustrator 19.2.1, SVG Export Plug-In . SVG Version: 6.00 Build 0)  -->
<svg version="1.1" id="Capa_1" xmlns="http://www.w3.org/2000/svg" xmlns:xlink="http://www.w3.org/1999/xlink" x="0px" y="0px" width="182.21px" height="187.03px" viewBox="0 0 182.21 187.03" enable-background="new 0 0 182.21 187.03" xml:space="preserve">
<path fill="#F3F3F3" d="M51.6,52.66H0V6.17C0,2.76,2.76,0,6.17,0h39.27c3.41,0,6.17,2.76,6.17,6.17V52.66z"/>
<rect x="4.46" y="13.9" fill="#FEF7F4" width="42.5" height="38.75"/>
<circle fill="#4C4C4C" cx="25.8" cy="3.93" r="0.77"/>
<path fill="#4C4C4C" d="M29.26,7.82h-6.97c-0.14,0-0.25-0.11-0.25-0.25v0c0-0.14,0.11-0.25,0.25-0.25h6.97  c0.14,0,0.25,0.11,0.25,0.25v0C29.51,7.71,29.4,7.82,29.26,7.82z"/>
<path fill="#E3E8E9" d="M51.6,122.56H0V76.07c0-3.41,2.76-6.17,6.17-6.17h39.27c3.41,0,6.17,2.76,6.17,6.17V122.56z"/>
<rect x="0.03" y="79.22" fill="#AEAEAE" width="51.6" height="43.34"/>
<g>
	<g>
		<path id="Rounded_Rectangle_12" fill="#EEEDEC" d="M9.8,144.71h31.74c2.92,0,5.29,2.37,5.29,5.29v31.74    c0,2.92-2.37,5.29-5.29,5.29H9.8c-2.92,0-5.29-2.37-5.29-5.29V150C4.51,147.07,6.88,144.71,9.8,144.71z"/>
		<rect x="4.51" y="157.05" fill="#F1736C" width="42.33" height="17.64"/>
		<circle fill="#DBE3EA" cx="25.67" cy="165.87" r="15.87"/>
		<circle id="Ellipse_4_copy" fill="#3F4850" cx="25.67" cy="165.87" r="13.23"/>
		<circle id="Ellipse_4_copy_2" fill="#515B63" cx="25.67" cy="165.87" r="8.82"/>
		<circle id="Ellipse_4_copy_3" fill="#293137" cx="25.67" cy="165.87" r="4.41"/>
		<circle id="Ellipse_4_copy_4" fill="#8C9DAC" cx="27" cy="164.55" r="1.32"/>
		<ellipse id="Ellipse_4_copy_5" fill="#BCB4D5" cx="24.35" cy="168.07" rx="0.44" ry="0.44"/>
		<path id="Rounded_Rectangle_10_copy_2" fill="#FFFFFF" fill-opacity="0.1" d="M46.84,165.87v16.03c0,2.57-2.56,5.13-5.13,5.13    H9.39c-2.1,0-4.87-2.39-4.87-4.7v-16.46"/>
		<path fill="#F1736C" d="M41.88,148.67c-0.22,0-0.42,0.05-0.61,0.14c-0.16,0.07-0.3,0.17-0.41,0.3c-0.12-0.13-0.27-0.23-0.43-0.31    c-0.18-0.08-0.38-0.13-0.59-0.13c-0.78,0-1.41,0.63-1.41,1.41c0,0.29,0.09,0.56,0.24,0.79c0.02,0.05,0.04,0.1,0.09,0.14l1.82,1.82    c0.15,0.15,0.38,0.15,0.53,0l1.74-1.74l0.04-0.04l0.05-0.05c0.01-0.01,0.02-0.03,0.03-0.05c0.19-0.24,0.32-0.54,0.32-0.88    C43.29,149.3,42.66,148.67,41.88,148.67z"/>
	</g>
	<g>
		<g>
			<path fill="#F1736C" d="M84.84,149.09c-0.79,0.38-0.42,2.46-0.4,2.71c2.18,19.92,0.45,26.21,0.45,26.21     c-2.19-3.66-6.85-17.99-7.52-18.88c-0.63-0.83-2.17-0.59-2.17-0.59c-0.45,0-0.86,0.53-1.23,1.59c-0.44,1.09-1.86,10.8-2.08,12.87     c-1.88-2.73-1.86-15.75-1.86-15.75c-0.23-1.77-2.33-1.21-2.33-1.21c-1.43,0.44-0.9,3.77-0.9,5.97c0,0-0.2,8.45,4.1,19.68     c0.61,0.81,1.32,0.71,2.07,0.56c1.77-0.34,2.22-12.26,3.24-15.26h0.05c0,0,4.62,12.86,7.59,14.62c1.11,0.66,2.01,0.32,2.07,0.3     c4.63-1.22,2.74-25.35,1.98-30.01C87.55,149.66,86.76,148.16,84.84,149.09z"/>
			<path fill="#F1736C" d="M98.03,176.01c-4.53,0.81-5.42-0.87-5.42-0.87c4.97,0.24,6.34-2.2,6.47-3.91c0.1-1.28,0.02-5.9-5.45-5.69     c-2.79,0.11-4.24,4.04-4.46,6.77c-0.33,10.55,9.17,7.01,9.17,7.01C99.91,178.95,100.58,175.56,98.03,176.01z M92.76,170.36     c0.24-0.63,0.67-1.44,1.52-1.44c0,0,1.85-0.15,1.41,1.75c-0.24,1.06-1.12,1.28-3.26,1.27C92.42,171.95,92.41,171.28,92.76,170.36     z"/>
			<path fill="#F1736C" d="M114.86,175.98c-2.21-3.25-2.33-4.63-2.7-11.6c-0.26-5.09-0.29-5.95-0.3-6.35     c-0.04-1.61-1.15-2.02-1.53-2.05c-0.83-0.08-1.41,0.09-1.77,0.77c-0.32,0.61-0.25,3.68-0.25,3.68c0,1.25,0.53,7.43,0.5,8.09     c-0.01,0.31-0.25,0.48-0.66,0.65c-1.2,0.15-3.22,0.95-5.23,2.64c-2.08,2.17-2.75,4.15-2.75,5.12c0,0-0.16,2.81,1.72,3.01     c4.16,0.44,6.78-1.36,8.61-4.32c0.04-0.06,0.21,0.41,0.26,0.46c0,0,2.07,3.53,3.19,3.83c1.92,0.52,1.92-1.57,1.92-1.57     C115.89,177.77,114.86,175.98,114.86,175.98z M103.68,176.64c0,0-0.2-0.48,1.21-2.06c0.74-0.83,2.97-1.89,2.97-1.89     C107.86,172.85,107.1,176.64,103.68,176.64z"/>
		</g>
		<g>
			<path fill="#4C4C4C" d="M137.28,173.3c-0.79-3.16-1.41-5.91-1.85-7.01c-0.21-0.79-2.32-1.39-3.5,0.15     c-1.24,2.18-2.04,4.51-2.04,4.51c-0.15-3.95,1.06-13.74,0.64-14.15c-0.23-0.83-1.96-1.43-2.79,0     c-1.84,9.41-0.53,21.85-0.53,21.85s0.04,1.38,1.32,1.38c2.9,0,1.81-4.43,4.91-7.97c0,0,0.85,2.84,1.26,4.22     c0.41,1.38,1.66,3.75,2.75,3.96c2.37,0,2.26-2.22,1.51-2.99C138.53,176.46,137.66,174.84,137.28,173.3z"/>
			<path fill="#4C4C4C" d="M124.85,173.27c-1.09-0.64-7.12-2.07-7.16-2.9c-0.08-0.71-0.11-1.13,4.22-1.85     c1.73-1.17,0.9-2.94-0.85-2.94c-1.76,0-3.27,0.54-4.35,1.05c-2.16,0.93-2.75,2.02-2.75,3.77c0,0-0.05,3.41,5.69,4.44     c4.4,0.79,4.11,1.66,3.12,1.82c-2.01,0.33-4.85-0.84-5.16-0.71c-1.28,0.32-1.72,1.6-1.05,2.47c0.58,0.66,1.5,1.06,4.34,1.55     c0.77,0.13,1.11,0,2.03-0.15C127.3,179.48,127.56,174.85,124.85,173.27z"/>
			<path fill="#4C4C4C" d="M144.51,167.12c-3.09-0.41-6.59,3.13-5.16,9.85c1.05,3.9,4.03,3.48,4.03,3.48c0.8,0,5.48-0.41,5.48-7.24     c0-0.74-0.09-1.34-0.28-1.89C147.79,167.58,144.51,167.12,144.51,167.12z M145.8,174.28c-0.44,2-1.67,2.92-2.38,2.92     c-0.51,0-1-0.7-1.09-2.09c0,0-0.01-4.34,1.62-4.6C144.78,170.49,146.17,172.62,145.8,174.28z"/>
			<path fill="#4C4C4C" d="M180.45,173.27c-1.09-0.64-7.12-2.07-7.16-2.9c-0.08-0.71-0.11-1.13,4.22-1.85     c1.73-1.17,0.9-2.94-0.85-2.94c-1.76,0-3.27,0.54-4.35,1.05c-0.55,0.24-1,0.5-1.36,0.77c-1.04,0.27-2.45,0.6-3.31,0.6H167v-1.37     c0-2.42,0.36-5.49,1.04-9.72c-0.36-0.79-0.9-0.91-1.67-0.91h-0.2c-0.71,0-1.29,0.03-1.74,0.61c-1.15,4.76-1.08,9.61-0.89,12.04     c0,0-1.45,0.02-2.22,0.13c-1.36,0.18-2.74,0.24-3.61,0.27c-1.25-1.57-2.98-1.83-2.98-1.83c-3.09-0.41-6.59,3.12-5.16,9.84     c1.05,3.9,4.03,3.48,4.03,3.48c0.8,0,5.48-0.41,5.48-7.25c0-0.4-0.03-0.76-0.09-1.09c0.39-0.08,0.8-0.19,1.14-0.19     c1.87,0,2.96,0.17,3.28,0.51c0.24,0,0.36,1.16,0.36,3.48c0,2.59,0.46,4.08,1.38,4.45c0.63-0.38,1.89-0.26,1.89-0.26     c0.24-0.09,0.62-2.09,0.31-4.91l-0.31-3.23c0,0,1.45-0.2,2.87-0.4c0.53,1.08,1.89,2.57,5.34,3.19c4.4,0.79,4.11,1.66,3.12,1.82     c-2.01,0.33-4.85-0.84-5.16-0.71c-1.28,0.32-1.72,1.6-1.05,2.47c0.58,0.66,1.5,1.06,4.34,1.55c0.77,0.13,1.11,0,2.03-0.15     C182.9,179.48,183.16,174.85,180.45,173.27z M156.01,174.36c-0.44,2-1.67,2.92-2.38,2.92c-0.51,0-1-0.7-1.09-2.09     c0,0-0.01-4.34,1.62-4.6C154.98,170.57,156.38,172.7,156.01,174.36z"/>
		</g>
	</g>
</g>
<g>
	<path fill="#4C4C4C" d="M140.86,108.33c-0.67,0-1.28-0.12-1.83-0.37c-0.56-0.25-1.04-0.64-1.39-1.14h-0.11   c0.07,0.6,0.11,1.17,0.11,1.71v4.23h-1.56V97.87h1.26l0.22,1.41h0.07c0.4-0.56,0.87-0.97,1.4-1.22c0.53-0.25,1.14-0.37,1.83-0.37   c1.36,0,2.41,0.47,3.15,1.4c0.74,0.93,1.11,2.24,1.11,3.92c0,1.69-0.38,3-1.13,3.93C143.25,107.86,142.2,108.33,140.86,108.33z    M140.64,99c-1.05,0-1.81,0.29-2.28,0.87c-0.47,0.58-0.71,1.51-0.72,2.77V103c0,1.44,0.24,2.48,0.72,3.1   c0.48,0.62,1.25,0.93,2.32,0.93c0.89,0,1.58-0.36,2.09-1.08c0.5-0.72,0.75-1.71,0.75-2.97c0-1.28-0.25-2.26-0.75-2.95   C142.26,99.34,141.55,99,140.64,99z M148.73,108.14h-1.56V93.55h1.56V108.14z M157.68,108.14l-0.31-1.46h-0.07   c-0.51,0.64-1.02,1.08-1.53,1.31c-0.51,0.23-1.15,0.34-1.91,0.34c-1.02,0-1.82-0.26-2.4-0.79c-0.58-0.52-0.87-1.27-0.87-2.24   c0-2.07,1.66-3.16,4.98-3.26l1.74-0.06v-0.64c0-0.81-0.17-1.4-0.52-1.79c-0.35-0.38-0.9-0.58-1.67-0.58   c-0.86,0-1.83,0.26-2.91,0.79l-0.48-1.19c0.51-0.27,1.06-0.49,1.67-0.65c0.6-0.16,1.21-0.23,1.81-0.23c1.22,0,2.13,0.27,2.72,0.82   c0.59,0.54,0.89,1.42,0.89,2.62v7.01H157.68L157.68,108.14z M154.17,107.05c0.97,0,1.73-0.27,2.28-0.8   c0.55-0.53,0.83-1.28,0.83-2.23v-0.93l-1.56,0.07c-1.24,0.04-2.13,0.24-2.68,0.58s-0.82,0.87-0.82,1.59c0,0.56,0.17,0.99,0.51,1.28   C153.08,106.9,153.55,107.05,154.17,107.05L154.17,107.05z M159.74,97.87h1.67l2.25,5.86c0.49,1.34,0.8,2.3,0.92,2.9h0.08   c0.08-0.32,0.25-0.87,0.51-1.64c0.26-0.77,1.11-3.15,2.54-7.12h1.67l-4.42,11.7c-0.44,1.16-0.95,1.98-1.53,2.46   c-0.58,0.48-1.3,0.73-2.15,0.73c-0.48,0-0.94-0.05-1.41-0.16v-1.25c0.34,0.07,0.73,0.11,1.15,0.11c1.07,0,1.83-0.6,2.29-1.8   l0.57-1.46L159.74,97.87L159.74,97.87z"/>
	<g>
		<path fill="#4C4C4C" d="M112.03,98.82c0.49,0.41,1.53,1.27,1.53,2.9c0,1.59-0.9,2.34-1.8,3.05c-0.28,0.28-0.6,0.58-0.6,1.06    c0,0.47,0.32,0.73,0.56,0.92l0.77,0.6c0.95,0.79,1.8,1.53,1.8,3.01c0,2.02-1.96,4.06-5.65,4.06c-3.12,0-4.62-1.48-4.62-3.07    c0-0.77,0.38-1.87,1.65-2.62c1.33-0.82,3.14-0.92,4.11-0.99c-0.3-0.39-0.64-0.79-0.64-1.46c0-0.37,0.11-0.58,0.21-0.84    c-0.24,0.02-0.47,0.04-0.69,0.04c-2.28,0-3.57-1.7-3.57-3.37c0-0.99,0.45-2.09,1.37-2.88c1.23-1.01,2.69-1.18,3.85-1.18h4.43    l-1.37,0.77C113.37,98.82,112.03,98.82,112.03,98.82z M110.51,108.37c-0.17-0.02-0.28-0.02-0.49-0.02c-0.19,0-1.36,0.04-2.26,0.34    c-0.47,0.17-1.85,0.69-1.85,2.21c0,1.53,1.48,2.62,3.78,2.62c2.06,0,3.16-0.99,3.16-2.32    C112.85,110.1,112.14,109.53,110.51,108.37z M111.13,104.28c0.49-0.49,0.54-1.18,0.54-1.57c0-1.55-0.92-3.95-2.71-3.95    c-0.56,0-1.16,0.28-1.5,0.71c-0.37,0.45-0.47,1.03-0.47,1.59c0,1.44,0.84,3.82,2.69,3.82    C110.21,104.87,110.73,104.66,111.13,104.28z M98.5,108.02c-3.41,0-5.24-2.66-5.24-5.06c0-2.81,2.3-5.21,5.56-5.21    c3.15,0,5.13,2.47,5.13,5.06C103.95,105.34,102,108.02,98.5,108.02z M101.19,106.28c0.52-0.69,0.64-1.55,0.64-2.38    c0-1.89-0.9-5.49-3.56-5.49c-0.71,0-1.42,0.28-1.93,0.73c-0.84,0.75-0.99,1.69-0.99,2.62c0,2.12,1.05,5.62,3.65,5.62    C99.83,107.38,100.69,106.97,101.19,106.28z M86.87,108.02c-3.41,0-5.24-2.66-5.24-5.06c0-2.81,2.3-5.21,5.56-5.21    c3.15,0,5.13,2.47,5.13,5.06C92.32,105.34,90.37,108.02,86.87,108.02z M89.56,106.28c0.52-0.69,0.64-1.55,0.64-2.38    c0-1.89-0.9-5.49-3.56-5.49c-0.71,0.01-1.39,0.27-1.93,0.73c-0.84,0.75-0.99,1.69-0.99,2.62c0,2.12,1.05,5.62,3.65,5.62    C88.2,107.38,89.06,106.97,89.56,106.28z M80,107.68l-3.08,0.71c-1.25,0.2-2.37,0.37-3.56,0.37c-5.96,0-8.22-4.38-8.22-7.81    c0-4.18,3.21-8.07,8.72-8.07c1.17,0,2.29,0.17,3.3,0.45c1.62,0.45,2.37,1.01,2.85,1.34l-1.79,1.7l-0.75,0.17l0.54-0.86    c-0.73-0.71-2.07-2.03-4.62-2.03c-3.41,0-5.98,2.59-5.98,6.36c0,4.06,2.93,7.87,7.64,7.87c1.38,0,2.09-0.28,2.74-0.54v-3.47    l-3.26,0.17l1.72-0.93h4.57l-0.56,0.54c-0.15,0.13-0.17,0.17-0.22,0.34c-0.02,0.2-0.04,0.82-0.04,1.04L80,107.68L80,107.68z"/>
		<path fill="#4C4C4C" d="M118.85,107.06c-0.71-0.06-0.86-0.19-0.86-1.04V93.82l0.01-0.14c0.09-0.75,0.3-0.88,0.97-1.27h-3.09    l-1.62,0.78h1.65v0.01l0-0.01v13.32c0,0.43-0.08,0.5-0.58,1.14h3.82l0.8-0.47C119.59,107.13,119.22,107.11,118.85,107.06z     M127.63,107.26c-0.23,0.13-0.47,0.28-0.71,0.39c-0.71,0.32-1.44,0.41-2.08,0.41c-0.68,0-1.76-0.04-2.85-0.84    c-1.52-1.07-2.18-2.91-2.18-4.52c0-3.32,2.7-4.95,4.91-4.95c0.77,0,1.56,0.19,2.21,0.6c1.07,0.71,1.35,1.63,1.5,2.12l-5.03,2.04    l-1.65,0.13c0.53,2.72,2.38,4.3,4.41,4.3c1.09,0,1.89-0.38,2.61-0.75L127.63,107.26L127.63,107.26z M125.62,100.88    c0.41-0.15,0.62-0.28,0.62-0.58c0-0.86-0.96-1.84-2.12-1.84c-0.86,0-2.46,0.66-2.46,2.98c0,0.37,0.04,0.75,0.07,1.14    C121.72,102.57,125.62,100.88,125.62,100.88z M129.7,97.9v1.41h-0.17V97.9h-0.47v-0.15h1.11v0.15    C130.17,97.9,129.7,97.9,129.7,97.9z M131.63,99.31v-1.43h-0.01l-0.44,1.43h-0.14l-0.44-1.43h-0.01v1.43h-0.16v-1.56h0.27    l0.4,1.26h0l0.39-1.26h0.27v1.56C131.78,99.31,131.63,99.31,131.63,99.31z"/>
	</g>
</g>
<rect x="2.64" y="81.85" fill="#FEF7F4" width="46.33" height="40.71"/>
<g>
	<g>
		<defs>
			<path id="SVGID_1_" d="M31.93,98.29l-5.84-3.37l-11.26-6.5c-0.63-0.36-1.25-0.14-1.25,0.61v26.49c0,0.57,0.45,0.81,0.99,0.5     l11.52-6.65l5.84-3.37l5.61-3.24c0.66-0.38,0.59-0.9,0.04-1.2C37.03,101.26,31.93,98.29,31.93,98.29z"/>
		</defs>
		<clipPath id="SVGID_2_">
			<use xlink:href="#SVGID_1_" overflow="visible"/>
		</clipPath>
		
			<linearGradient id="SVGID_3_" gradientUnits="userSpaceOnUse" x1="20.816" y1="100.1963" x2="20.816" y2="71.5127" gradientTransform="matrix(1 0 0 -1 0 188)">
			<stop offset="0" style="stop-color:#0D76AB"/>
			<stop offset="0.297" style="stop-color:#3E8EAF"/>
			<stop offset="0.771" style="stop-color:#64B1AF"/>
			<stop offset="1" style="stop-color:#71BDAC"/>
		</linearGradient>
		<path clip-path="url(#SVGID_2_)" fill="url(#SVGID_3_)" d="M13.58,87.8v28.68l14.46-14.34L13.58,87.8z"/>
	</g>
	<g>
		<defs>
			<path id="SVGID_4_" d="M31.93,98.29l-5.84-3.37l-11.26-6.5c-0.63-0.36-1.25-0.14-1.25,0.61v26.49c0,0.57,0.45,0.81,0.99,0.5     l11.52-6.65l5.84-3.37l5.61-3.24c0.66-0.38,0.59-0.9,0.04-1.2C37.03,101.26,31.93,98.29,31.93,98.29z"/>
		</defs>
		<clipPath id="SVGID_5_">
			<use xlink:href="#SVGID_4_" overflow="visible"/>
		</clipPath>
		
			<linearGradient id="SVGID_6_" gradientUnits="userSpaceOnUse" x1="13.5843" y1="93.0772" x2="31.9327" y2="93.0772" gradientTransform="matrix(1 0 0 -1 0 188)">
			<stop offset="0" style="stop-color:#44B1A0"/>
			<stop offset="1" style="stop-color:#D6E291"/>
		</linearGradient>
		<path clip-path="url(#SVGID_5_)" fill="url(#SVGID_6_)" d="M31.93,98.29l-5.84-3.37L13.58,87.7v0.1l14.46,14.34L31.93,98.29z"/>
	</g>
	<g>
		<defs>
			<path id="SVGID_7_" d="M31.93,98.29l-5.84-3.37l-11.26-6.5c-0.63-0.36-1.25-0.14-1.25,0.61v26.49c0,0.57,0.45,0.81,0.99,0.5     l11.52-6.65l5.84-3.37l5.61-3.24c0.66-0.38,0.59-0.9,0.04-1.2C37.03,101.26,31.93,98.29,31.93,98.29z"/>
		</defs>
		<clipPath id="SVGID_8_">
			<use xlink:href="#SVGID_7_" overflow="visible"/>
		</clipPath>
		
			<linearGradient id="SVGID_9_" gradientUnits="userSpaceOnUse" x1="22.7585" y1="85.8541" x2="22.7585" y2="71.4087" gradientTransform="matrix(1 0 0 -1 0 188)">
			<stop offset="0" style="stop-color:#E23834"/>
			<stop offset="0.163" style="stop-color:#D23949"/>
			<stop offset="0.573" style="stop-color:#A23A72"/>
			<stop offset="0.861" style="stop-color:#853B89"/>
			<stop offset="1" style="stop-color:#7A3B8F"/>
		</linearGradient>
		<path clip-path="url(#SVGID_8_)" fill="url(#SVGID_9_)" d="M13.58,116.49v0.1l12.51-7.22l5.84-3.37l-3.89-3.85L13.58,116.49z"/>
	</g>
	<g>
		<defs>
			<path id="SVGID_10_" d="M31.93,98.29l-5.84-3.37l-11.26-6.5c-0.63-0.36-1.25-0.14-1.25,0.61v26.49c0,0.57,0.45,0.81,0.99,0.5     l11.52-6.65l5.84-3.37l5.61-3.24c0.66-0.38,0.59-0.9,0.04-1.2C37.03,101.26,31.93,98.29,31.93,98.29z"/>
		</defs>
		<clipPath id="SVGID_11_">
			<use xlink:href="#SVGID_10_" overflow="visible"/>
		</clipPath>
		
			<linearGradient id="SVGID_12_" gradientUnits="userSpaceOnUse" x1="33.3266" y1="89.7065" x2="33.3266" y2="82.0025" gradientTransform="matrix(1 0 0 -1 0 188)">
			<stop offset="0" style="stop-color:#EA7D6F"/>
			<stop offset="0.153" style="stop-color:#EC8970"/>
			<stop offset="0.724" style="stop-color:#F4B16F"/>
			<stop offset="1" style="stop-color:#F7C06D"/>
		</linearGradient>
		<path clip-path="url(#SVGID_11_)" fill="url(#SVGID_12_)" d="M31.93,98.29l-3.89,3.85l3.89,3.85l6.67-3.85L31.93,98.29z"/>
	</g>
</g>
<path fill="#AEAEAE" d="M38.74,76.19H12.86c-0.91,0-1.66-0.75-1.66-1.66l0,0c0-0.91,0.75-1.66,1.66-1.66h25.88  c0.91,0,1.66,0.75,1.66,1.66l0,0C40.4,75.44,39.65,76.19,38.74,76.19z"/>
<g>
	<path fill="#4C4C4C" d="M69.74,35.57l-1.35,4.43h-2.94l5.01-15.63h3.64l5.08,15.63h-3.06l-1.42-4.43H69.74L69.74,35.57z    M74.21,33.41l-1.23-3.85c-0.3-0.95-0.56-2.02-0.79-2.92h-0.05c-0.23,0.9-0.46,1.99-0.74,2.92l-1.21,3.85H74.21L74.21,33.41z    M80.77,32.46c0-1.48-0.05-2.69-0.09-3.76h2.5l0.14,1.74h0.05c0.84-1.28,2.16-1.99,3.87-1.99c2.6,0,4.75,2.23,4.75,5.75   c0,4.08-2.57,6.05-5.15,6.05c-1.41,0-2.6-0.6-3.18-1.51h-0.05v5.84h-2.85L80.77,32.46L80.77,32.46z M83.63,35.26   c0,0.28,0.02,0.53,0.09,0.79c0.27,1.16,1.31,1.99,2.5,1.99c1.81,0,2.88-1.51,2.88-3.73c0-1.99-0.97-3.62-2.81-3.62   c-1.18,0-2.27,0.86-2.55,2.11c-0.07,0.23-0.11,0.48-0.12,0.72L83.63,35.26L83.63,35.26z M93.87,32.46c0-1.48-0.05-2.69-0.09-3.76   h2.5l0.14,1.74h0.05c0.84-1.28,2.16-1.99,3.87-1.99c2.6,0,4.75,2.23,4.75,5.75c0,4.08-2.57,6.05-5.15,6.05   c-1.41,0-2.6-0.6-3.18-1.51h-0.05v5.84h-2.85L93.87,32.46L93.87,32.46z M96.72,35.26c0,0.28,0.02,0.53,0.09,0.79   c0.27,1.16,1.31,1.99,2.5,1.99c1.81,0,2.88-1.51,2.88-3.73c0-1.99-0.97-3.62-2.81-3.62c-1.18,0-2.27,0.86-2.55,2.11   c-0.07,0.23-0.11,0.48-0.12,0.72L96.72,35.26L96.72,35.26z M111.35,36.89c0.93,0.53,2.32,1,3.78,1c1.83,0,2.85-0.86,2.85-2.13   c0-1.18-0.79-1.88-2.78-2.6c-2.57-0.93-4.22-2.3-4.22-4.55c0-2.55,2.13-4.5,5.52-4.5c1.69,0,2.95,0.37,3.76,0.79l-0.7,2.3   c-0.56-0.3-1.65-0.74-3.11-0.74c-1.81,0-2.6,0.97-2.6,1.88c0,1.21,0.9,1.76,2.99,2.57c2.71,1.02,4.03,2.39,4.03,4.64   c0,2.5-1.9,4.68-5.94,4.68c-1.65,0-3.36-0.46-4.22-0.97L111.35,36.89L111.35,36.89z M126.15,25.48v3.22h2.71v2.13h-2.71v4.99   c0,1.37,0.37,2.09,1.46,2.09c0.49,0,0.86-0.07,1.11-0.14l0.05,2.18c-0.42,0.16-1.16,0.28-2.06,0.28c-1.04,0-1.92-0.35-2.46-0.93   c-0.6-0.65-0.88-1.67-0.88-3.15v-5.31h-1.62V28.7h1.62v-2.55L126.15,25.48L126.15,25.48z M141.29,34.24c0,4.15-2.92,6.01-5.8,6.01   c-3.2,0-5.66-2.2-5.66-5.82c0-3.71,2.43-5.98,5.84-5.98C139.04,28.45,141.29,30.81,141.29,34.24z M132.78,34.36   c0,2.18,1.07,3.83,2.81,3.83c1.62,0,2.76-1.6,2.76-3.87c0-1.76-0.79-3.78-2.74-3.78C133.59,30.53,132.78,32.48,132.78,34.36z    M143.17,32.34c0-1.53-0.02-2.62-0.09-3.64h2.48l0.09,2.16h0.09c0.56-1.6,1.88-2.41,3.08-2.41c0.28,0,0.44,0.02,0.67,0.07v2.69   c-0.27-0.06-0.55-0.09-0.84-0.09c-1.37,0-2.29,0.88-2.55,2.16c-0.06,0.29-0.09,0.58-0.09,0.88v5.84h-2.85V32.34z M152.97,35.15   c0.07,2.04,1.67,2.92,3.48,2.92c1.32,0,2.27-0.19,3.13-0.51l0.42,1.97c-0.97,0.39-2.32,0.69-3.94,0.69c-3.66,0-5.82-2.25-5.82-5.7   c0-3.13,1.9-6.07,5.52-6.07c3.66,0,4.87,3.01,4.87,5.5c0,0.4-0.03,0.81-0.09,1.21H152.97L152.97,35.15z M157.93,33.15   c0.02-1.04-0.44-2.76-2.34-2.76c-1.76,0-2.5,1.6-2.62,2.76H157.93z"/>
</g>
<g>
	<g>
		<path fill="#F9AC97" d="M31.82,32.27c0-1.89,1.08-3.52,2.65-4.32c0.17-0.09,0.24-0.29,0.13-0.45c-0.8-1.16-2.24-2.38-4.72-2.38    c-0.64,0-1.25,0.11-1.82,0.31v0c0,0-1.64,0.6-2.52,0.6c-1.03,0-2.69-0.66-2.78-0.69c-0.49-0.15-1.02-0.22-1.56-0.22    c-4.75,0-5.67,4.46-5.67,4.46c-1.78,7.98,3.9,13.43,3.9,13.43l0,0c0.51,0.52,1.22,0.85,2.01,0.85c0.5,0,0.97-0.14,1.38-0.38    c0,0,0.95-0.56,2.71-0.56s2.71,0.56,2.71,0.56c0.41,0.23,0.88,0.38,1.38,0.38c0.79,0,1.5-0.33,2.01-0.85l0,0    c0,0,2.24-2.17,3.47-5.76c0.07-0.2-0.04-0.42-0.24-0.5C33.09,36.03,31.82,34.31,31.82,32.27z"/>
	</g>
	<path fill="#F9AC97" d="M29.03,19.95c-3.61,0.76-3.65,3.75-3.54,4.83c0.02,0.21,0.24,0.36,0.45,0.32c3.61-0.76,3.65-3.75,3.54-4.83   C29.46,20.06,29.24,19.91,29.03,19.95z"/>
</g>
</svg>