<svg xmlns="http://www.w3.org/2000/svg" width="20.059" height="276.222" viewBox="0 0 20.059 276.222"><path fill="#F76C6F" d="M17.911 3.292a.494.494 0 0 0-.178-.034H14v-.162C14 1.389 12.726 0 11.16 0H8.695c-1.566 0-2.84 1.389-2.84 3.096v.162H2.122a.49.49 0 0 0-.178.034C.739 3.762-.01 4.702-.01 5.744v6.474c0 .271.219.489.489.489h.814v4.072c0 .271.219.489.488.489h16.291a.488.488 0 0 0 .489-.489v-4.072h.814c.27 0 .488-.219.488-.489V5.744c.002-1.042-.747-1.982-1.952-2.452zM6.833 3.096c0-1.019.712-2.118 1.862-2.118h2.465c1.15 0 1.863 1.1 1.863 2.118v.162h-6.19v-.162zM.967 5.744c0-.721.656-1.254 1.251-1.509h15.419c.595.256 1.25.788 1.25 1.509v5.985h-6.19v-1.466a.488.488 0 0 0-.488-.489H7.647a.488.488 0 0 0-.489.489v1.466H.967V5.744zm7.168 5.008h3.584v1.629H8.135v-1.629zm-5.864 5.539v-3.584h4.887v.163c0 .27.219.488.489.488h4.562c.27 0 .488-.219.488-.488v-.163h4.888v3.584H2.271z"/><g fill="#F76C6F"><path d="M19.333 41.75H.521a.486.486 0 0 0-.486.486V55.21c0 .269.218.486.486.486h3.244a.486.486 0 0 0 .486-.486v-.324c0-.398.303-.811.811-.811.501 0 .811.421.811.811v.324c0 .269.218.486.487.486h7.135a.486.486 0 0 0 .486-.486v-.324c0-.516.296-.811.811-.811s.811.295.811.811v.324c0 .269.218.486.486.486h3.243a.487.487 0 0 0 .487-.486V42.236a.485.485 0 0 0-.486-.486zm-.486 12.974H16.57c-.071-.963-.782-1.622-1.778-1.622s-1.706.659-1.778 1.622H6.838c-.079-.809-.743-1.622-1.775-1.622s-1.697.813-1.776 1.622H1.008V42.723h17.838v12.001z"/><path d="M10.576 49.534h6.487v.973h-6.487zm0-1.298h6.487v.974h-6.487zm0-1.297h6.487v.973h-6.487zm0-1.946h3.567v.974h-3.567zM8.63 44.75H2.711v5.919H8.63V44.75zm-.973 4.946H3.684v-3.973h3.973v3.973z"/></g><path fill="#F76C6F" d="M17.533 81.805H2.322c-1.323 0-2.247.924-2.247 2.247v8.988c0 1.28.94 2.247 2.187 2.247h15.271a2.25 2.25 0 0 0 2.247-2.247v-8.988c0-1.323-.925-2.247-2.247-2.247zm0 1.037c.126 0 .241.018.35.044l-7.622 6.045-8.253-6.055c.099-.021.202-.034.314-.034h15.211zm1.21 10.198c0 .679-.532 1.21-1.21 1.21H2.262c-.666 0-1.149-.51-1.149-1.21v-8.988c0-.181.028-.344.08-.488l8.774 6.438a.518.518 0 0 0 .629-.011l8.074-6.403c.046.14.074.294.074.466v8.986zm1.104 30.288a.562.562 0 0 0-.532-.38h-6.394l-2.854-6.425a.565.565 0 0 0-1.046.041l-2.251 6.384H.54a.562.562 0 1 0-.352 1.002l5.185 4.169-3.096 7.186a.562.562 0 0 0 .828.691l6.447-4.298 6.446 4.298a.563.563 0 0 0 .844-.656l-2.543-7.197 5.362-4.187c.19-.148.264-.4.186-.628zm-6.56 4.176a.566.566 0 0 0-.185.633l2.114 5.984-5.352-3.568a.56.56 0 0 0-.624 0l-5.178 3.451 2.514-5.832a.566.566 0 0 0-.164-.662l-4.272-3.435h5.029a.564.564 0 0 0 .531-.376l1.912-5.424 2.43 5.465c.09.204.292.335.515.335h5.122l-4.392 3.429z"/><g fill="#F76C6F"><path d="M19.257 166.721h-2.266a7.745 7.745 0 0 0-.581-1.415l1.603-1.603a.481.481 0 0 0 0-.683l-2.295-2.294a.484.484 0 0 0-.683 0l-1.605 1.605a9.837 9.837 0 0 0-1.411-.583v-2.267a.482.482 0 0 0-.482-.482H8.319a.482.482 0 0 0-.482.482v2.268c-.403.128-.945.34-1.412.581l-1.605-1.604a.484.484 0 0 0-.683 0l-2.295 2.294a.484.484 0 0 0 0 .683l1.606 1.607c-.232.453-.445.999-.578 1.41H.597a.483.483 0 0 0-.482.482v2.574c0 .267.217.483.482.483h2.222c.138.756.366 1.499.632 2.051l-1.609 1.61a.481.481 0 0 0 0 .683l2.295 2.294a.497.497 0 0 0 .683 0l1.61-1.611c.355.171.763.313 1.106.435.104.036.209.073.301.107v2.313c0 .267.216.482.482.482h3.218a.482.482 0 0 0 .482-.482v-2.313c.093-.034.197-.071.302-.107.343-.121.749-.264 1.105-.434l1.61 1.61a.484.484 0 0 0 .683 0l2.294-2.294a.482.482 0 0 0 0-.683l-1.596-1.597c.267-.461.484-.963.635-2.064h2.205a.482.482 0 0 0 .482-.483v-2.574a.481.481 0 0 0-.482-.481zm-.482 2.574h-2.15a.482.482 0 0 0-.48.432c-.154 1.454-.38 1.821-.721 2.38l-.025.041a.484.484 0 0 0 .07.593l1.521 1.522-1.612 1.612-1.522-1.521a.484.484 0 0 0-.593-.071c-.325.199-.845.383-1.262.528-.302.106-.542.19-.695.275a.481.481 0 0 0-.252.423v2.151H8.801v-2.151a.48.48 0 0 0-.251-.423c-.154-.085-.393-.169-.694-.274-.417-.146-.937-.33-1.264-.53a.487.487 0 0 0-.594.071l-1.521 1.522-1.612-1.612 1.521-1.522a.481.481 0 0 0 .071-.593c-.323-.528-.624-1.506-.748-2.434a.482.482 0 0 0-.479-.419H1.08v-1.608h2.15a.482.482 0 0 0 .469-.369c.085-.348.42-1.286.758-1.84a.484.484 0 0 0-.07-.593l-1.522-1.522 1.613-1.612L6 163.271a.483.483 0 0 0 .593.071c.546-.334 1.462-.675 1.829-.755a.482.482 0 0 0 .38-.471v-2.152h2.252v2.152c0 .23.164.429.391.474.302.058 1.255.407 1.819.752a.484.484 0 0 0 .592-.071l1.522-1.521 1.612 1.612-1.521 1.521a.482.482 0 0 0-.07.593 6.68 6.68 0 0 1 .757 1.842.483.483 0 0 0 .469.368h2.151v1.609z"/><path d="M9.927 164.791c-2.217 0-4.021 1.804-4.021 4.021s1.804 4.021 4.021 4.021c2.218 0 4.022-1.804 4.022-4.021s-1.804-4.021-4.022-4.021zm0 7.077c-1.685 0-3.056-1.37-3.056-3.056s1.371-3.056 3.056-3.056c1.686 0 3.057 1.37 3.057 3.056s-1.371 3.056-3.057 3.056z"/></g><g fill="#F76C6F"><path d="M16.44 207.641H3.415a.466.466 0 0 0-.465.466v17.987a.467.467 0 0 0 .726.387l6.124-4.13 6.39 4.135a.468.468 0 0 0 .475.019.469.469 0 0 0 .243-.41v-17.987a.47.47 0 0 0-.468-.467zm-.465 17.599l-5.93-3.838a.463.463 0 0 0-.513.005l-5.653 3.812V208.57h12.096v16.67z"/><path d="M7.251 216.013l-.571 2.856a.463.463 0 0 0 .722.473l2.388-1.673 2.348 1.671a.46.46 0 0 0 .523.011.467.467 0 0 0 .203-.482l-.571-2.856 1.995-1.994a.464.464 0 1 0-.329-.795h-2.796l-.944-2.174a.465.465 0 0 0-.423-.281.488.488 0 0 0-.428.274l-.982 2.181H5.585a.465.465 0 0 0-.329.795l1.995 1.994zm1.436-1.859a.464.464 0 0 0 .424-.274l.674-1.495.646 1.49c.074.17.241.279.426.279h1.979l-1.376 1.377a.462.462 0 0 0-.127.42l.39 1.951-1.66-1.181a.466.466 0 0 0-.536-.003l-1.706 1.196.393-1.964a.462.462 0 0 0-.127-.42l-1.377-1.377h1.977z"/></g><g fill="#898989"><path d="M13.387 257.779a.755.755 0 0 0-.581 1.392 7.47 7.47 0 0 1 4.606 6.911c0 4.127-3.357 7.484-7.485 7.484-4.127 0-7.485-3.357-7.485-7.484a7.474 7.474 0 0 1 4.572-6.897.753.753 0 1 0-.588-1.388 8.979 8.979 0 0 0-5.492 8.286c0 4.958 4.034 8.992 8.993 8.992 4.958 0 8.993-4.034 8.993-8.992a8.974 8.974 0 0 0-5.533-8.304z"/><path d="M9.927 264.936a.754.754 0 0 0 .754-.754v-8.239a.754.754 0 1 0-1.508 0v8.239c0 .416.338.754.754.754z"/></g></svg>