<?xml version="1.0" encoding="UTF-8"?>
<!-- Generator: Adobe Illustrator 19.2.1, SVG Export Plug-In . SVG Version: 6.00 Build 0)  -->
<svg version="1.1" id="Capa_1" xmlns="http://www.w3.org/2000/svg" xmlns:xlink="http://www.w3.org/1999/xlink" x="0px" y="0px" width="105.49px" height="715.58px" viewBox="0 0 105.49 715.58" enable-background="new 0 0 105.49 715.58" xml:space="preserve">
<g>
	<rect x="18.08" y="5.58" fill="#F6F0C8" width="50" height="26.9"/>
	<g>
		
			<line fill="none" stroke="#000000" stroke-width="2" stroke-linecap="round" stroke-linejoin="round" stroke-miterlimit="10" x1="26.08" y1="53.44" x2="62.08" y2="53.44"/>
		
			<line fill="none" stroke="#000000" stroke-width="2" stroke-linecap="round" stroke-linejoin="round" stroke-miterlimit="10" x1="43.08" y1="47.43" x2="43.08" y2="53.44"/>
		<line fill="none" stroke="#000000" stroke-width="2" stroke-miterlimit="10" x1="14.08" y1="37.42" x2="52.08" y2="37.42"/>
		<path fill="none" stroke="#000000" stroke-width="2" stroke-linecap="round" stroke-linejoin="round" stroke-miterlimit="10" d="    M72.08,43.43c0,2.2-1.8,4.01-4,4.01h-50c-2.2,0-4-1.8-4-4.01V5.38c0-2.2,1.8-4.01,4-4.01h50c2.2,0,4,1.8,4,4.01"/>
		<circle fill="none" stroke="#000000" stroke-width="2" stroke-miterlimit="10" cx="43.08" cy="42.43" r="1"/>
	</g>
	<g>
		<ellipse fill="#FFFFFF" cx="70.13" cy="26.33" rx="14.48" ry="14.5"/>
		<g>
			<path fill="none" stroke="#272425" stroke-width="2" stroke-miterlimit="10" d="M82.64,24.5c0,8.09-6.55,14.64-14.62,14.64     c-8.08,0-14.63-6.55-14.63-14.64c0-8.09,6.55-14.64,14.63-14.64C76.09,9.86,82.64,16.41,82.64,24.5z"/>
			
				<line fill="none" stroke="#272425" stroke-width="2" stroke-linecap="round" stroke-miterlimit="10" x1="77.6" y1="35.56" x2="91.41" y2="49.39"/>
		</g>
	</g>
</g>
<g>
	<g>
		<path fill="#EFEEEA" d="M72.74,101.25l10,6.75v26.51c0,2.09-1.69,3.79-3.78,3.79H28.53c-2.09,0-3.78-1.7-3.78-3.79v-26.51l10-6.75    "/>
		<polyline fill="#EFEEEA" points="31.74,131.28 44.74,120.27 62.74,120.27 75.74,131.28   "/>
		<line fill="#EFEEEA" x1="82.74" y1="107.99" x2="67.61" y2="118.09"/>
		<line fill="#EFEEEA" x1="24.74" y1="107.99" x2="39.87" y2="118.09"/>
		<polyline fill="#FFFFFF" points="34.74,114.67 43.4,120.11 65.52,119.98 72.74,114.67 72.74,80.22 34.74,80.22 34.74,114.67   "/>
	</g>
	<g>
		<path fill="none" stroke="#272425" stroke-width="2" stroke-linecap="round" stroke-linejoin="round" stroke-miterlimit="10" d="    M70.74,99.24l10,6.75v26.51c0,2.09-1.69,3.79-3.78,3.79H26.53c-2.09,0-3.78-1.7-3.78-3.79v-26.51l10-6.75"/>
		
			<polyline fill="none" stroke="#272425" stroke-width="2" stroke-linecap="round" stroke-linejoin="round" stroke-miterlimit="10" points="    29.74,129.28 42.29,118.65 42.74,118.27 60.74,118.27 73.74,129.28   "/>
		
			<line fill="none" stroke="#272425" stroke-width="2" stroke-linecap="round" stroke-linejoin="round" stroke-miterlimit="10" x1="80.74" y1="105.99" x2="65.61" y2="116.09"/>
		
			<line fill="none" stroke="#272425" stroke-width="2" stroke-linecap="round" stroke-linejoin="round" stroke-miterlimit="10" x1="22.74" y1="105.99" x2="37.87" y2="116.09"/>
		
			<polyline fill="none" stroke="#272425" stroke-width="2" stroke-linecap="round" stroke-linejoin="round" stroke-miterlimit="10" points="    70.74,112.67 70.74,78.22 32.74,78.22 32.74,112.67   "/>
	</g>
	
		<line fill="none" stroke="#000000" stroke-width="2" stroke-linecap="round" stroke-linejoin="round" stroke-miterlimit="10" x1="39.93" y1="86.3" x2="62.72" y2="86.3"/>
	
		<line fill="none" stroke="#000000" stroke-width="2" stroke-linecap="round" stroke-linejoin="round" stroke-miterlimit="10" x1="39.93" y1="91.31" x2="59.7" y2="91.31"/>
	
		<line fill="none" stroke="#000000" stroke-width="2" stroke-linecap="round" stroke-linejoin="round" stroke-miterlimit="10" x1="39.93" y1="96.32" x2="62.72" y2="96.32"/>
	
		<line fill="none" stroke="#000000" stroke-width="2" stroke-linecap="round" stroke-linejoin="round" stroke-miterlimit="10" x1="39.93" y1="101.32" x2="53.47" y2="101.32"/>
</g>
<g>
	<g>
		<g>
			<path fill="none" stroke="#272425" stroke-width="2" stroke-linecap="round" stroke-linejoin="round" stroke-miterlimit="10" d="     M36.82,194.39v-15.48l0.02-0.14c0.24-2.21-0.04-4.51-0.92-6.72c-2.9-7.3-11.15-10.87-18.45-7.97c-5.47,2.17-8.84,7.37-8.97,12.91     l0.01,0.29l0,0.45l-0.06,16.72"/>
			<path fill="none" stroke="#272425" stroke-width="2" stroke-linecap="round" stroke-linejoin="round" stroke-miterlimit="10" d="     M29.2,189.94c-0.4,0.21-0.82,0.4-1.25,0.58c-3.98,1.58-8.24,1.23-11.76-0.6c-8.43,2.73-14.54,10.66-14.54,20.02h42.02     C43.68,200.61,37.61,192.7,29.2,189.94z"/>
			<path fill="none" stroke="#272425" stroke-width="2" stroke-linecap="round" stroke-linejoin="round" stroke-miterlimit="10" d="     M29.2,189.94c-0.4,0.21-0.82,0.4-1.25,0.58c-3.98,1.58-8.24,1.23-11.76-0.6c-8.43,2.73-14.54,10.66-14.54,20.02h42.02     C43.68,200.61,37.61,192.7,29.2,189.94z"/>
			<g>
				
					<path fill="none" stroke="#272425" stroke-width="2" stroke-linecap="round" stroke-linejoin="round" stroke-miterlimit="10" d="      M34.05,184.95c-2.08-2.28-4.61-5.81-4.84-9.71c-5.46,7.92-13.27,10.1-17.18,10.71c0,0,3.67,5.6,10.68,5.6      C30.52,191.55,34.05,185.18,34.05,184.95z"/>
			</g>
			<path fill="none" stroke="#272425" stroke-width="2" stroke-linecap="round" stroke-linejoin="round" stroke-miterlimit="10" d="     M25.08,184.59c0.46-0.93,1.42-1.58,2.53-1.58c1.11,0,2.06,0.64,2.53,1.58"/>
		</g>
		<path fill="none" stroke="#272425" stroke-width="2" stroke-linecap="round" stroke-linejoin="round" stroke-miterlimit="10" d="    M34.6,192.64c-1.41,1.09-2.99,2.01-4.73,2.71c-6.63,2.63-13.83,1.35-19.08-2.74c-5.51,3.79-9.14,10.13-9.14,17.34h6.8h28.36h6.86    C43.68,202.76,40.08,196.44,34.6,192.64z"/>
		<g>
			
				<path fill="#FFFFFF" stroke="#272425" stroke-width="2" stroke-linecap="round" stroke-linejoin="round" stroke-miterlimit="10" d="     M63.62,190.45c-0.42,0.22-0.86,0.42-1.32,0.6c-3.9,1.55-8.07,1.2-11.52-0.57c-8.23,2.71-14.17,10.47-14.17,19.62h41.26     C77.88,200.92,71.89,193.14,63.62,190.45z"/>
			
				<polygon fill="none" stroke="#272425" stroke-width="2" stroke-linecap="round" stroke-linejoin="round" stroke-miterlimit="10" points="     59.51,195.69 57.24,192.75 54.96,195.69 56.7,197.93 55.41,200 55.41,207.91 55.78,210.07 58.69,210.07 59.07,207.92 59.07,200      57.77,197.93    "/>
			<path fill="none" stroke="#272425" stroke-width="2" stroke-linecap="round" stroke-linejoin="round" stroke-miterlimit="10" d="     M70.12,172.92c-2.84-7.17-10.95-10.67-18.11-7.83c-7.16,2.85-10.66,10.96-7.82,18.14c2.84,7.17,10.95,10.67,18.11,7.83     C69.46,188.21,72.97,180.09,70.12,172.92z"/>
			<path fill="none" stroke="#272425" stroke-width="2" stroke-linecap="round" stroke-linejoin="round" stroke-miterlimit="10" d="     M59.18,183.89c0.46-0.91,1.39-1.55,2.48-1.55c1.09,0,2.02,0.63,2.48,1.55"/>
			<path fill="none" stroke="#272425" stroke-width="2" stroke-linecap="round" stroke-linejoin="round" stroke-miterlimit="10" d="     M50.36,183.89c0.46-0.91,1.39-1.55,2.48-1.55c1.09,0,2.02,0.63,2.48,1.55"/>
			<path fill="none" stroke="#272425" stroke-width="2" stroke-linecap="round" stroke-linejoin="round" stroke-miterlimit="10" d="     M52.01,165.09c-5.74,2.28-9.12,7.95-8.78,13.81c1.82,0.64,3.79,1,5.83,1c6.11,0,11.49-3.12,14.64-7.86     c0.18,4.43,2.99,8.19,6.91,9.75c0.78-2.83,0.68-5.92-0.48-8.86C67.28,165.75,59.17,162.25,52.01,165.09z"/>
		</g>
	</g>
	<ellipse fill="#FFFFFF" cx="83.83" cy="201.6" rx="20" ry="20.02"/>
	<ellipse fill="#EBF2D7" cx="86.95" cy="204.72" rx="16.88" ry="16.9"/>
	
		<polyline fill="none" stroke="#000000" stroke-width="2" stroke-linecap="round" stroke-linejoin="round" stroke-miterlimit="10" points="   92.98,194.76 83.48,206.38 77.15,200.04  "/>
	
		<ellipse fill="none" stroke="#000000" stroke-width="2" stroke-linecap="round" stroke-miterlimit="10" cx="84.53" cy="201.1" rx="16.88" ry="16.9"/>
</g>
<g>
	
		<ellipse transform="matrix(6.528027e-03 -1 1 6.528027e-03 -207.976 317.3035)" fill="none" stroke="#000000" stroke-width="2" stroke-miterlimit="10" cx="55.7" cy="263.32" rx="3.66" ry="3.66"/>
	<polyline fill="none" stroke="#000000" stroke-width="2" stroke-linejoin="round" stroke-miterlimit="10" points="32.32,275.84    44.12,264.35 55.89,275.99 64.89,267.77 73.33,276.11  "/>
	<g>
		
			<rect x="23.74" y="246.07" fill="none" stroke="#000000" stroke-width="2" stroke-linecap="round" stroke-linejoin="round" stroke-miterlimit="10" width="58" height="58"/>
		
			<rect x="31.74" y="286.07" fill="none" stroke="#000000" stroke-width="2" stroke-linecap="round" stroke-linejoin="round" stroke-miterlimit="10" width="10" height="10"/>
		
			<rect x="31.64" y="255.45" fill="none" stroke="#000000" stroke-width="2" stroke-linecap="round" stroke-linejoin="round" stroke-miterlimit="10" width="42.16" height="24.75"/>
		
			<rect x="47.74" y="286.07" fill="none" stroke="#000000" stroke-width="2" stroke-linecap="round" stroke-linejoin="round" stroke-miterlimit="10" width="10" height="10"/>
		
			<rect x="63.74" y="286.07" fill="none" stroke="#000000" stroke-width="2" stroke-linecap="round" stroke-linejoin="round" stroke-miterlimit="10" width="10" height="10"/>
	</g>
</g>
<g>
	<polyline fill="none" stroke="#000000" stroke-width="2" stroke-miterlimit="10" points="19.48,349.41 63.74,335.58 63.74,372.88    19.29,359.01  "/>
	<path fill="none" stroke="#000000" stroke-width="2" stroke-miterlimit="10" d="M49.53,370.31l-0.3,0.99   c-0.3,0.99-1.35,1.55-2.34,1.25l-16.84-5.12c-0.99-0.3-1.55-1.35-1.25-2.34l0.3-0.99c0.3-0.99,1.35-1.55,2.34-1.25l16.84,5.12   C49.27,368.27,49.83,369.32,49.53,370.31z"/>
	<g>
		<g>
			
				<line fill="none" stroke="#000000" stroke-width="2" stroke-linecap="round" stroke-miterlimit="10" x1="77.2" y1="339.65" x2="78.27" y2="338.6"/>
			
				<line fill="none" stroke="#000000" stroke-width="2" stroke-linecap="round" stroke-miterlimit="10" stroke-dasharray="2.3477,4.6954" x1="81.61" y1="335.31" x2="84.96" y2="332.01"/>
			
				<line fill="none" stroke="#000000" stroke-width="2" stroke-linecap="round" stroke-miterlimit="10" x1="86.63" y1="330.36" x2="87.7" y2="329.31"/>
		</g>
	</g>
	<g>
		<g>
			
				<line fill="none" stroke="#000000" stroke-width="2" stroke-linecap="round" stroke-miterlimit="10" x1="77.2" y1="368.96" x2="78.27" y2="370.01"/>
			
				<line fill="none" stroke="#000000" stroke-width="2" stroke-linecap="round" stroke-miterlimit="10" stroke-dasharray="2.3477,4.6954" x1="81.61" y1="373.31" x2="84.96" y2="376.6"/>
			
				<line fill="none" stroke="#000000" stroke-width="2" stroke-linecap="round" stroke-miterlimit="10" x1="86.63" y1="378.25" x2="87.7" y2="379.3"/>
		</g>
	</g>
	<g>
		<g>
			
				<line fill="none" stroke="#000000" stroke-width="2" stroke-linecap="round" stroke-miterlimit="10" x1="77.9" y1="354.33" x2="79.4" y2="354.34"/>
			
				<line fill="none" stroke="#000000" stroke-width="2" stroke-linecap="round" stroke-miterlimit="10" stroke-dasharray="2.3477,4.6954" x1="84.1" y1="354.38" x2="88.79" y2="354.41"/>
			
				<line fill="none" stroke="#000000" stroke-width="2" stroke-linecap="round" stroke-miterlimit="10" x1="91.14" y1="354.43" x2="92.64" y2="354.44"/>
		</g>
	</g>
	<g>
		<g>
			
				<line fill="none" stroke="#000000" stroke-width="2" stroke-linecap="round" stroke-miterlimit="10" x1="78.33" y1="346.84" x2="79.74" y2="346.34"/>
			
				<line fill="none" stroke="#000000" stroke-width="2" stroke-linecap="round" stroke-miterlimit="10" stroke-dasharray="2.3477,4.6954" x1="84.16" y1="344.75" x2="88.58" y2="343.17"/>
			
				<line fill="none" stroke="#000000" stroke-width="2" stroke-linecap="round" stroke-miterlimit="10" x1="90.79" y1="342.37" x2="92.21" y2="341.87"/>
		</g>
	</g>
	<g>
		<g>
			
				<line fill="none" stroke="#000000" stroke-width="2" stroke-linecap="round" stroke-miterlimit="10" x1="78.33" y1="361.77" x2="79.74" y2="362.28"/>
			
				<line fill="none" stroke="#000000" stroke-width="2" stroke-linecap="round" stroke-miterlimit="10" stroke-dasharray="2.3477,4.6954" x1="84.16" y1="363.86" x2="88.58" y2="365.45"/>
			
				<line fill="none" stroke="#000000" stroke-width="2" stroke-linecap="round" stroke-miterlimit="10" x1="90.79" y1="366.24" x2="92.21" y2="366.75"/>
		</g>
	</g>
	<path fill="none" stroke="#000000" stroke-width="2" stroke-miterlimit="10" d="M17.52,364.38h-1.66c-1.66,0-3.01-1.35-3.01-3.01   v-14.71c0-1.66,1.35-3.01,3.01-3.01h1.66c1.66,0,3.01,1.35,3.01,3.01v14.71C20.53,363.02,19.17,364.38,17.52,364.38z"/>
	<path fill="#FFFFFF" stroke="#000000" stroke-width="2" stroke-miterlimit="10" d="M68.55,379.4h-1.66c-1.66,0-3.01-1.35-3.01-3.01   v-44.76c0-1.66,1.35-3.01,3.01-3.01h1.66c1.66,0,3.01,1.35,3.01,3.01v44.76C71.56,378.05,70.2,379.4,68.55,379.4z"/>
</g>
<g>
	<path fill="none" stroke="#272425" stroke-width="2" stroke-linecap="round" stroke-linejoin="round" stroke-miterlimit="10" d="   M64.09,417.83c-10.09,0-10.09-3.78-11.35-5.04c-1.26,1.26-1.26,5.04-11.35,5.04"/>
	<path fill="none" stroke="#272425" stroke-width="2" stroke-linecap="round" stroke-miterlimit="10" d="M67.74,421.96l1.39-5.39   c0,0,1.26-12.61-16.39-12.61s-16.39,12.61-16.39,12.61l1.26,7.56c-2.52,1.26-1.26,7.57,2.52,7.57c0,7.56,8.83,12.61,12.61,12.61   c1.57,0,4.26-0.88,6.65-2.58"/>
	<path fill="none" stroke="#272425" stroke-width="2" stroke-linecap="round" stroke-miterlimit="10" d="M46.19,441.72l-15.9,4.49   c-3.94,1.48-6.54,5.24-6.54,9.44v6.3h58v-6.3c0-4.21-2.61-7.97-6.55-9.44l-15.81-4.49"/>
	<path fill="none" stroke="#272425" stroke-width="2" stroke-miterlimit="10" d="M71.74,429.36v2.59c0,3-2.73,4-5.13,4h-8.87"/>
	<path fill="none" stroke="#272425" stroke-width="2" stroke-linecap="round" stroke-linejoin="round" stroke-miterlimit="10" d="   M73.74,425.96c0,2.09-1.91,4-4,4h-2v-8h2C71.83,421.96,73.74,423.87,73.74,425.96z"/>
	<path fill="none" stroke="#272425" stroke-width="2" stroke-linecap="round" stroke-miterlimit="10" d="M45.18,425.39   c0-1.39,1.13-1.26,2.52-1.26c1.39,0,2.52-0.13,2.52,1.26"/>
	<path fill="none" stroke="#272425" stroke-width="2" stroke-linecap="round" stroke-miterlimit="10" d="M55.26,425.39   c0-1.39,1.13-1.26,2.52-1.26c1.39,0,2.52-0.13,2.52,1.26"/>
	<path fill="none" stroke="#272425" stroke-width="2" stroke-linecap="round" stroke-miterlimit="10" d="M57.74,435.96   c0,0.55-0.45,1-1,1h-5c-0.55,0-1-0.45-1-1c0-0.55,0.45-1,1-1h5C57.3,434.96,57.74,435.4,57.74,435.96z"/>
</g>
<g>
	<path fill="none" stroke="#272425" stroke-width="2" stroke-linejoin="round" stroke-miterlimit="10" d="M49.43,509.97l-9.44-9.44   c1.55-3.67,0.84-8.08-2.15-11.07c-2.99-2.99-7.21-3.71-10.88-2.15l5.67,4.83v6.38h-6.38l-4.83-5.67   c-1.55,3.67-0.84,7.98,2.15,10.97c2.99,3,7.4,3.66,11.07,2.11l9.45,9.42"/>
	<path fill="none" stroke="#272425" stroke-width="2" stroke-linejoin="round" stroke-miterlimit="10" d="M52.1,523.19l6.78,6.93   c-1.55,3.67-0.84,8.07,2.15,11.07c2.99,2.99,7.4,3.7,11.07,2.15l-5.48-4.82v-6h6l4.83,5.48c1.55-3.67,0.84-8.08-2.15-11.07   c-2.99-2.99-7.4-3.71-11.07-2.15l-6.78-6.93"/>
	<g>
		<path fill="none" stroke="#272425" stroke-width="2" stroke-linejoin="round" stroke-miterlimit="10" d="M66.87,486.64    c-3.45,3.45-8.56,3.45-12,0l-3,3l24,24l9-9L66.87,486.64z"/>
		<polygon fill="none" stroke="#272425" stroke-width="2" stroke-linejoin="round" stroke-miterlimit="10" points="33.26,542.64     26.95,536.34 62.87,500.64 68.87,506.64   "/>
	</g>
</g>
<g>
	<g>
		<path fill="none" stroke="#272425" stroke-width="2" stroke-linecap="round" stroke-linejoin="round" stroke-miterlimit="10" d="    M81.74,618.69c0,2.09-1.91,4-4,4h-50c-2.09,0-4-1.91-4-4v-28c0-2.09,1.91-4,4-4h50c2.09,0,4,1.91,4,4V618.69z"/>
		
			<rect x="63.74" y="592.69" fill="none" stroke="#272425" stroke-width="2" stroke-linecap="round" stroke-linejoin="round" stroke-miterlimit="10" width="10" height="10"/>
		
			<line fill="none" stroke="#272425" stroke-width="2" stroke-linecap="round" stroke-linejoin="round" stroke-miterlimit="10" x1="33.83" y1="594.69" x2="38.87" y2="594.69"/>
		
			<line fill="none" stroke="#272425" stroke-width="2" stroke-linecap="round" stroke-linejoin="round" stroke-miterlimit="10" x1="33.83" y1="610.69" x2="56.53" y2="610.69"/>
		
			<line fill="none" stroke="#272425" stroke-width="2" stroke-linecap="round" stroke-linejoin="round" stroke-miterlimit="10" x1="33.83" y1="616.69" x2="64.09" y2="616.69"/>
	</g>
	
		<line fill="none" stroke="#272425" stroke-width="2" stroke-linecap="round" stroke-linejoin="round" stroke-miterlimit="10" x1="28.79" y1="580.69" x2="76.7" y2="580.69"/>
	
		<line fill="none" stroke="#272425" stroke-width="2" stroke-linecap="round" stroke-linejoin="round" stroke-miterlimit="10" x1="33.83" y1="574.69" x2="71.66" y2="574.69"/>
	
		<line fill="none" stroke="#272425" stroke-width="2" stroke-linecap="round" stroke-linejoin="round" stroke-miterlimit="10" x1="38.87" y1="568.69" x2="66.61" y2="568.69"/>
</g>
<g>
	<g>
		<g>
			<g>
				
					<path fill="none" stroke="#000000" stroke-width="2" stroke-linecap="round" stroke-linejoin="round" stroke-miterlimit="10" d="      M59.96,684.49v-18.41l0.03-0.17c0.28-2.63-0.05-5.36-1.1-7.99c-3.45-8.68-13.28-12.93-21.97-9.48      c-6.51,2.59-10.53,8.76-10.68,15.36l0.01,0.35l0,0.54l-0.07,19.88"/>
				
					<path fill="none" stroke="#000000" stroke-width="2" stroke-linecap="round" stroke-linejoin="round" stroke-miterlimit="10" d="      M61.93,686.5c-2.93-3.34-6.72-5.89-11.04-7.3c-0.48,0.25-0.97,0.48-1.49,0.68c-4.74,1.88-9.81,1.46-14.01-0.71      c-10.04,3.25-17.31,12.68-17.31,23.81"/>
				
					<path fill="none" stroke="#000000" stroke-width="2" stroke-linecap="round" stroke-linejoin="round" stroke-miterlimit="10" d="      M50.9,679.21c-0.48,0.25-0.97,0.48-1.49,0.68c-4.74,1.88-9.81,1.46-14.01-0.71c-10.04,3.25-17.31,12.68-17.31,23.81"/>
				<g>
					
						<path fill="none" stroke="#000000" stroke-width="2" stroke-linecap="round" stroke-linejoin="round" stroke-miterlimit="10" d="       M56.67,673.26c-2.48-2.71-5.48-6.91-5.76-11.55c-6.51,9.42-15.8,12.02-20.46,12.74c0,0,4.37,6.66,12.72,6.66       C52.46,681.12,56.67,673.54,56.67,673.26z"/>
				</g>
				
					<path fill="none" stroke="#000000" stroke-width="2" stroke-linecap="round" stroke-linejoin="round" stroke-miterlimit="10" d="      M45.99,672.83c0.55-1.11,1.69-1.87,3.01-1.87c1.32,0,2.45,0.77,3.01,1.87"/>
			</g>
			<path fill="none" stroke="#000000" stroke-width="2" stroke-linecap="round" stroke-linejoin="round" stroke-miterlimit="10" d="     M61.16,685.69c-1.17-1.21-2.45-2.31-3.84-3.27c-1.68,1.3-3.56,2.39-5.63,3.22c-7.89,3.13-16.47,1.6-22.72-3.26     c-6.56,4.51-10.88,12.05-10.88,20.62h8.1h26.98"/>
		</g>
	</g>
	<g>
		
			<polygon fill="none" stroke="#000000" stroke-width="2" stroke-linecap="round" stroke-linejoin="round" stroke-miterlimit="10" points="    71.14,681.63 76.16,691.81 87.4,693.44 79.27,701.36 81.19,712.55 71.14,707.27 61.09,712.55 63.01,701.36 54.89,693.44     66.12,691.81   "/>
	</g>
</g>
</svg>