<?xml version="1.0" encoding="UTF-8"?>
<svg xmlns="http://www.w3.org/2000/svg" xmlns:xlink="http://www.w3.org/1999/xlink" x="0px" y="0px" width="74.7px" height="234.3px" viewBox="0 0 74.7 234.3" style="enable-background:new 0 0 74.7 234.3;" xml:space="preserve">
<path style="fill:#F6F0C8;" d="M7.7,63.7c-0.3,0-0.5-0.2-0.5-0.5c0-0.1,0-0.1,0-0.2l1-2.9L6,58.2c-0.2-0.2-0.2-0.5-0.1-0.7     c0.1-0.1,0.2-0.2,0.4-0.2h2.8l1-2.9c0.1-0.3,0.4-0.4,0.6-0.3c0.1,0.1,0.2,0.2,0.3,0.3l1,2.9h2.8c0.3,0,0.5,0.2,0.5,0.5     c0,0.1-0.1,0.3-0.2,0.4L13,60.1l1,2.9c0.1,0.3-0.1,0.5-0.3,0.6c-0.2,0.1-0.3,0-0.5-0.1l-2.6-1.9L8,63.5C7.9,63.6,7.8,63.6,7.7,63.7z     "/>
<path style="fill:#272425;" d="M10.6,54.6l1.1,3.2h3.1l-2.5,2.1l1.1,3.2L10.6,61l-2.9,2.2l1.1-3.2l-2.5-2.1h3.1L10.6,54.6      M10.6,53.6c-0.4,0-0.8,0.3-0.9,0.7l-0.9,2.6H6.3c-0.6,0-1,0.4-1,1c0,0.3,0.1,0.6,0.4,0.8l2,1.7l-0.9,2.6c-0.2,0.5,0.1,1.1,0.6,1.3     c0.3,0.1,0.6,0.1,0.9-0.1l2.3-1.7l2.3,1.7c0.4,0.3,1.1,0.2,1.4-0.2c0.2-0.3,0.3-0.6,0.1-0.9l-0.9-2.6l2-1.7c0.4-0.4,0.5-1,0.1-1.4     c-0.2-0.2-0.5-0.4-0.8-0.4h-2.5l-0.9-2.6C11.4,53.9,11,53.6,10.6,53.6L10.6,53.6z"/>
<path style="fill:#F6F0C8;" d="M21.1,63.7c-0.3,0-0.5-0.2-0.5-0.5c0-0.1,0-0.1,0-0.2l1-2.9l-2.2-1.9c-0.2-0.2-0.2-0.5-0.1-0.7     c0.1-0.1,0.2-0.2,0.4-0.2h2.8l1-2.9c0.1-0.2,0.3-0.3,0.5-0.3l0,0c0.2,0,0.4,0.1,0.5,0.3l1,2.9h2.8c0.3,0,0.5,0.2,0.5,0.5     c0,0.1-0.1,0.3-0.2,0.4l-2.2,1.9l1,2.9c0.1,0.3-0.1,0.5-0.3,0.6c-0.2,0.1-0.3,0-0.5-0.1L24,61.6l-2.6,1.9     C21.4,63.6,21.3,63.7,21.1,63.7z"/>
<path style="fill:#272425;" d="M24,54.6l1.1,3.2h3.1l-2.5,2.1l1.1,3.2L24,61l-2.9,2.1l1.1-3.2l-2.5-2.1h3.1L24,54.6 M24,53.6     c-0.4,0-0.8,0.3-0.9,0.7l-0.9,2.6h-2.4c-0.6,0-1,0.4-1,1c0,0.3,0.1,0.6,0.4,0.8l2,1.7l-0.9,2.6c-0.2,0.5,0.1,1.1,0.6,1.3     c0.3,0.1,0.6,0.1,0.9-0.1l2.2-1.7l2.3,1.7c0.4,0.3,1.1,0.2,1.4-0.2c0.2-0.3,0.3-0.6,0.1-0.9L27,60.3l2-1.7c0.4-0.4,0.5-1,0.1-1.4     c-0.2-0.2-0.5-0.4-0.8-0.4h-2.5L25,54.2C24.9,53.9,24.5,53.6,24,53.6L24,53.6z"/>
<path style="fill:#F6F0C8;" d="M40.3,63.7c-0.1,0-0.2,0-0.3-0.1l-2.6-1.9l-2.6,1.9c-0.2,0.2-0.5,0.1-0.7-0.1     c-0.1-0.1-0.1-0.3-0.1-0.5l1-2.9l-2.2-1.9c-0.2-0.2-0.2-0.5-0.1-0.7c0.1-0.1,0.2-0.2,0.4-0.2H36l1-2.9c0.1-0.3,0.4-0.4,0.6-0.3     c0.1,0.1,0.2,0.2,0.3,0.3l1,2.9h2.8c0.3,0,0.5,0.2,0.5,0.5c0,0.1-0.1,0.3-0.2,0.4l-2.2,1.9l1,2.9c0.1,0.3-0.1,0.5-0.3,0.6     C40.4,63.7,40.4,63.7,40.3,63.7L40.3,63.7z"/>
<path style="fill:#272425;" d="M37.4,54.6l1.1,3.2h3.1l-2.5,2.1l1.1,3.2L37.4,61l-2.9,2.1l1.1-3.2l-2.5-2.1h3.1L37.4,54.6      M37.4,53.6c-0.4,0-0.8,0.3-0.9,0.7l-0.9,2.6h-2.4c-0.6,0-1,0.4-1,1c0,0.3,0.1,0.6,0.4,0.8l2,1.7l-0.9,2.6c-0.2,0.5,0.1,1.1,0.6,1.3     c0.3,0.1,0.7,0.1,0.9-0.1l2.3-1.7l2.3,1.7c0.4,0.3,1.1,0.2,1.4-0.2c0.2-0.3,0.3-0.6,0.1-0.9l-0.9-2.6l2-1.7c0.4-0.4,0.5-1,0.1-1.4     c-0.2-0.2-0.5-0.4-0.8-0.4h-2.4l-0.9-2.6C38.2,53.9,37.9,53.6,37.4,53.6L37.4,53.6z"/>
<path style="fill:#F6F0C8;" d="M48,63.7c-0.3,0-0.5-0.2-0.5-0.5c0-0.1,0-0.1,0-0.2l1-2.9l-2.2-1.9c-0.2-0.2-0.2-0.5-0.1-0.7     c0.1-0.1,0.2-0.2,0.4-0.2h2.8l1-2.9c0.1-0.3,0.4-0.4,0.6-0.3c0.1,0.1,0.2,0.2,0.3,0.3l1,2.9h2.8c0.3,0,0.5,0.2,0.5,0.5     c0,0.1-0.1,0.3-0.2,0.4l-2.2,1.9l1,2.9c0.1,0.3-0.1,0.5-0.3,0.6c-0.2,0.1-0.3,0-0.5-0.1l-2.6-1.9l-2.6,1.9     C48.2,63.6,48.1,63.7,48,63.7z"/>
<path style="fill:#272425;" d="M50.8,54.6l1.2,3.2h3.1l-2.5,2.1l1.1,3.2L50.8,61L48,63.2l1.1-3.2l-2.5-2.1h3.1L50.8,54.6 M50.8,53.6     c-0.4,0-0.8,0.3-0.9,0.7L49,56.8h-2.4c-0.6,0-1,0.4-1,1c0,0.3,0.1,0.6,0.4,0.8l2,1.7L47,62.8c-0.2,0.5,0,1.1,0.5,1.3     c0.4,0.2,0.8,0.1,1.1-0.2l2.3-1.7l2.3,1.7c0.4,0.3,1.1,0.2,1.4-0.2c0.2-0.3,0.3-0.6,0.1-0.9l-0.9-2.6l2-1.7c0.4-0.4,0.5-1,0.1-1.4     c-0.2-0.2-0.5-0.4-0.8-0.4h-2.5l-0.9-2.6C51.6,53.9,51.3,53.6,50.8,53.6L50.8,53.6z"/>
<path style="fill:#F6F0C8;" d="M61.4,63.7c-0.3,0-0.5-0.2-0.5-0.5c0-0.1,0-0.1,0-0.2l1-2.9l-2.2-1.9c-0.2-0.2-0.2-0.5-0.1-0.7     c0.1-0.1,0.2-0.2,0.4-0.2h2.8l1-2.9c0.1-0.3,0.4-0.4,0.6-0.3c0.1,0.1,0.2,0.2,0.3,0.3l1,2.9h2.8c0.3,0,0.5,0.2,0.5,0.5     c0,0.1-0.1,0.3-0.2,0.4l-2.2,1.9l1,2.9c0.1,0.3-0.1,0.5-0.3,0.6c-0.2,0.1-0.3,0-0.5-0.1l-2.6-1.9l-2.6,1.9     C61.6,63.6,61.5,63.7,61.4,63.7z"/>
<path style="fill:#272425;" d="M64.2,54.6l1.1,3.2h3.1L66,59.9l1.1,3.2L64.2,61l-2.9,2.1l1.1-3.2L60,57.8h3.1L64.2,54.6 M64.2,53.6     c-0.4,0-0.8,0.3-0.9,0.7l-0.9,2.6H60c-0.6,0-1,0.4-1,1c0,0.3,0.1,0.6,0.4,0.8l2,1.7l-0.9,2.6c-0.2,0.5,0.1,1.1,0.6,1.3     c0.3,0.1,0.6,0.1,0.9-0.1l2.3-1.7l2.2,1.7c0.4,0.3,1.1,0.2,1.4-0.2c0.2-0.3,0.3-0.6,0.1-0.9l-0.9-2.6l2-1.7c0.4-0.4,0.5-1,0.1-1.4     c-0.2-0.2-0.5-0.4-0.8-0.4h-2.5l-0.9-2.6C65.1,53.9,64.7,53.6,64.2,53.6L64.2,53.6z"/>
<path style="fill:#EDEDED;" d="M25.4,173.4h45.9c1,0,1.8,0.8,1.8,1.8v50.9c0,1-0.8,1.8-1.8,1.8H25.4c-1,0-1.8-0.8-1.8-1.8v-50.9     C23.7,174.2,24.4,173.4,25.4,173.4z"/>
<path d="M71.3,228.3H25.4c-1.2,0-2.2-1-2.2-2.2l0,0v-50.9c0-1.2,1-2.2,2.2-2.2h45.9c1.2,0,2.2,1,2.2,2.2v50.9     C73.6,227.3,72.6,228.3,71.3,228.3L71.3,228.3z M25.4,173.9c-0.7,0-1.2,0.6-1.2,1.2v50.9c0,0.7,0.6,1.2,1.2,1.2h45.9     c0.7,0,1.2-0.6,1.2-1.2v-50.9c0-0.7-0.6-1.2-1.2-1.2H25.4z"/>
<path style="fill:#FFFFFF;" d="M22.5,170.1h45.3c1.1,0,2,0.9,2,2v50.3c0,1.1-0.9,2-2,2H22.5c-1.1,0-2-0.9-2-2v-50.3     C20.4,171,21.3,170.1,22.5,170.1z"/>
<path d="M67.8,225H22.5c-1.4,0-2.5-1.1-2.5-2.5v-50.3c0-1.4,1.1-2.5,2.5-2.5h45.3c1.4,0,2.5,1.1,2.5,2.5v50.3     C70.3,223.9,69.2,225,67.8,225L67.8,225z M22.5,170.6c-0.9,0-1.5,0.7-1.5,1.5v50.3c0,0.9,0.7,1.5,1.5,1.5c0,0,0,0,0,0h45.3     c0.9,0,1.5-0.7,1.5-1.5v-50.3c0-0.9-0.7-1.5-1.5-1.5H22.5z"/>
<path style="fill:#FCF9F4;" d="M25.3,173.9h39.1c1,0,1.8,0.8,1.8,1.8l0,0V208c0,1.5-1.2,2.6-2.6,2.6h0H26.1c-1.4,0-2.6-1.2-2.6-2.6     v-32.3C23.5,174.7,24.3,173.9,25.3,173.9C25.3,173.9,25.3,173.9,25.3,173.9z"/>
<path d="M63.5,211.1H26.1c-1.7,0-3.1-1.4-3.1-3.1v-32.3c0-1.3,1-2.3,2.3-2.3h39c1.3,0,2.3,1,2.3,2.3V208     C66.6,209.7,65.2,211.1,63.5,211.1z M25.3,174.4c-0.7,0-1.3,0.6-1.3,1.3l0,0V208c0,1.2,1,2.1,2.1,2.1c0,0,0,0,0,0h37.4     c1.2,0,2.1-1,2.1-2.1v-32.3c0-0.7-0.6-1.3-1.3-1.3H25.3z"/>
<path style="fill:#E8CFB1;" d="M43.3,202v-8.5c0.5-4.3-2.6-8.1-6.8-8.6s-8.1,2.6-8.6,6.8c0,0.2,0,0.5,0,0.7v0.4v9.1"/>
<path d="M27.8,202.6L27.8,202.6c-0.3,0-0.5-0.2-0.5-0.5v-9.4v-0.1c0.1-4.6,3.8-8.2,8.4-8.2s8.2,3.8,8.2,8.4c0,0.3,0,0.5,0,0.8v8.4     c0,0.3-0.2,0.5-0.5,0.5s-0.5-0.2-0.5-0.5v-8.4c0,0,0-0.1,0-0.1c0.1-1.2,0-2.3-0.5-3.4c-1.5-3.7-5.7-5.5-9.4-4     c-2.7,1.1-4.5,3.7-4.6,6.6v0.1v9.4C28.3,202.3,28.1,202.5,27.8,202.6C27.8,202.6,27.8,202.6,27.8,202.6z"/>
<path style="fill:#F2D7CC;" d="M45.2,204.2c-1.4-2.2-3.5-3.8-6-4.6c-0.2,0.1-0.5,0.2-0.7,0.3c-2.1,0.8-4.4,0.7-6.4-0.3     c-4.7,1.5-7.9,5.9-7.9,10.9h19.2"/>
<path d="M43.3,211H23.6v-0.5c0-5.2,3.3-9.8,8.3-11.4l0.2-0.1l0.2,0.1c1.9,1,4.1,1.1,6,0.3c0.2-0.1,0.4-0.2,0.6-0.3l0.2-0.1l0.2,0.1     c2.6,0.8,4.8,2.5,6.3,4.8l-0.8,0.6c-1.3-2-3.3-3.6-5.6-4.4l-0.5,0.2c-2.2,0.9-4.6,0.8-6.6-0.2c-4.3,1.5-7.2,5.4-7.4,9.9h18.7V211z"/>
<path style="fill:#FFFFFF;" d="M27.8,210.5h15.5V202c-0.4-0.4-0.8-0.7-1.2-1c-3.8,3-9.2,3-13,0c-0.4,0.3-0.9,0.6-1.3,1L27.8,210.5z"/>
<path d="M43.3,211H27.8c-0.3,0-0.5-0.2-0.5-0.5v-8.4c0-0.1,0.1-0.3,0.2-0.4c0.4-0.4,0.9-0.7,1.3-1.1c0.2-0.1,0.4-0.1,0.6,0     c3.6,2.8,8.8,2.8,12.4,0c0.2-0.1,0.4-0.1,0.6,0c0.4,0.3,0.9,0.6,1.3,1c0.1,0.1,0.2,0.2,0.2,0.4v8.5C43.8,210.7,43.6,211,43.3,211     C43.3,211,43.3,211,43.3,211z M28.3,210h14.5v-7.8c-0.2-0.2-0.5-0.4-0.7-0.6c-3.9,2.8-9.1,2.8-13,0c-0.3,0.2-0.5,0.4-0.8,0.6     L28.3,210z"/>
<path style="fill:#F2D7CC;" d="M41.8,196.9c-1.4-1.4-2.4-3.3-2.6-5.3c-2.2,3.2-5.6,5.3-9.4,5.8c1.4,1.9,3.5,3,5.8,3.1     C38.2,200.5,40.5,199.1,41.8,196.9z"/>
<path d="M35.6,201c-2.5,0-4.8-1.3-6.2-3.3c-0.2-0.2-0.1-0.5,0.1-0.7c0.1,0,0.1-0.1,0.2-0.1c3.6-0.6,6.9-2.6,9-5.6     c0.2-0.2,0.5-0.3,0.7-0.1c0.1,0.1,0.2,0.2,0.2,0.4c0.3,1.9,1.1,3.7,2.5,5c0.1,0.1,0.1,0.2,0.1,0.3C42.3,197.3,40.1,201,35.6,201z      M30.7,197.8c1.3,1.4,3,2.2,4.9,2.2c2.2,0,4.3-1.1,5.6-3c-1.1-1.2-1.9-2.6-2.3-4.1C36.8,195.4,33.9,197.1,30.7,197.8L30.7,197.8z"/>
<path d="M39.7,197.2c-0.2,0-0.4-0.1-0.5-0.3c-0.3-0.5-1-0.7-1.5-0.4c-0.2,0.1-0.3,0.2-0.4,0.4c-0.1,0.3-0.4,0.4-0.7,0.3     c-0.3-0.1-0.4-0.4-0.3-0.7c0,0,0,0,0-0.1c0.5-1,1.6-1.5,2.6-1c0.4,0.2,0.8,0.6,1,1c0.1,0.2,0,0.5-0.2,0.7     C39.8,197.2,39.7,197.2,39.7,197.2L39.7,197.2z"/>
<path style="fill:#FFFFFF;" d="M65.7,209.5c-0.4-4.4-3.5-8.2-7.7-9.6"/>
<path d="M65.7,210c-0.3,0-0.5-0.2-0.5-0.4c-0.4-4.3-3.3-7.9-7.4-9.2c-0.3-0.1-0.4-0.4-0.3-0.7c0.1-0.3,0.4-0.4,0.7-0.3     c4.4,1.4,7.6,5.4,8.1,10C66.2,209.6,66,209.9,65.7,210C65.7,209.9,65.7,209.9,65.7,210L65.7,210z"/>
<path style="fill:#FFFFFF;" d="M50.9,199.9c-4.6,1.5-7.7,5.8-7.7,10.7h20.3"/>
<path d="M63.5,211.1H43.2c-0.3,0-0.5-0.2-0.5-0.5c0-5.1,3.3-9.6,8.1-11.2c0.3-0.1,0.5,0.1,0.6,0.3c0.1,0.3-0.1,0.5-0.3,0.6     c-4.2,1.4-7.2,5.3-7.4,9.7h19.8c0.3,0,0.5,0.2,0.5,0.5S63.8,211.1,63.5,211.1L63.5,211.1z"/>
<polygon style="fill:#F77C7C;" points="55.7,202.7 54.5,201.1 53.2,202.7 54.2,204 53.5,205.1 53.5,209.4 53.7,210.6 55.2,210.6      55.5,209.4 55.5,205.1 54.8,204 "/>
<path d="M55.7,211.1h-2.4l-0.2-1.6V205l0.6-1l-1-1.2l1.9-2.4l1.9,2.4l-1,1.2l0.6,1v4.5L55.7,211.1z M54.1,210.1h0.8l0.1-0.8v-4.1     l-0.5-0.8l-0.5,0.8v4.2L54.1,210.1z M53.8,202.7l0.6,0.8l0.6-0.8l-0.6-0.8L53.8,202.7z"/>
<ellipse transform="matrix(0.9295 -0.3689 0.3689 0.9295 -67.4153 33.6962)" style="fill:#F2D7CC;" cx="54.4" cy="193.1" rx="7.6" ry="7.6"/>
<path d="M54.4,201.2c-4.5,0-8.1-3.6-8.1-8.1c0-4.5,3.6-8.1,8.1-8.1c4.5,0,8.1,3.6,8.1,8.1c0,3.3-2,6.3-5.1,7.5     C56.5,201.1,55.4,201.3,54.4,201.2z M54.4,186c-3.9,0-7.1,3.2-7.2,7.1c0,3.9,3.2,7.1,7.1,7.2s7.1-3.2,7.2-7.1c0-0.9-0.2-1.8-0.5-2.7     C59.9,187.8,57.3,186,54.4,186L54.4,186z"/>
<path d="M55.5,196.8c-0.3,0-0.5-0.2-0.5-0.5c0-0.1,0-0.2,0.1-0.2c0.5-1,1.7-1.4,2.7-0.9c0.4,0.2,0.7,0.5,0.9,0.9     c0.1,0.3,0,0.5-0.3,0.7c-0.2,0.1-0.5,0-0.6-0.2c-0.2-0.5-0.8-0.7-1.3-0.5c-0.2,0.1-0.4,0.3-0.5,0.5     C55.9,196.7,55.7,196.8,55.5,196.8z"/>
<path d="M50.7,196.8c-0.3,0-0.5-0.2-0.5-0.5c0-0.1,0-0.2,0.1-0.2c0.5-1,1.7-1.4,2.7-0.9c0.4,0.2,0.7,0.5,0.9,0.9     c0.1,0.3,0,0.5-0.3,0.7c-0.2,0.1-0.5,0-0.6-0.2c-0.2-0.5-0.8-0.7-1.3-0.5c-0.2,0.1-0.4,0.3-0.5,0.5C51,196.7,50.9,196.8,50.7,196.8z     "/>
<path style="fill:#E8CFB1;" d="M51.6,186c-3.1,1.2-5,4.2-4.8,7.5c4.1,1.5,8.8,0,11.2-3.7c0.1,2.4,1.6,4.4,3.8,5.3     c1.1-4-1.2-8.3-5.3-9.4C54.9,185.3,53.2,185.4,51.6,186z"/>
<path d="M61.8,195.6c-0.1,0-0.1,0-0.2,0c-2-0.8-3.4-2.5-3.9-4.5c-2.7,3.2-7.1,4.4-11,3c-0.2-0.1-0.3-0.2-0.3-0.4     c-0.2-3.5,1.9-6.7,5.1-8l0,0c4.2-1.7,8.9,0.4,10.5,4.6c0.6,1.6,0.7,3.4,0.3,5.1c-0.1,0.2-0.3,0.4-0.5,0.4L61.8,195.6z M58,189.3h0.1     c0.2,0.1,0.4,0.2,0.4,0.5c0.1,2,1.2,3.7,2.9,4.6c0.2-1.3,0.1-2.7-0.4-3.9c-1.5-3.7-5.6-5.4-9.2-4l0,0c-2.7,1.1-4.5,3.8-4.5,6.7     c3.9,1.2,8-0.3,10.3-3.6C57.6,189.4,57.8,189.3,58,189.3z"/>
<path style="fill:#B5B5B5;" d="M4.8,210.4v-1.1c0.1-0.9,0.8-1.5,1.6-1.7h1.1c0.8,0.1,1.5,0.8,1.5,1.7v1.1"/>
<path d="M9.5,210.4h-1v-1.1c0-0.5-0.5-1.2-0.9-1.2H6.4c-0.6,0.1-1,0.6-1.1,1.2v1.1h-1v-1.1c0.1-1.1,1-2,2.1-2.2h1.1     c1.1,0.1,1.9,1.1,1.9,2.2L9.5,210.4z"/>
<path style="fill:#FCF9F4;" d="M28.5,210.4L25,206h-7l-4.4,4.4H4.8c-1.3-0.2-2.6,0.8-2.8,2.1c0,0.2,0,0.4,0,0.6v14.5     c0,1.4,0.7,2.6,2.9,2.7h26.3c2.2-0.1,2.9-1.2,2.9-2.7v-15c0-1.4-0.7-2.2-2.8-2.2L28.5,210.4z"/>
<path d="M4.9,230.8c-2.2-0.1-3.4-1.2-3.4-3.2v-14.5c-0.1-1.7,1.1-3.1,2.8-3.2c0.2,0,0.3,0,0.5,0h8.6l4.3-4.3     c0.1-0.1,0.2-0.1,0.4-0.1h7c0.2,0,0.3,0.1,0.4,0.2l3.4,4.2h2.5c2.3,0,3.3,0.8,3.3,2.7v15c0,2-1.2,3.1-3.4,3.2L4.9,230.8z M4.8,210.9     c-1.1-0.2-2.1,0.6-2.3,1.7c0,0.2,0,0.3,0,0.5v14.5c0,1.4,0.8,2.1,2.4,2.2h26.3c1.6-0.1,2.4-0.8,2.4-2.2v-15c0-0.9-0.2-1.7-2.3-1.7     h-2.7c-0.2,0-0.3-0.1-0.4-0.2l-3.4-4.2h-6.5l-4.2,4.3c-0.1,0.1-0.2,0.1-0.4,0.1H4.8z"/>
<circle style="fill:#F2D7CC;" cx="21.4" cy="219.8" r="7.7"/>
<path d="M21.4,228c-4.6,0-8.2-3.7-8.2-8.2s3.7-8.2,8.2-8.2s8.2,3.7,8.2,8.2C29.6,224.3,25.9,228,21.4,228z M21.4,212.5     c-4,0-7.2,3.2-7.2,7.2c0,4,3.2,7.2,7.2,7.2s7.2-3.2,7.2-7.2C28.6,215.8,25.3,212.6,21.4,212.5L21.4,212.5z"/>
<circle style="fill:#D1BAB2;" cx="21.4" cy="219.8" r="4.4"/>
<path d="M21.4,224.7c-2.7,0-4.9-2.2-4.9-4.9s2.2-4.9,4.9-4.9s4.9,2.2,4.9,4.9l0,0C26.3,222.5,24.1,224.7,21.4,224.7z M21.4,215.9     c-2.2,0-3.9,1.8-3.9,3.9c0,2.2,1.8,3.9,3.9,3.9s3.9-1.8,3.9-3.9l0,0C25.3,217.6,23.5,215.9,21.4,215.9L21.4,215.9z"/>
<circle style="fill:#F77C7C;" cx="6.4" cy="215.9" r="2.2"/>
<path d="M6.4,218.6c-1.5,0-2.7-1.2-2.7-2.7c0-1.5,1.2-2.7,2.7-2.7c1.5,0,2.7,1.2,2.7,2.7C9.1,217.4,7.9,218.6,6.4,218.6z M6.4,214.2     c-0.9,0-1.7,0.8-1.7,1.7c0,0.9,0.8,1.7,1.7,1.7c0.9,0,1.7-0.8,1.7-1.7C8.1,215,7.4,214.2,6.4,214.2C6.4,214.2,6.4,214.2,6.4,214.2z"/>
<path style="fill:#272425;" d="M38.9,46.3c-3.7,0-7.4-1-10.5-3c-0.2-0.1-0.3-0.4-0.2-0.7c0.1-0.2,0.4-0.3,0.7-0.2c0,0,0,0,0.1,0     c9.1,5.5,21,2.6,26.5-6.5S58,15,48.9,9.4s-21-2.6-26.5,6.5c-3.7,6.1-3.7,13.7-0.1,19.8c0.1,0.2,0.1,0.5-0.2,0.7     c-0.2,0.1-0.5,0.1-0.7-0.2c-5.7-9.7-2.5-22.1,7.2-27.8S50.7,6,56.4,15.6s2.5,22.1-7.2,27.8C46.1,45.3,42.6,46.3,38.9,46.3L38.9,46.3     z"/>
<path style="fill:#F2D7CC;" d="M51.9,27.3c0,7.2-5.8,13.1-13,13.3c-7.2-0.2-13-6.1-13-13.3L51.9,27.3z"/>
<path style="fill:#272425;" d="M38.9,41.1c-7.5-0.2-13.5-6.3-13.5-13.8c0-0.3,0.2-0.5,0.5-0.5h26c0.3,0,0.5,0.2,0.5,0.5     C52.4,34.8,46.4,40.9,38.9,41.1z M26.5,27.8c0.3,6.7,5.7,12.1,12.5,12.3c6.8-0.2,12.2-5.5,12.5-12.3H26.5z"/>
<path style="fill:#272425;" d="M34.8,23c-0.3,0-0.5-0.2-0.5-0.5c-0.1-1.7-1.5-3-3.2-3c-1.6,0-3.4,1.3-3.4,3c0,0.3-0.2,0.5-0.5,0.5     s-0.5-0.2-0.5-0.5c0-2.3,2.3-4,4.4-4c2.2,0,4.1,1.8,4.2,4C35.3,22.8,35.1,23,34.8,23z"/>
<path style="fill:#272425;" d="M50.5,23c-0.3,0-0.5-0.2-0.5-0.5c0-1.7-1.8-3-3.4-3c-1.7,0-3.1,1.3-3.2,3c0,0.3-0.2,0.5-0.5,0.5     s-0.5-0.2-0.5-0.5c0.1-2.2,1.9-4,4.2-4c2.1,0,4.4,1.7,4.4,4C51,22.8,50.8,23,50.5,23z"/>
<path style="fill:#272425;" d="M18.2,47.5c-0.3,0-0.5-0.2-0.5-0.5c0-0.1,0-0.1,0-0.2l3.6-11l1,0.3l-3.3,10l9.4-3.7l0.4,0.9     l-10.4,4.2C18.4,47.5,18.3,47.5,18.2,47.5z"/>
</svg>