<svg xmlns="http://www.w3.org/2000/svg" width="25" height="105" viewBox="0 0 25 105"><path fill="#726A71" d="M21.7 56.2l.7-.7c.6-.6.6-1.7 0-2.4-.5-.5-1.4-.6-2-.3l-1.1-2.7 4.5-4 .3-.3c1.3-1.5 1.2-3.8-.3-5.1-.7-.6-1.5-.9-2.4-.9-1 0-2 .4-2.7 1.2l-4 4.5-2.7-1.1c.1-.2.2-.5.2-.8 0-.4-.2-.9-.5-1.2-.6-.6-1.7-.6-2.4 0l-.7.7-6.1-2.4c-.7-.3-1.6-.1-2.1.4-.8.8-.8 2 0 2.7l8.3 8.3-2.5 2.8-2.2-.6c-.5-.2-1.1 0-1.5.3-.3.3-.4.6-.4 1 0 .3.1.7.4 1L3.9 58l-.2.3c-.7.8-.7 2.1 0 2.9.4.5 1 .7 1.7.7.5 0 1.1-.2 1.5-.6l.1-.2 1.4 1.4c.3.3.6.4 1 .4s.7-.1 1-.4c.4-.4.5-1 .3-1.5l-.9-2.3 2.8-2.5 8.3 8.3c.4.3.8.5 1.4.5.5 0 1-.2 1.4-.6.6-.5.7-1.4.4-2.1l-2.4-6.1zM10.2 43.3c.1-.1.3-.2.5-.2s.3.1.5.2c.1.1.2.3.2.5s-.1.3-.2.5l-1.5 1.5c-.2.2-.4.2-.7.1-.1 0-.2-.1-.2-.1-.3-.3-.3-.7 0-.9l.2-.2.3-.3.9-1.1zm-8.9.1c-.4-.4-.4-1 0-1.3.3-.3.7-.3 1-.2L8 44.1c-.6.6-.6 1.7 0 2.4.3.3.7.5 1.2.5.4 0 .9-.2 1.2-.5l.6-.6.4-.4 2.7 1.1-4.5 5.1-8.3-8.3zm19.9 10.3c.2 0 .3.1.5.2.3.3.3.7 0 .9l-.9.9-.3.3-.2.2s-.1 0-.1.1c-.2.2-.6.2-.8-.1-.1-.1-.1-.1-.1-.2v-.1-.3-.1c0-.1.1-.2.1-.2l1.5-1.5s.1-.1.3-.1zm-18 2.2c-.1-.1-.1-.2-.1-.3 0-.1 0-.2.1-.3.1-.1.3-.1.4-.1l2 .8-.1.2-.9 1-1.4-1.3zm1.2 4.6c-.4-.5-.4-1.1 0-1.6l.5-.6 1.4-1.6 13.1-14.8c.5-.6 1.2-.9 1.9-.9.6 0 1.2.2 1.7.6 1.1.9 1.2 2.6.2 3.6-.1.1-.1.2-.2.2l-5.8 5.1-5 4.4L8.7 58l-2.1 1.9-.6.5c-.4.6-1.2.6-1.6.1zM9 59.4l.8 2c.1.1 0 .3-.1.4-.1.1-.4.2-.5 0l-.1-.1-1.3-1.3.8-.7.4-.3zm14 4.3c-.3.3-.9.4-1.3.1l-.1-.1-8.2-8.2 5.1-4.5 1.1 2.7-.4.4-.6.6-.2.2c0 .1-.1.2-.1.2-.1.2-.1.4-.1.6 0 .2 0 .4.1.6 0 .1.1.2.1.2.1.1.1.2.2.3.3.3.7.5 1.2.5.4 0 .9-.2 1.2-.5l2.3 5.7c0 .5-.1.9-.3 1.2z"/><g fill="#726A71"><path d="M23.6 82.7h-1.3v-1.3c0-.8-.6-1.4-1.4-1.4H1.4c-.8 0-1.4.6-1.4 1.4v19.5c0 .8.6 1.4 1.4 1.4h1.3v1.3c0 .8.6 1.4 1.4 1.4h19.5c.8 0 1.4-.6 1.4-1.4V84.1c0-.8-.6-1.4-1.4-1.4zm.6 3.1V103.6c0 .3-.2.6-.5.6H4.1c-.3 0-.5-.2-.5-.6v-1.3H21c.8 0 1.4-.6 1.4-1.4V83.5h1.3c.3 0 .5.2.5.6V85.8zM.8 100.9V81.4c0-.3.2-.5.5-.5h19.5c.3 0 .5.2.5.5v19.5c0 .3-.2.5-.5.5H1.4c-.3.1-.6-.2-.6-.5z"/><path d="M8.4 85.8l.4.4.6.6V91l-1.1 1.1h2.4v4.7c0 .2.2.4.4.4s.4-.2.4-.4v-4.7H14L12.9 91v-4.2l.6-.6.4-.4.4-.4.4-.4h-7l.3.4.4.4z"/></g><path fill="#726A71" d="M23.6 2.7h-1.3V1.4c0-.8-.6-1.4-1.4-1.4H1.4C.6 0 0 .6 0 1.4v19.5c0 .8.6 1.4 1.4 1.4h1.3v1.3c0 .8.6 1.4 1.4 1.4h19.5c.8 0 1.4-.6 1.4-1.4V4.1c0-.8-.6-1.4-1.4-1.4zm.6 3.1V23.6c0 .3-.2.6-.5.6H4.1c-.3 0-.5-.2-.5-.6v-1.3H21c.8 0 1.4-.6 1.4-1.4V3.5h1.3c.3 0 .5.2.5.6V5.8zM.8 20.9V1.4c0-.3.2-.5.5-.5h19.5c.3 0 .5.2.5.5v19.5c0 .3-.2.5-.5.5H1.4c-.3.1-.6-.2-.6-.5z"/><g fill="#726A71"><path d="M18.6 13.1V9.8c.1-.5 0-1.1-.2-1.6-.3-.9-1-1.5-1.8-1.9-.8-.4-1.8-.4-2.6 0-1.3.5-2.1 1.7-2.2 3.1V13.2l-.3.3c-.5-.6-1.2-1.2-1.9-1.5.5-.4.9-.9 1.2-1.5.1-.2.1-.3.2-.5v-.1-.2-.2-.1-.3V9v-.2-.1-.2-.1c0-.1 0-.1-.1-.2v-.1c0-.1-.1-.2-.1-.3-.6-1.4-1.9-2.3-3.4-2.3-.5-.2-1-.1-1.4.1-.1 0-.2.1-.3.1h-.1c-.1 0-.1.1-.2.1 0 0-.1 0-.1.1s-.1.2-.2.2H5c-.1.2-.3.4-.4.5-.1.1-.2.2-.2.3-.3.4-.5.8-.6 1.3 0 .1 0 .2-.1.3v.6c0 .4.1.7.2 1.1.3.7.7 1.2 1.2 1.6-1.9.8-3.1 2.7-3.1 4.8 0 .1.1.3.3.3h17.5c.1 0 .3-.1.3-.3.1-1.4-.5-2.6-1.5-3.5zm-6.3-3.8c0-1.2.7-2.2 1.8-2.6.7-.3 1.5-.3 2.2 0 .7.3 1.3.9 1.5 1.6.2.4.2.9.2 1.4v3c-.3-.2-.7-.4-1.1-.6.4-.3.7-.6.9-1V11v-.1-.1c-.4-.5-1-1.2-1-2 0-.1-.1-.2-.2-.2s-.2 0-.3.1c-1.2 1.6-2.8 2.1-3.7 2.2h-.1c-.1.1-.2.3-.1.4.2.3.5.6.8.8-.4.2-.7.3-1 .6l.1-3.4zm3.8 2.6c-1 .4-2.1.2-2.9-.6.9-.2 2.2-.7 3.2-1.9.2.6.6 1.1.9 1.5-.3.4-.7.8-1.2 1zm-11.8-3v-.4-.1c0-.1 0-.2.1-.3V8c0-.1.1-.2.1-.3 0 0 0-.1.1-.1 0-.1.1-.2.1-.2l.1-.1c.1-.2.2-.3.2-.4l.1-.1c.1-.1.2-.2.3-.2.1-.1.2-.2.3-.2 0 0 .1 0 .1-.1.2-.1.3-.1.4-.2.4-.1.8-.2 1.2-.2 1.3 0 2.4.8 2.9 1.9 0 .1.1.2.1.4v.1c0 .1 0 .2.1.3v.8c-.7-.4-1.2-1.1-1.2-2 0-.1-.1-.2-.2-.2H9c-.1 0-.2 0-.2.1C8 8.5 6.7 9.1 5.4 9.1c-.4 0-.8 0-1.1-.2 0 .1 0 0 0 0zm.2 1.2c-.1-.2-.1-.4-.2-.6.4.1.7.2 1.1.2 1.3 0 2.5-.5 3.3-1.5.3.8.8 1.4 1.6 1.8 0 .1 0 .1-.1.2-.3.7-.8 1.2-1.4 1.5-.1 0-.2.1-.3.1-.1 0-.2.1-.3.1-.1.1-.2.1-.3.1h-.6-.1c-.2 0-.4 0-.5-.1-.1 0-.2-.1-.3-.1h-.1c-.1 0-.2-.1-.3-.1-.7-.3-1.2-.9-1.5-1.6zm1.3 2.1c.1 0 .2.1.3.1.1 0 .2.1.3.1h.1c.1 0 .3 0 .4.1h.4c.2 0 .4 0 .6-.1.1 0 .2 0 .3-.1.1 0 .2-.1.3-.1.1 0 .2-.1.2-.1.9.3 1.6.9 2.2 1.6-.2.3-.4.7-.6 1.1V15.1c0 .1 0 .1-.1.2v1.1H2.7c.1-1.9 1.3-3.5 3.1-4.2zm5 4.2s0-.1 0 0v-.2-.2-.1-.2-.1c0-.1 0-.1.1-.2v-.1c0-.1.1-.2.1-.2V15c.1-.3.3-.6.5-.9.2-.2.3-.4.5-.6.4-.4.9-.7 1.5-.9.9.4 1.9.4 2.7.1.1 0 .1-.1.2-.1 1.7.6 2.8 2.1 2.9 3.9h-8.5z"/><path d="M19.9 17H2.4c-.2 0-.4-.1-.4-.4 0-2 1.2-3.9 3-4.8-.5-.4-.9-.9-1.1-1.5-.2-.3-.3-.7-.3-1.1v-.7c0-.1 0-.2.1-.3.1-.5.3-1 .6-1.3.1-.1.1-.2.2-.3.1-.2.3-.4.5-.5.1-.1.2-.2.3-.2l.1-.1c.1 0 .1-.1.2-.1l.1-.1c.1 0 .2-.1.3-.1.4-.2.9-.3 1.4-.3 1.5 0 2.9.9 3.5 2.4 0 .1.1.2.1.3V8c0 .1 0 .2.1.2V9.8c-.1.2-.1.3-.2.5-.2.5-.6 1-1.1 1.4.7.3 1.2.8 1.7 1.3l.2-.2V9c0-1.5.9-2.7 2.3-3.3.9-.3 1.9-.3 2.7 0 .9.4 1.6 1.1 1.9 2 .2.5.3 1.1.2 1.7v3.3c1 1 1.5 2.3 1.5 3.6 0 .6-.2.7-.4.7zM7.4 5.5c-.4 0-.9.1-1.3.2-.1.1-.2.1-.3.2h-.1c-.1 0-.1.1-.2.1l-.1.1c-.1 0-.1.1-.2.1h-.1c-.1.2-.3.3-.4.5-.1.1-.2.2-.2.3-.3.4-.5.8-.6 1.2v.3h-.1.1v.6c0 .4.1.7.2 1.1.2.6.7 1.1 1.2 1.5l.2.1-.2.2c-1.8.8-3 2.6-3 4.6 0 .1.1.1.1.1h17.5c.1 0 .1-.1.1-.1 0-1.3-.5-2.6-1.5-3.5V9.7c.1-.5 0-1.1-.2-1.6-.3-.8-1-1.5-1.8-1.8-.8-.3-1.7-.4-2.5 0-1.2.5-2.1 1.7-2.1 3v3.9l-.3.3-.1.1-.1-.1c-.5-.6-1.2-1.1-1.9-1.5l-.2-.1.2-.1c.5-.4.9-.9 1.1-1.4.1-.1.1-.3.2-.4v-.1-.1V9.5v-.1-.3V9 8.7 8.4 8.1c0-.1-.1-.2-.1-.3-.6-1.5-1.9-2.3-3.3-2.3zm12.3 11h-9.1v-.2-.1V15.9v-.2-.1c0-.1 0-.1.1-.2v-.1c0-.1.1-.2.1-.3v-.1c.1-.3.3-.6.5-.9.2-.2.3-.4.5-.6.5-.4 1-.7 1.5-.9.8.4 1.8.4 2.6.1.1 0 .1-.1.2-.1 1.7.6 2.9 2.2 3 4h.6zm-8.8-.3h8.6c-.1-1.7-1.2-3.1-2.8-3.6-.1 0-.1 0-.2.1-.9.4-1.9.3-2.8-.1-.5.2-1 .5-1.4.9-.2.2-.4.4-.5.6-.2.3-.4.6-.5.9 0 .1-.1.2-.1.3v.1c0 .1 0 .1-.1.2v.4c-.2.1-.2.1-.2.2zm-.7.3H2.6v-.1c.1-1.9 1.4-3.6 3.2-4.2.1 0 .2.1.3.1v.1-.1c.1 0 .2.1.3.1h.1c.1 0 .3 0 .4.1h.4c.2 0 .4 0 .6-.1.1 0 .2 0 .3-.1l.1.1v-.1c.1 0 .2-.1.3-.1.1 0 .2-.1.3-.1.9.3 1.7.9 2.2 1.6l.1.1-.1.1c-.2.3-.4.7-.6 1.1v.2c0 .1 0 .1-.1.2V16.5h-.2zm-7.4-.3h7.3v-.1-.2-.2-.2-.2c0-.1 0-.1.1-.2V15l.1-.1c.1-.4.3-.7.5-1.1-.5-.7-1.2-1.2-2-1.5-.1 0-.1.1-.2.1s-.2.1-.3.1c-.1 0-.2.1-.3.1-.3 0-.5.1-.7.1H7c-.1 0-.3 0-.4-.1h-.1c-.1 0-.2-.1-.3-.1h-.1c-.1 0-.2-.1-.2-.1-1.8.6-2.9 2.1-3.1 3.8zm9.4-3.3V9.4c0-1.2.8-2.3 1.9-2.8.7-.3 1.6-.3 2.3 0 .7.3 1.3.9 1.6 1.7.2.5.2.9.2 1.4v3.2l-.2-.2c-.3-.2-.7-.4-1.1-.6l-.2-.1.2-.1c.4-.3.7-.6.9-1v-.1-.1c-.4-.5-1-1.2-1-2 0-.1 0-.1-.1-.1s-.1 0-.2.1c-1.2 1.7-2.8 2.2-3.7 2.3h-.1c-.1 0-.1.1 0 .2.2.3.5.6.8.8l.2.1-.2.1c-.4.1-.7.3-1 .6l-.3.1zm.2-1.6v1.1c.2-.1.4-.3.7-.4-.3-.2-.5-.4-.7-.7zm4.8.7c.3.1.5.2.7.4v-1.2c-.1.3-.4.5-.7.8zm-2-5.4c-.4 0-.7.1-1 .2-1 .4-1.7 1.4-1.8 2.5v1.5l.1-.1s.1-.1.2-.1c.8-.1 2.4-.6 3.6-2.2.1-.1.3-.2.4-.2.2 0 .3.2.3.4 0 .7.5 1.4 1 1.9v-.8-.1c0-.4 0-.9-.2-1.3-.3-.7-.8-1.2-1.5-1.5-.3-.1-.7-.2-1.1-.2zm0 5.6c-.7 0-1.5-.3-2-.9l-.2-.1h.2c.9-.2 2.1-.7 3.1-1.9l.1-.2.1.2c.1.5.4 1 .9 1.5l.1.1-.1.1c-.3.5-.8.8-1.3 1.1-.2 0-.6.1-.9.1zm-1.7-.9c.7.6 1.7.8 2.6.4.4-.2.8-.5 1.1-.9-.4-.4-.6-.9-.8-1.3-1 1.1-2.1 1.6-2.9 1.8zm-6.1.9h-.1-.1c-.2 0-.4 0-.5-.1-.3-.1-.4-.1-.5-.1-.1 0-.2-.1-.3-.1-.7-.4-1.2-.9-1.5-1.7-.1-.2-.2-.4-.2-.6v-.2h.2c1.6.4 3.2-.1 4.3-1.3l.2-.2.1.2c.2.8.7 1.4 1.4 1.7h.1v.1c0 .1 0 .1-.1.2-.3.7-.8 1.2-1.5 1.6-.1 0-.2.1-.3.1-.2.2-.3.2-.4.2-.1 0-.2 0-.3.1-.2 0-.4.1-.5.1zm.7-.4l.1.1-.1-.1c.1 0 .2-.1.3-.1.1 0 .2-.1.3-.1.6-.3 1.1-.8 1.3-1.4v-.1c-.6-.4-1.1-1-1.3-1.7C7.6 9.5 6 10 4.5 9.7c0 .1.1.2.1.4.3.7.8 1.2 1.4 1.5.1 0 .2.1.3.1h.1c.1 0 .2.1.3.1.2 0 .3.1.5.1h.7s.1-.1.2-.1zm2.4-2.1l-.2-.1c-.7-.5-1.2-1.2-1.2-2.1 0-.1 0-.1-.1-.1s-.1 0-.2.1c-.8 1.1-2 1.8-3.4 1.8-.4 0-.8-.1-1.2-.2h-.1V9v-.4-.1c0-.1 0-.2.1-.3v-.1c0-.1.1-.2.1-.3 0-.1 0-.1.1-.2 0-.1.1-.2.1-.2l.1-.1c.2-.3.3-.4.4-.5v-.1l.3-.3c.1-.1.2-.2.3-.2 0 0 .1 0 .1-.1.2 0 .4-.1.5-.1.4-.2.8-.2 1.2-.2 1.3 0 2.5.8 3 2 0 .1.1.2.1.4v.1c0 .1 0 .2.1.3v.9l-.1.2zM8.9 7.1H9c.2 0 .3.2.3.4 0 .7.4 1.4 1 1.8v-.2h.1-.1v-.5-.4c0-.1-.1-.2-.1-.3C9.7 6.7 8.6 6 7.4 6c-.4 0-.8.1-1.1.2-.1.1-.3.1-.4.2 0 0-.1 0-.1.1-.1 0-.2.1-.3.2l-.1-.1.1.1c-.1 0-.2.1-.3.2 0 .1 0 .1-.1.1 0 .1-.1.2-.2.3l-.1.1c0 .1-.1.1-.1.2 0 0 0 .1-.1.1 0 .1-.1.2-.1.3v.1c0 .1 0 .2-.1.3v.4c.3.2.7.2 1 .2 1.3 0 2.5-.6 3.2-1.7.1-.1.2-.2.3-.2z"/></g></svg>