<?xml version="1.0" encoding="UTF-8"?>
<!-- Generator: Adobe Illustrator 19.2.1, SVG Export Plug-In . SVG Version: 6.00 Build 0)  -->
<svg version="1.1" id="Capa_1" xmlns="http://www.w3.org/2000/svg" xmlns:xlink="http://www.w3.org/1999/xlink" x="0px" y="0px" width="22.39px" height="126.33px" viewBox="0 0 22.39 126.33" enable-background="new 0 0 22.39 126.33" xml:space="preserve">
<g>
	<path fill="none" stroke="#272425" stroke-miterlimit="10" d="M8.95,11.58v2.37l-4.87,1.81c-1.13,0.4-1.88,1.5-1.88,2.69v1.5h18   v-1.5c0-1.2-0.79-2.29-1.92-2.69l-4.83-1.81V11.4"/>
	<ellipse fill="none" stroke="#272425" stroke-miterlimit="10" cx="11.06" cy="6.5" rx="4.73" ry="5.67"/>
	<path fill="none" stroke="#272425" stroke-miterlimit="10" d="M15.77,6c-0.16,0.02-0.3,0-0.45,0.03c-1.61,0.31-2.64-0.27-3.53-1.82   C11.26,5.23,9.6,6.03,8.23,6.03c-0.67,0-1.25-0.14-1.83-0.44"/>
</g>
<g>
	<circle fill="none" stroke="#272425" stroke-miterlimit="10" cx="11.2" cy="67.16" r="6"/>
	<circle fill="none" stroke="#272425" stroke-miterlimit="10" cx="11.2" cy="67.16" r="0.32"/>
	<line fill="none" stroke="#272425" stroke-linecap="round" stroke-miterlimit="10" x1="11.2" y1="67.47" x2="11.2" y2="70"/>
	<path fill="none" stroke="#272425" stroke-miterlimit="10" d="M15.62,63.1v-4.15c0-2.21-2.22-4.11-4.42-4.11s-4.42,1.89-4.42,4.11   v4.15"/>
</g>
<g>
	<path fill="none" stroke="#FFFFFF" stroke-miterlimit="10" d="M4.65,110h8.73c0.83,0,1.5,0.67,1.5,1.5v8.73   c0,0.83-0.67,1.5-1.5,1.5H4.65c-0.83,0-1.5-0.67-1.5-1.5v-8.73C3.15,110.67,3.83,110,4.65,110z"/>
	<path fill="none" stroke="#4BAA3B" stroke-width="2" stroke-linecap="round" stroke-linejoin="round" stroke-miterlimit="10" d="   M7.12,113.49l4.6,4.18l7.53-9.62"/>
</g>
</svg>