<svg id="Capa_1" xmlns="http://www.w3.org/2000/svg" width="101.2" height="1184.3" viewBox="-428 -312.3 101.2 1184.3"><style>.st0{fill:#f2d7cc}.st1{fill:#dfedea}.st2{fill:#f6f0c8}.st3{fill:#efeeea}.st4{fill:#efd5ca}.st5{fill:#ebf2d7}.st6{fill:#fff}.st7{fill:#211915}.st8{fill:#daefeb}.st9{fill:#010002}.st10{stroke:#000}.st10,.st11,.st12,.st13{fill:none;stroke-width:2;stroke-linecap:round;stroke-linejoin:round;stroke-miterlimit:10}.st11{stroke:#f97855}.st12{stroke:#f4be53}.st13{stroke:#7abc6d}.st14{fill:#f4cca4}.st15,.st16{fill:none;stroke:#000;stroke-linecap:round;stroke-linejoin:round;stroke-miterlimit:10}.st15{opacity:.17;enable-background:new;stroke-width:2}.st16{stroke-width:1.7}.st17{fill:#272425}.st18,.st19{fill:none}.st19{stroke:#000;stroke-width:2;stroke-linecap:round;stroke-miterlimit:10}.st20{fill:#e4a48e}.st21{fill:none;stroke:#272425;stroke-width:2;stroke-miterlimit:10}.st22,.st23{stroke:#000;stroke-linecap:round}.st22{stroke-width:2;stroke-linejoin:round;stroke-miterlimit:10;fill:#e4a48e}.st23{fill:#faf7f2}.st23,.st24,.st25{stroke-width:2;stroke-linejoin:round;stroke-miterlimit:10}.st24{stroke-linecap:round;fill:#fff;stroke:#000}.st25{fill:none;stroke:#272425}</style><circle class="st0" cx="-394.6" cy="582.9" r="2.2"/><circle class="st0" cx="-382.4" cy="571.7" r="2.2"/><circle class="st0" cx="-369.6" cy="576.9" r="2.2"/><circle class="st0" cx="-356.6" cy="561.7" r="2.2"/><path class="st1" d="M-372.4 486.7l15.7 15.6h-18zm-11.1 24v18l-15.7-15.6z"/><path class="st2" d="M-349.3 445.3c.3-.3.5-.6.7-1.1 1-3-.6-7.4-1.6-10.1-.2-.6-6.7 2.6-6.5 3.2 3.3 9.5 5.2 8.4 6.2 8.4h.3l.9-.4zm-21.5-5h.3c1 0 3.2 1.1 6.8-9.1.2-.6-6.9-4.1-7.1-3.5-1.1 2.9-2.9 7.7-1.8 10.8.2.5.4.9.8 1.2l1 .6zm-3.6-72.8c-1.7 0-3.2-.9-4-2.3-1.3 1-3 1.3-4.6.6-1.5-.6-2.6-2.1-2.8-3.7-1.5.4-3.3 0-4.4-1.2s-1.6-2.9-1.2-4.5c-1.6-.2-3-1.2-3.7-2.8-.6-1.5-.4-3.3.6-4.6-1.4-.8-2.3-2.3-2.3-4s.9-3.2 2.3-4c-1-1.3-1.3-3-.6-4.6.6-1.5 2.1-2.6 3.7-2.8-.4-1.5 0-3.3 1.2-4.5s2.9-1.6 4.5-1.2c.2-1.6 1.2-3 2.8-3.7 1.6-.6 3.3-.4 4.6.6.8-1.4 2.3-2.3 4-2.3s3.2.9 4 2.3c1.3-1 3-1.3 4.6-.6 1.6.6 2.6 2.1 2.8 3.7 1.5-.4 3.3 0 4.4 1.2s1.6 2.9 1.2 4.5c1.6.2 3 1.2 3.7 2.8.6 1.5.4 3.3-.6 4.6 1.4.8 2.3 2.3 2.3 4s-.9 3.2-2.3 4c1 1.3 1.3 3 .6 4.6-.6 1.5-2.1 2.6-3.7 2.8.4 1.5 0 3.3-1.2 4.5s-2.9 1.6-4.4 1.2c-.2 1.6-1.2 3-2.8 3.7-1.6.6-3.3.4-4.6-.6-.9 1.3-2.4 2.3-4.1 2.3z"/><path class="st3" d="M-360.2-259.5h-44c-1.7 0-3-1.3-3-3v-27c0-1.7 1.4-3 3-3h44c1.6 0 3 1.4 3 3v27c0 1.6-1.4 3-3 3z"/><path d="M-363.9-296h-44c-1.6 0-3 1.4-3 3v27c0 1.7 1.4 3 3 3h44c1.6 0 3-1.4 3-3v-27c0-1.6-1.3-3-3-3zm-13.7 14.2l14.8-10.9v25.6l-14.8-14.7zm-1.5-1.6l-.7.7-6 4.5-21.3-15.8h42.6l-14.5 10.7-.1-.1zm-29.8 17v-26.4l15.2 11.2-15.2 15.2zm1.5 1.4l15.4-15.4 6.2 4.6 6.6-4.9 15.6 15.6h-.2l-43.6.1z"/><circle class="st4" cx="-357.8" cy="-297.1" r="13.8"/><path d="M-359.7-284.6c-7.6 0-13.8-6.2-13.8-13.8s6.2-13.8 13.8-13.8c7.6 0 13.8 6.2 13.8 13.8 0 7.5-6.2 13.8-13.8 13.8zm0-25.7c-6.5 0-11.8 5.3-11.8 11.8 0 6.5 5.3 11.8 11.8 11.8 6.5 0 11.8-5.3 11.8-11.8 0-6.5-5.3-11.8-11.8-11.8z"/><path d="M-360.2-295.9c.1.1.1.2.1.4s-.1.3-.1.4c-.1.1-.2.2-.4.2s-.3-.1-.4-.2l-1.7-2-1.6 2c-.1.2-.3.2-.4.2-.2 0-.3-.1-.4-.2-.1-.1-.1-.2-.1-.4 0-.1 0-.3.1-.4l1.9-2.2-1.9-2.3c-.1-.1-.1-.2-.1-.4 0-.1.1-.3.2-.4.1-.1.2-.1.4-.1s.3.1.4.2l1.7 2.1 1.7-2.1c.1-.1.2-.2.4-.2s.3.1.4.2c.1.1.2.2.2.3 0 .1 0 .2-.1.4l-1.9 2.2 1.6 2.3zm2.7-4c.6-.3 1.3-.5 2-.5.9 0 1.6.3 2.1.8s.7 1.1.7 1.9c0 1.3-.6 2.1-1.8 2.5-.4.1-.9.2-1.5.2-1 0-1.8-.2-2.6-.7-.2-.1-.2-.2-.2-.4s0-.3.1-.4.2-.2.3-.2.3 0 .4.1c.6.3 1.2.4 1.8.4 1.1 0 1.9-.3 2.2-.9.1-.2.2-.5.2-.8 0-.5-.2-.9-.5-1.2-.3-.3-.7-.4-1.2-.4-.7 0-1.4.2-2 .5-.2.1-.3.1-.5.1s-.3-.1-.5-.2-.2-.3-.2-.5v-.3l.5-3.2c0-.2.1-.3.2-.4.1-.1.3-.2.4-.2h3.9c.1 0 .3 0 .4.1.1.1.1.2.1.4 0 .1-.1.3-.1.4-.1.1-.2.1-.4.1h-3.5l-.3 2.8z"/><path class="st5" d="M-407-191.4h6.6l4-4.3 3.3 7.9 5.1-5.1 3.6 3.7 6.6-8 4.3-4.4v18.9H-407v-8.7"/><path d="M-393.1-186.9h-.2c-.3-.1-.5-.3-.6-.5l-2.7-6.6-3.1 3.3c-.2.2-.4.3-.6.3h-6.5c-.5 0-.9-.4-.9-.9s.4-.9.9-.9h6.2l3.8-4c.2-.2.5-.3.8-.3.3.1.5.3.7.5l2.7 6.6 4.1-4.1c.4-.4.9-.4 1.3 0l3 2.9 5.9-7.2c.3-.4.9-.4 1.2-.1s.4.9.1 1.2l-6.5 8c-.2.2-.4.3-.6.3-.2 0-.5-.1-.7-.3l-3-3-4.5 4.5c-.4.2-.6.3-.8.3z"/><path d="M-373.2-182.7v-17.9c1.3-.3 2.8-1.3 2.8-3.5 0-2.6-2.1-3.6-3.6-3.6h-33.2c-1.5 0-3.6 1-3.6 3.6 0 2.2 1.5 3.2 2.8 3.5v17.9c-1.3.3-2.8 1.3-2.8 3.5 0 2.6 2.1 3.6 3.6 3.6h15.8v1.5l-7.9 5.3c-.4.2-.5.8-.2 1.1.2.4.8.5 1.1.2l7-4.7v4c0 .5.4.8.8.8.5 0 .8-.4.8-.8v-4l7 4.7c.1.1.3.1.5.1.3 0 .5-.1.7-.4.2-.4.1-.9-.2-1.1l-7.9-5.3v-1.5h15.8c1.5 0 3.6-1 3.6-3.6-.1-2-1.6-3.1-2.9-3.4zm-1.7-17.8v17.7h-31.6v-17.7h31.6zm-34.3-3.6c0-1.8 1.6-1.9 1.9-1.9h33.2c.3 0 1.9.1 1.9 1.9 0 1.8-1.6 1.9-1.9 1.9h-33.2c-.3 0-1.9-.1-1.9-1.9zm35.2 26.9h-33.2c-.3 0-1.9-.1-1.9-1.9s1.6-1.9 1.9-1.9h33.2c.3 0 1.9.1 1.9 1.9 0 1.7-1.6 1.9-1.9 1.9z"/><path class="st5" d="M-381.8-208.1l8.7 8.7 9.7-9.5 7 11.1-10.1 9.1-14.1-5.7"/><path class="st6" d="M-380.9-208.1l8.7 8.7 10.8-12.4"/><path d="M-372.2-198.5c-.2 0-.5-.1-.6-.3l-8.7-8.7c-.3-.4-.3-.9 0-1.3.4-.3.9-.3 1.3 0l8 8 10.2-11.7c.3-.4.9-.4 1.2-.1.4.3.4.9.1 1.2l-10.8 12.4c-.2.4-.5.5-.7.5z"/><path class="st6" d="M-345.3-183.2l-8.7-8.7-1.4 1.4-2-2c4.1-5.8 3.5-13.8-1.6-18.8-5.7-5.7-15-5.7-20.7 0-2.8 2.8-4.3 6.4-4.3 10.3 0 3.9 1.5 7.6 4.3 10.4 5.1 5.1 13.1 5.7 18.8 1.6l2 2-1.4 1.4 8.7 8.7c.9.9 2 1.3 3.1 1.3s2.3-.4 3.1-1.3c.8-.8 1.3-2 1.3-3.1.1-1.2-.4-2.3-1.2-3.2zm-24-7.9c-5.4 0-9.8-4.4-9.8-9.8s4.4-9.8 9.8-9.8 9.8 4.4 9.8 9.8-4.4 9.8-9.8 9.8z"/><path class="st6" d="M-348.5-174.1c-1.6 0-3.1-.6-4.2-1.7l-9.8-9.8 1.4-1.4c-6.3 3.8-14.4 2.8-19.7-2.4-3-3.1-4.7-7.1-4.7-11.4 0-4.3 1.7-8.4 4.7-11.4s7.1-4.7 11.4-4.7c4.3 0 8.4 1.7 11.4 4.7 5.3 5.3 6.2 13.4 2.4 19.7l1.4-1.4 9.8 9.8c1.1 1.1 1.8 2.6 1.8 4.2s-.6 3.1-1.8 4.2c-1 1-2.5 1.6-4.1 1.6zm-9.7-11.5l7.6 7.6c1.1 1.1 3.1 1.1 4.2 0 .6-.6.9-1.3.9-2.1s-.3-1.5-.9-2.1l-7.7-7.7-1.4 1.4-3.9-3.9.7-1c3.7-5.2 3.1-12.3-1.4-16.9-2.5-2.5-5.8-3.8-9.3-3.8s-6.8 1.4-9.3 3.8c-2.5 2.5-3.9 5.8-3.9 9.3 0 3.5 1.4 6.8 3.9 9.3 4.5 4.6 11.7 5.1 16.9 1.4l1-.7 3.9 3.9-1.3 1.5zm-11.1-4c-3 0-5.9-1.2-8-3.3-2.1-2.1-3.3-5-3.3-8 0-6.3 5.1-11.3 11.3-11.3 6.3 0 11.4 5.1 11.4 11.3-.1 6.2-5.2 11.3-11.4 11.3zm0-19.6c-4.6 0-8.3 3.7-8.3 8.3 0 2.2.9 4.3 2.4 5.9 1.6 1.6 3.7 2.4 5.9 2.4 4.6 0 8.3-3.7 8.3-8.3 0-4.6-3.7-8.3-8.3-8.3z"/><path class="st2" d="M-358.9-187l-1.4 1.4 8.7 8.7c.9.9 2 1.3 3.1 1.3s2.3-.4 3.1-1.3c.8-.8 1.3-2 1.3-3.1 0-1.2-.5-2.3-1.3-3.1l-8.7-8.7-1.4 1.4"/><path d="M-369.3-190.2c-2.9 0-5.6-1.1-7.6-3.1s-3.1-4.7-3.1-7.6c0-5.9 4.8-10.7 10.7-10.7s10.7 4.8 10.7 10.7c0 2.9-1.1 5.6-3.1 7.6-2.1 2-4.8 3.1-7.6 3.1zm0-19.7c-4.9 0-9 4-9 8.9 0 2.4.9 4.6 2.6 6.3 1.7 1.7 3.9 2.6 6.3 2.6s4.6-.9 6.3-2.6 2.6-3.9 2.6-6.3c.1-4.9-3.9-8.9-8.8-8.9z"/><path d="M-348.5-175.6c-1.1 0-2.3-.4-3.1-1.3l-8.7-8.7 1.4-1.4-2-2c-5.8 4.1-13.8 3.5-18.8-1.6-2.8-2.8-4.3-6.4-4.3-10.3 0-3.9 1.5-7.6 4.3-10.4 5.7-5.7 15-5.7 20.7 0 5.1 5.1 5.7 13.1 1.6 18.8l2 2 1.4-1.4 8.7 8.7c.8.8 1.3 2 1.3 3.1 0 1.2-.5 2.3-1.3 3.1-.9 1-2 1.4-3.2 1.4zm-9.6-10l7.6 7.6c1.1 1.1 3 1.1 4.1 0 .5-.6.9-1.3.9-2.1s-.3-1.5-.9-2.1l-7.6-7.6-1.4 1.4-4-4 .4-.5c4.1-5.2 3.6-12.7-1-17.3-5.1-5.1-13.4-5.1-18.5 0-2.5 2.5-3.8 5.8-3.8 9.3s1.4 6.8 3.8 9.3c4.7 4.7 12.1 5.1 17.3 1l.5-.4 2.9 2.9.6-.6 1.1 1.1-2 2z"/><path d="M-348.5-178.3c-.3 0-.8-.1-1.2-.5l-1.9-1.9 1.1-1.1 2 1.9h.2l1.1 1.1c-.5.4-1 .5-1.3.5z"/><path class="st3" d="M-369.3-74.7c0 .5-.4.9-.9.9h-35c-.5 0-.9-.4-.9-.9v-45.1c0-.5.4-.9.9-.9h35c.5 0 .9.4.9.9v45.1z"/><path class="st6" d="M-378-110h-21.7c-.5 0-.9-.4-.9-.9s.4-.9.9-.9h21.7c.5 0 .9.4.9.9s-.4.9-.9.9zm0 5h-21.7c-.5 0-.9-.4-.9-.9s.4-.9.9-.9h21.7c.5 0 .9.4.9.9s-.4.9-.9.9zm-8.4 5.1h-13.3c-.5 0-.9-.4-.9-.9s.4-.9.9-.9h13.3c.5 0 .9.4.9.9s-.4.9-.9.9z"/><path class="st7" d="M-371.3-76.4c0 .5-.4.9-.9.9h-35.9c-.5 0-.9-.4-.9-.9v-46.4c0-.5.4-.9.9-.9h35.9c.5 0 .9.4.9.9v46.4zm7.6-16c.3-.7 1.1-1.1 1.9-.8.7.3 1.1 1.1.8 1.9-.2.4-.5.7-.8.8l-1.6 3.8c1.4-1.1 2.9-2 4.2-2.6l1-4.8-5.5-2.3-2.6 4.1c.5 1.4 1 3.1 1.2 4.8l1.6-3.8c-.3-.2-.4-.7-.2-1.1zm17.5-22.9l-8.9 21.5c-.1.2-.3.4-.5.5-.1.1-.2.1-.3.1s-.2 0-.4-.1l-.1-.1-1.1 4.9c-.1.3-.3.6-.6.7-2.4.9-5.8 3.3-7.4 5.8-.2.3-.5.4-.8.4-.1 0-.2 0-.4-.1-.4-.2-.6-.6-.5-1.1.7-2.9-.1-7-1.1-9.3-.1-.3-.1-.6.1-.9l2.7-4.2-.1-.1c-.5-.2-.7-.7-.5-1.2l8.9-21.5c1-2.3 3.1-3.8 5.6-3.8.8 0 1.5.1 2.2.4 3 1.5 4.5 5 3.2 8.1zm-8.8-4.6l7.4 3.1c.3-1.9-.6-3.8-2.4-4.6-.5-.2-1-.3-1.5-.3-1.5 0-2.8.7-3.5 1.8zm6.7 4.8l-7.6-3.1-8.2 19.8.3.1 7 2.9.3.1 8.2-19.8zm-24.9 37.8v-44.5h-34.1v44.5h34.1zm-5.9-34.4h-21.7c-.5 0-.9-.4-.9-.9s.4-.9.9-.9h21.7c.5 0 .9.4.9.9s-.4.9-.9.9zm0 5.1h-21.7c-.5 0-.9-.4-.9-.9s.4-.9.9-.9h21.7c.5 0 .9.4.9.9s-.4.9-.9.9zm-8.4 5h-13.3c-.5 0-.9-.4-.9-.9s.4-.9.9-.9h13.3c.5 0 .9.4.9.9s-.4.9-.9.9z"/><path class="st6" d="M-398-81.6c-.5 0-1-.4-1-.9 0-.6.4-1 .9-1.1.8-.1 3-1.1 5.4-2.4-.1-1.5.1-3.1.6-4.5 1-2.7 2.7-4.4 4.7-4.7.9-.1 1.7.4 2.1 1.4.7 1.7.5 4.5-1.1 5.9-1 .8-2.5 1.9-4.1 2.9.1.4.3.7.5 1 .3-.1.8-.3 1.1-.4 1.8-.9 3.2-2.5 4.4-3.9.2-.3.6-.4 1-.3 1.1.3 1.4 1.3 1.7 2l.2.4s.1-.1.2-.1c.1-.1.2-.2.3-.2 1.5-1 3.4-.3 4.4.1.5.2.8.8.6 1.3-.2.5-.8.8-1.3.6-1-.4-2-.7-2.6-.3-.1.1-.1.1-.2.1-.3.2-.7.6-1.3.6-1 .1-1.7-.6-2.2-1.8v-.1c-1.2 1.3-2.6 2.7-4.3 3.5-.9.4-2.3 1.1-3.2.2-.4-.4-.8-1-1-1.6-2.4 1.2-4.7 2.2-5.8 2.3zm10.7-11.6c-1.2.2-2.3 1.4-2.9 3.3-.3.9-.5 1.8-.5 2.7 1.2-.8 2.3-1.5 3-2.2.5-.4.8-1.4.8-2.4-.1-.8-.3-1.2-.4-1.4z"/><path class="st8" d="M-348.3-115.1l-7.5-3.1-8.2 19.8.2.1 7 2.9.3.1 8.2-19.8"/><path class="st9" d="M-398.9-83c-.5 0-1-.4-1-.9 0-.6.4-1 .9-1.1.8-.1 3-1.1 5.4-2.4-.1-1.5.1-3.1.6-4.5 1-2.7 2.7-4.4 4.7-4.7.9-.1 1.6.4 2.1 1.4.7 1.7.5 4.5-1.1 5.9-1 .8-2.5 1.9-4.1 2.9.1.4.3.7.5 1 .3-.1.8-.3 1.1-.4 1.8-.9 3.2-2.5 4.4-3.9.2-.3.6-.4 1-.3 1.1.3 1.5 1.3 1.7 2l.2.4c.1 0 .1-.1.2-.1.1-.1.2-.2.3-.2 1.5-1 3.5-.3 4.4.1.5.2.8.8.6 1.3-.2.5-.8.8-1.3.6-1-.4-2-.7-2.6-.3-.1.1-.1.1-.2.1-.3.2-.7.6-1.3.6-.9 0-1.7-.6-2.2-1.8v-.1c-1.2 1.3-2.6 2.7-4.3 3.5-.9.4-2.3 1.1-3.2.2-.5-.4-.8-1-1-1.6-2.3 1.2-4.6 2.2-5.8 2.3zm10.7-11.5c-1.2.2-2.3 1.4-3 3.3-.3.9-.5 1.8-.5 2.7 1.2-.8 2.3-1.5 3.1-2.2.5-.4.8-1.4.8-2.4 0-.8-.3-1.3-.4-1.4z"/><path class="st10" d="M-376.1 13.8h-28.3c-2.8 0-5-2.2-5-5v-34c0-2.8 2.2-5 5-5h48c2.8 0 5 2.2 5 5v16m-58-11h58"/><circle class="st11" cx="-402.4" cy="-25.2" r="1"/><circle class="st12" cx="-396.4" cy="-25.2" r="1"/><circle class="st13" cx="-390.4" cy="-25.2" r="1"/><path class="st14" d="M-369.4-3.3c1.1-.7 2.6-.4 3.3.8l3.4 5.5c.1-.6.5-1.2 1.1-1.5 1-.6 2.4-.4 3.1.5 0-.8.4-1.5 1.1-1.9 1-.6 2.4-.4 3.1.5.1-.8.5-1.5 1.1-1.9 1.1-.7 2.7-.4 3.3.8L-345 8c3.8 7-3.6 15.9-11 12.4l-12.9-6.1c-1.2-.6-1.7-2-1.1-3.2 1.1-.7 3.5-1 4.7-.4l2.4 1.1-7.3-11.8c-.7-1.1-.3-2.6.8-3.3z"/><path class="st10" d="M-371.4-5.3c1.1-.7 2.6-.4 3.3.8l3.4 5.5c.1-.6.5-1.2 1.1-1.5 1-.6 2.4-.4 3.1.5 0-.8.4-1.5 1.1-1.9 1-.6 2.4-.4 3.1.5 0-.8.4-1.5 1.1-1.9 1.1-.7 2.7-.4 3.3.8l4.7 8.6c3.8 7-3.5 15.9-11 12.4l-12.9-6.1c-1.2-.6-1.7-2-1.1-3.2 1.1-.7 3.5-1 4.7-.4l2.4 1.1-7.1-11.9c-.7-1.1-.3-2.6.8-3.3z"/><path class="st15" d="M-372.8 2.9c-2.7-1-4.7-3.6-4.7-6.6 0-3.9 3.1-7 7-7 3.5 0 6.4 2.6 6.9 5.9"/><path class="st15" d="M-375.6 7.4c-4.2-2-7.1-6.2-7.1-11.1 0-6.8 5.5-12.3 12.3-12.3 5.7 0 10.5 3.9 11.9 9.1"/><path class="st10" d="M-403.4-12.5h15.3m-15.3 6h12.3m-12.3 6h13.2"/><path class="st6" d="M-377.4 64.8c-9.4 0-17 7.6-17 17s7.6 17 17 17c6.2 0 8.4-2.3 9.2-4.2.7-1.6.4-3.3 0-4.1l.5-.5c.5-.5.9-1.2.9-2s-.2-1.4-.7-2l-2.2-2.2c-1-1-2.8-1-3.9.2l-.5.5c-2.1-1.8-4.2-3.8-6-6l.5-.5c.5-.5.9-1.2.9-2s-.2-1.4-.7-2l-2.2-2.2c-.5-.5-1.2-.8-2-.7-.7 0-1.4.4-2 .9l-1.4 1.4c-1.3 1.4-1.6 3.4-.7 4.9 3.5 5.5 8.2 10.2 13.7 13.7.6.4 1.2.5 1.9.5 1 0 2.1-.4 2.9-1.2.2.7.3 1.8-.3 3-1 2.2-3.8 3.3-8.1 3.3-8.7 0-15.8-7.1-15.8-15.8 0-8.7 7.1-15.8 15.8-15.8 8.7 0 15.8 7.1 15.8 15.8 0 3.2-1 6.3-2.8 9-.2.3-.1.6.1.8.3.2.6.1.8-.1 1.9-2.8 3-6.1 3-9.6.2-9.5-7.4-17.1-16.7-17.1zm4.2 26.2c-5.4-3.4-10-8-13.4-13.4-.7-1-.4-2.5.6-3.5l1.3-1.4c.3-.3.8-.5 1.2-.6h.1c.4 0 .7.1 1 .4l2.2 2.2c.3.3.4.7.4 1.1 0 .5-.2.9-.6 1.2l-.8.8c-.2.2-.2.5 0 .8 2 2.5 4.4 4.9 6.9 6.9.2.2.6.2.8 0l.8-.8c.7-.7 1.7-.8 2.3-.2l2.2 2.2c.3.3.4.7.4 1.1 0 .5-.2.9-.6 1.2l-1.3 1.4c-1.1 1-2.5 1.2-3.5.6z"/><g><path class="st0" d="M-368.2 171.1h12.4v22.7h-12.4z"/><path class="st1" d="M-395 171.1h20.6v14.4H-395z"/><path class="st16" d="M-352.2 163.5v28.3h-51.2v-28"/><path class="st16" d="M-397 169.1h20.6v14.4H-397zm26.8 0h12.4v22.7h-12.4zm22.7-15.6l-6.2-10.3h-47.4l-6.2 10.3m59.8 2.1c0 4.3-3.9 8.2-8.2 8.2-2.1 0-4.8-.7-6.2-2.1-1.8 2.9-4.5 4.1-8.2 4.1-3.1 0-6.3-.9-8.2-3.1-1.9 2.2-4.1 3.1-7.2 3.1-3.7 0-5.4-1.2-7.2-4.1-1.4 1.4-5.1 2.1-7.2 2.1-4.3 0-7.2-3.9-7.2-8.2v-2.1h59.8c-.2 0-.2 2.1-.2 2.1z"/><path class="st16" d="M-392.9 161.8v-8.3l3.1-10.3m11.3 19.6v-19.6m16.5 18.6v-8.3l-3-10.3"/><path d="M-362 180.5c-.6 0-1 .5-1 1s.5 1 1 1c.6 0 1-.5 1-1 .1-.6-.4-1-1-1z"/></g><g><path class="st2" d="M-352.8 293.6c-.1 0-.2 0-.4-.1l-7.6-4-7.6 4c-.3.1-.6.1-.8-.1s-.4-.5-.3-.8l1.5-8.5-6.2-6c-.2-.2-.3-.5-.2-.8s.3-.5.6-.5l8.5-1.2 3.8-7.7c.3-.5 1.2-.5 1.4 0l3.8 7.7 8.5 1.2c.3 0 .6.2.6.5s0 .6-.2.8l-6.2 6 1.5 8.5c.1.3-.1.6-.3.8 0 .2-.2.2-.4.2z"/><path d="M-398.6 270.3c-.4 0-.8-.4-.8-.8l.1-16.3v-.2c.1-5.8 3.7-10.9 9-13 7.3-2.9 15.6.7 18.5 8 .9 2.1 1.2 4.5.9 6.8v14.7c0 .4-.4.8-.8.8s-.8-.4-.8-.8V254.6c.2-2-.1-4-.8-6-2.6-6.5-10-9.7-16.5-7.1-4.8 1.9-7.9 6.4-8 11.5v.2l-.1 16.3c.1.5-.2.8-.7.8z"/><path d="M-405 285c-.4 0-.8-.4-.8-.8 0-9 5.8-17 14.3-19.7.2-.1.4 0 .6 0 3.3 1.7 7.1 1.9 10.5.5.4-.1.7-.3 1.1-.5.2-.1.4-.1.6 0 3.5 1.2 6.7 3.2 9.1 6 .3.3.3.8-.1 1.1-.3.3-.8.3-1.1-.1-2.2-2.5-5-4.4-8.1-5.5-.3.2-.6.3-1 .4-3.7 1.5-7.9 1.3-11.5-.4-7.8 2.7-12.9 9.9-12.9 18.1.1.5-.3.9-.7.9z"/><path d="M-405 285c-.4 0-.8-.4-.8-.8 0-9 5.8-17 14.3-19.7.2-.1.4 0 .6 0 3.3 1.7 7.1 1.9 10.5.5.4-.1.7-.3 1.1-.5.4-.2.9 0 1.1.3.2.4.1.9-.3 1.1-.4.2-.9.4-1.3.6-3.7 1.5-7.9 1.3-11.5-.4-7.8 2.7-12.9 9.9-12.9 18.1 0 .4-.4.8-.8.8z"/><path d="M-385 267.6c-7 0-10.6-5.4-10.8-5.7s-.2-.5-.1-.8c.1-.2.3-.4.6-.5 3.8-.6 10.8-2.6 15.8-9.8.2-.3.5-.4.9-.3.3.1.6.4.6.7.2 3.5 2.5 6.6 4.4 8.7.1.2.2.3.2.5-.1.9-4 7.2-11.6 7.2zm-8.7-5.6c1.3 1.4 4.3 4 8.7 4 5.9 0 9-4.1 9.8-5.3-1.6-1.8-3.4-4.4-4.1-7.3-4.7 5.6-10.6 7.8-14.4 8.6z"/><path d="M-378 261c-.3 0-.6-.2-.7-.4-.3-.7-1-1-1.7-1s-1.4.4-1.7 1c-.2.4-.7.5-1.1.4-.4-.2-.6-.7-.4-1.1.6-1.2 1.8-1.9 3.1-1.9s2.5.7 3.1 1.9c.2.4 0 .9-.4 1.1 0-.1-.1 0-.2 0zM-377.1 285H-405c-.4 0-.8-.4-.8-.8 0-6.8 3.4-13.2 9-17.1.3-.2.7-.2.9 0 4.9 3.8 11.5 4.8 17.3 2.5 1.5-.6 3-1.4 4.3-2.5.3-.2.7-.2.9 0 1.1.8 2.2 1.7 3.2 2.7.3.3.3.8 0 1.1-.3.3-.8.3-1.1 0-.8-.8-1.6-1.5-2.5-2.2-1.3 1-2.7 1.7-4.2 2.3-6.1 2.4-13.1 1.5-18.4-2.3-4.7 3.5-7.6 8.8-7.8 14.6h27.1c.4 0 .8.4.8.8 0 .5-.3.9-.8.9z"/><path d="M-354.8 292.6c-.1 0-.2 0-.4-.1l-7.6-4-7.6 4c-.3.1-.6.1-.8-.1s-.4-.5-.3-.8l1.5-8.5-6.2-6c-.2-.2-.3-.5-.2-.8s.3-.5.6-.5l8.5-1.2 3.8-7.7c.3-.5 1.2-.5 1.4 0l3.8 7.7 8.5 1.2c.3 0 .6.2.6.5s0 .6-.2.8l-6.2 6 1.5 8.5c.1.3-.1.6-.3.8 0 .2-.2.2-.4.2zm-19.2-15.5l5.3 5.2c.2.2.3.5.2.7l-1.2 7.3 6.6-3.5c.2-.1.5-.1.7 0l6.6 3.5-1.3-7.3c0-.3 0-.5.2-.7l5.3-5.2-7.4-1.1c-.3 0-.5-.2-.6-.4l-3.3-6.7-3.3 6.7c-.1.2-.3.4-.6.4l-7.2 1.1z"/></g><g><path class="st17" d="M-377.4 365.5c-1.7 0-3.2-.9-4-2.3-1.3 1-3 1.3-4.6.6-1.5-.6-2.6-2.1-2.8-3.7-1.5.4-3.3 0-4.4-1.2s-1.6-2.9-1.2-4.5c-1.6-.2-3-1.2-3.7-2.8-.6-1.5-.4-3.3.6-4.6-1.4-.8-2.3-2.3-2.3-4s.9-3.2 2.3-4c-1-1.3-1.3-3-.6-4.6.6-1.5 2.1-2.6 3.7-2.8-.4-1.5 0-3.3 1.2-4.5s2.9-1.6 4.5-1.2c.2-1.6 1.2-3 2.8-3.7 1.6-.6 3.3-.4 4.6.6.8-1.4 2.3-2.3 4-2.3s3.2.9 4 2.3c1.3-1 3-1.3 4.6-.6 1.6.6 2.6 2.1 2.8 3.7 1.5-.4 3.3 0 4.4 1.2s1.6 2.9 1.2 4.5c1.6.2 3 1.2 3.7 2.8.6 1.5.4 3.3-.6 4.6 1.4.8 2.3 2.3 2.3 4s-.9 3.2-2.3 4c1 1.3 1.3 3 .6 4.6-.6 1.5-2.1 2.6-3.7 2.8.4 1.5 0 3.3-1.2 4.5s-2.9 1.6-4.4 1.2c-.2 1.6-1.2 3-2.8 3.7-1.6.6-3.3.4-4.6-.6-.9 1.3-2.4 2.3-4.1 2.3zm-3.7-4.8h.2c.3.1.6.3.7.7.2 1.4 1.4 2.4 2.8 2.4s2.6-1 2.8-2.4c.1-.3.3-.6.7-.7.3-.1.7.1.9.4.8 1.2 2.2 1.6 3.5 1.1 1.3-.5 2-1.9 1.7-3.3-.1-.3.1-.7.4-.9.3-.2.7-.2 1 0 1.1.8 2.7.7 3.7-.3s1.1-2.5.3-3.7c-.2-.3-.2-.7 0-1 .2-.3.5-.4.9-.4 1.3.3 2.7-.4 3.3-1.7.5-1.3.1-2.8-1.1-3.5-.3-.2-.4-.5-.4-.9.1-.3.3-.6.7-.7 1.4-.2 2.4-1.4 2.4-2.8s-1-2.6-2.4-2.8c-.3-.1-.6-.3-.7-.7-.1-.3.1-.7.4-.9 1.2-.8 1.6-2.2 1.1-3.5-.5-1.3-1.9-2-3.3-1.7-.3.1-.7-.1-.9-.4s-.2-.7 0-1c.8-1.1.6-2.7-.3-3.7-1-1-2.5-1.1-3.7-.3-.3.2-.7.2-.9 0-.3-.2-.4-.5-.4-.9.3-1.4-.4-2.7-1.7-3.3-1.3-.5-2.8-.1-3.5 1.1-.2.3-.5.4-.9.4-.3-.1-.6-.3-.7-.7-.2-1.4-1.4-2.4-2.8-2.4s-2.6 1-2.8 2.4c-.1.3-.3.6-.7.7-.3.1-.7-.1-.9-.4-.8-1.2-2.2-1.6-3.5-1.1-1.3.5-2 1.9-1.7 3.3.1.3-.1.7-.4.9s-.7.2-1 0c-1.1-.8-2.7-.6-3.7.3-1 1-1.1 2.5-.3 3.7.2.3.2.7 0 1-.2.3-.5.4-.9.4-1.4-.3-2.7.4-3.3 1.7-.5 1.3-.1 2.8 1.1 3.5.3.2.4.5.4.9-.1.3-.3.6-.7.7-1.4.2-2.4 1.4-2.4 2.8s1 2.6 2.4 2.8c.3.1.6.3.7.7.1.3-.1.7-.4.9-1.2.8-1.6 2.2-1.1 3.5s1.9 2 3.3 1.7c.3-.1.7.1.9.4s.2.7 0 1c-.8 1.2-.6 2.7.3 3.7 1 1 2.5 1.1 3.7.3.3-.2.7-.2 1 0 .3.2.4.5.4.9-.3 1.4.4 2.7 1.7 3.3s2.8.1 3.5-1.1c.1-.2.3-.4.6-.4z"/><path transform="rotate(134.999 -377.435 343.144)" class="st17" d="M-388 342.3h21.1v1.7H-388z"/><path class="st17" d="M-383 341.2c-2 0-3.6-1.6-3.6-3.7s1.6-3.7 3.6-3.7 3.6 1.6 3.6 3.7-1.6 3.7-3.6 3.7zm0-5.6c-1.1 0-2 .9-2 2s.9 2 2 2 2-.9 2-2-1-2-2-2zm11.2 16.8c-2 0-3.6-1.6-3.6-3.7s1.6-3.7 3.6-3.7 3.7 1.6 3.7 3.7c-.1 2.1-1.7 3.7-3.7 3.7zm0-5.6c-1.1 0-2 .9-2 2s.9 2 2 2 2-.9 2-2c-.1-1.1-1-2-2-2z"/></g><g><path d="M-351.5 394c-.2-.3-.7-.4-1.1-.2-15.2 10.6-34.6 20.4-47.2 26.5h-.1l-.3.2c-7.6 3.6-12.7 5.8-12.8 5.8-.4.2-.6.6-.4 1 .1.3.4.5.7.5.1 0 .2 0 .3-.1.1 0 1.8-.8 4.8-2.1l8.8 6.4c.1.1.3.1.4.1.1 0 .3 0 .4-.1.3-.2.4-.4.4-.7l-1.1-9.8c.9-.4 1.9-.9 2.8-1.4l8.5 6.2c.1.1.3.1.4.1.1 0 .3 0 .4-.1.3-.2.4-.4.4-.7l-1.1-9.8c.9-.5 1.8-.9 2.7-1.4l7.9 5.7c.1.1.3.1.4.1.1 0 .3 0 .4-.1.3-.2.4-.4.4-.7l-1-9.3c.9-.5 1.9-1 2.8-1.6l8.1 5.8c.1.1.3.1.4.1.1 0 .3 0 .4-.1.3-.2.4-.4.4-.7l-1.1-9.8c.7-.4 1.4-.9 2.1-1.3l-.1.2 8.6 5.6c.1.1.3.1.4.1.1 0 .3 0 .4-.1.2-.2.4-.4.4-.7l-1.2-10.4c1.1-.8 2.2-1.5 3.3-2.3.3-.1.4-.5.1-.9zm-54.2 31l5.6-2.9.9 7.6-6.5-4.7zm17.8-1l-6.5-4.7c1.8-.9 3.7-1.8 5.6-2.8l.9 7.5zm10.7-6.1l-5.9-4.3 5.1-2.7.8 7zm11-5.7l-6.1-4.4c1.8-1 3.5-2 5.2-3l.9 7.4zm10.7-5.9l-6.7-4.3c2-1.2 3.9-2.4 5.8-3.7l.9 8zm-5.8 18.3l-8.2-3.5c-.7-.3-1.6 0-1.9.8-1.7 3.9-5.6 13.5-3.8 17.8.3.7.7 1.3 1.2 1.7l-3.8 8.9c-1.7-.5-3.5-.5-5.2.2-.3.1-.6.5-.6.8 0 .4.2.7.5.8l8.9 3.8.2.1h.1c.3 0 .6-.2.7-.4.2-.2.2-.5.1-.8-.7-1.7-1.9-3-3.5-3.9l3.8-8.9c.2 0 .4.1.6.1 4.8 0 9.7-10.8 11.6-15.5.4-.9 0-1.7-.7-2zm-13.8 29.2l-5.8-2.5c1.1-.1 2.2 0 3.2.5 1 .4 1.9 1.1 2.6 2zm3-13.3c-.2 0-.5 0-.7-.2-.5-.2-.9-.6-1.1-1.2-.9-2.3.2-7.1 1.9-11.9l8.1 3.4c-2.6 5.3-5.8 9.9-8.2 9.9zm8.7-11.2l-8.2-3.5c.5-1.2.9-2.3 1.4-3.5l8.2 3.5c-.3 1.3-.8 2.4-1.4 3.5zm21.4 24.6c-1.4-.6-3-.6-4.4-.2l-3.1-7.3c.4-.3.8-.8 1-1.4 1.5-3.7-1.8-11.8-3.2-15.1-.3-.7-1.2-1.1-1.9-.8l-6.8 2.9c-.8.3-1.1 1.2-.8 1.9 4.8 11.8 8.6 13.1 9.9 13.1h.4l3.1 7.3c-1.3.7-2.3 1.9-2.9 3.3-.1.3-.1.6.1.8s.4.4.7.4h.2l7.7-3.2c.3-.1.5-.5.5-.8s-.1-.7-.5-.9zm-11-23.4c.4.9.8 1.8 1.1 2.7l-6.7 2.8-1.2-2.7 6.8-2.8zm-5 6.9l6.6-2.8c1.4 4 2.3 8 1.6 9.9-.2.5-.5.8-.9 1-.2.1-.4.1-.6.1-1.9-.1-4.5-3.9-6.7-8.2zm9.7 19.3c.5-.6 1.1-1 1.9-1.3.6-.3 1.3-.4 2-.4h.2l-4.1 1.7z"/></g><g><path d="M-353.9 500.8l-16.5-16.5c-1-1-2.6-1-3.7 0l-26.9 26.9c-1 1-1 2.7 0 3.7l16.5 16.5c1 1 2.7 1 3.7 0l26.9-26.9c1-1.1 1-2.7 0-3.7zm-17.6-15.1l15.7 15.7h-18l2.3-15.7zm-12 44.2l-16.1-16.1 16.1-2.4v18.5zm-15.8-17.9l26-26-2.3 15.4h-.1v.8l-1 6.4-22.6 3.4zm44.2-8.8l-26.6 26.6v-18.7l6.6-1 1.1-7h19.1c-.1 0-.2.1-.2.1zm-6.6 17.7l-1.2-1.2-6.7 6.7 6.7 6.7 1.2-1.2-4.6-4.6h13.1v-1.7h-13.1l4.6-4.7z"/></g><g><path d="M-353.3 606.2h-2.5v-30.8c0-.5-.4-.8-.8-.8h-6.7c-.5 0-.8.4-.8.8v30.8h-3.3v-15.8c0-.5-.4-.8-.8-.8h-6.7c-.5 0-.8.4-.8.8v15.8h-3.3v-20.8c0-.5-.4-.8-.8-.8h-6.7c-.5 0-.8.4-.8.8v20.8h-3.3V597c0-.5-.4-.8-.8-.8h-6.7c-.5 0-.8.4-.8.8v9.2h-2.5c-.5 0-.8.4-.8.8s.4.8.8.8h48.4c.5 0 .8-.4.8-.8-.2-.4-.6-.8-1.1-.8zm-44.1 0v-8.3h5v8.3h-5zm11.6 0v-20h5v20h-5zm11.7 0v-15h5v15h-5zm11.7 0v-30h5v30h-5z"/><path d="M-358.3 557.9c-1.8 0-3.3 1.5-3.3 3.3 0 .7.2 1.4.6 1.9l-8.4 10.1c-.4-.2-.9-.3-1.4-.3-1.1 0-2.1.5-2.7 1.4l-6.5-2.6v-.4c0-1.8-1.5-3.3-3.3-3.3s-3.3 1.5-3.3 3.3c0 .5.1 1 .4 1.5l-7.6 6.6c-.5-.4-1.2-.6-1.9-.6-1.8 0-3.3 1.5-3.3 3.3s1.5 3.3 3.3 3.3 3.3-1.5 3.3-3.3c0-.5-.1-1-.4-1.5l7.6-6.6c.5.4 1.2.6 1.9.6 1.1 0 2.1-.5 2.7-1.4l6.5 2.6v.4c0 1.8 1.5 3.3 3.3 3.3s3.3-1.5 3.3-3.3c0-.7-.2-1.4-.6-1.9l8.4-10.1c.4.2.9.3 1.4.3 1.8 0 3.3-1.5 3.3-3.3s-1.4-3.3-3.3-3.3zm-37.5 25.8c-.9 0-1.7-.8-1.7-1.7s.8-1.7 1.7-1.7c.5 0 1 .2 1.2.6.2.3.4.7.4 1.1.1.9-.6 1.7-1.6 1.7zm12.5-10.8c-.9 0-1.7-.8-1.7-1.7s.8-1.7 1.7-1.7c.9 0 1.7.8 1.7 1.7s-.7 1.7-1.7 1.7zm12.5 5c-.9 0-1.7-.8-1.7-1.7s.8-1.7 1.7-1.7c.4 0 .8.2 1.1.4.4.3.6.8.6 1.3 0 .9-.7 1.7-1.7 1.7zm12.5-15c-.9 0-1.7-.8-1.7-1.7s.8-1.7 1.7-1.7c.9 0 1.7.8 1.7 1.7s-.7 1.7-1.7 1.7z"/></g><g><path class="st6" d="M-375.3 691.9h-24c-2.8 0-5-2.2-5-5v-48c0-2.8 2.2-5 5-5h24c2.8 0 5 2.2 5 5v34.5"/><path class="st3" d="M-404.3 644.8h33.9V681h-33.9z"/><path class="st18" d="M-404.3 643.9h34m-34 38h24m-14-42h14"/><circle class="st6" cx="-387.3" cy="686.9" r="2"/><path class="st14" d="M-348.1 700.4l-9.8-11.8V671c0-6.3-5.2-11.7-12.4-17.8v21.6l-5.3-5.3c-1.5-1.5-4.4-1.5-5.9 0s-1.5 4.4 0 5.9l8.9 11.8v3c0 4.4 5.4 10.3 5.4 10.3l19.1-.1z"/><path class="st19" d="M-377.8 690.6h-24c-2.8 0-5-2.2-5-5v-48c0-2.8 2.2-5 5-5h24c2.8 0 5 2.2 5 5v34.5m-34-29.5h34m-34 38h24m-14-42h14"/><circle class="st19" cx="-389.8" cy="685.6" r="2"/><path class="st19" d="M-350.6 699.1l-9.8-11.8v-17.7c0-6.3-5.2-11.7-12.4-17.8l-.1 20.2m3.7 5l-8.9-8.8c-1.5-1.5-4.4-1.5-5.9 0s-1.5 4.4 0 5.9l8.9 11.8v3c0 4.4 5.4 10.3 5.4 10.3M-384.2 656.6v1.2c0 1.9-1.5 3.4-3.4 3.4h-3.5c-1.9 0-3.4-1.5-3.4-3.4v-3.2c0-1.9 1.5-3.4 3.4-3.4h1.5"/><circle class="st20" cx="-383.6" cy="651.4" r="3.3"/></g><g><path class="st21" d="M-370.7 748.5h3v6l5-6h6c6.3 0 11-4.4 11-10.7s-5.1-11.3-11.4-11.3h-15.1c-6.3 0-11.3 5.1-11.3 11.3"/><path class="st17" d="M-356.7 737.5h-2v2h2zm-6 0h-2v2h2zm-6 0h-2v2h2z"/><path class="st22" d="M-375.6 772.2v-14.8c.2-2.1 0-4.3-.9-6.4-2.8-7-10.6-10.4-17.6-7.6-5.2 2.1-8.4 7-8.5 12.3v.7l-.1 15.9"/><path class="st23" d="M-382.9 767.9l-1.2.6c-3.8 1.5-7.9 1.2-11.2-.6-8 2.6-13.9 10.2-13.9 19.1h40.1c0-8.9-5.8-16.4-13.8-19.1z"/><path class="st23" d="M-382.9 767.9l-1.2.6c-3.8 1.5-7.9 1.2-11.2-.6-8 2.6-13.9 10.2-13.9 19.1h40.1c0-8.9-5.8-16.4-13.8-19.1z"/><path class="st23" d="M-378.3 763.2c-2-2.2-4.4-5.5-4.6-9.2-5.2 7.5-12.7 9.6-16.4 10.2 0 0 3.5 5.3 10.2 5.3 7.5 0 10.8-6.1 10.8-6.3z"/><path class="st10" d="M-386.8 762.8c.4-.9 1.4-1.5 2.4-1.5s2 .6 2.4 1.5"/><path class="st24" d="M-377.8 770.5c-1.3 1-2.8 1.9-4.5 2.6a18.5 18.5 0 0 1-18.2-2.6c-5.3 3.6-8.7 9.7-8.7 16.5h40.1c0-6.9-3.4-12.9-8.7-16.5z"/></g><g><path class="st2" d="M-376.4 815l3 10h9l-7 6 4 9-9-6-9 6 4-9.1-7-5.9h9zm17 32l3 10h9l-7 6 4 9-9-6-9 6 4-9.1-7-5.9h9zm-34 0l3 10h9l-7 6 4 9-9-6-9 6 4-9.1-7-5.9h9z"/><path class="st25" d="M-378.4 813l3 10h9l-7 6 4 9-9-6-9 6 4-9.1-7-5.9h9zm17 32l3 10h9l-7 6 4 9-9-6-9 6 4-9.1-7-5.9h9zm-34 0l3 10h9l-7 6 4 9-9-6-9 6 4-9.1-7-5.9h9z"/></g></svg>